<svg width="56" height="55" viewBox="0 0 56 55" fill="none" xmlns="http://www.w3.org/2000/svg">
<rect width="56" height="55" rx="12" fill="black"/>
<path d="M41.9357 37.127C41.7312 36.4248 41.1239 36.0196 40.7795 35.8403L34.9313 32.8061C34.3309 32.4949 33.5513 32.4585 33.1633 33.0793L31.7961 35.2712C31.6383 35.5235 31.3891 35.7806 30.8566 35.5278C28.9217 34.6124 26.4907 32.3913 25.5276 31.471C24.6083 30.51 22.3892 28.0834 21.4723 26.1433C21.2197 25.6113 21.4769 25.3621 21.729 25.2045L23.921 23.8357C24.5409 23.4491 24.5041 22.67 24.1926 22.0691L21.1586 16.2212C20.9805 15.8777 20.5769 15.2706 19.8747 15.065C19.4139 14.9302 18.9157 15.0058 18.4337 15.2838L18.4333 15.284C18.2977 15.3624 18.1578 15.4421 18.0154 15.5232C16.7537 16.2417 15.3237 17.0561 14.7332 18.1538C13.8725 19.7598 13.7586 22.4062 14.4498 24.7393C15.7316 29.0578 17.9684 32.8148 21.0944 35.9021C24.1863 39.0326 27.9433 41.269 32.2611 42.5489C33.2792 42.8513 34.3564 43 35.3812 43C36.7049 43 37.9406 42.7516 38.8451 42.2655C39.9445 41.6766 40.7587 40.2458 41.477 38.9834C41.5578 38.8414 41.6371 38.702 41.715 38.5671C41.9934 38.0855 42.0697 37.5875 41.9357 37.127ZM18.4485 16.2836C18.5926 16.2016 18.734 16.121 18.8713 16.0417C19.1489 15.8817 19.3967 15.837 19.6288 15.9049C20.0332 16.0233 20.29 16.4472 20.3817 16.6241L23.4157 22.472C23.521 22.6751 23.6038 23.0022 23.4577 23.0933L22.1743 23.8947L18.2769 16.3814C18.3344 16.3486 18.3916 16.316 18.4485 16.2836ZM38.4313 41.4945C37.0162 42.255 34.6367 42.3416 32.5101 41.71C28.3352 40.4723 24.704 38.3114 21.7132 35.2833C18.6895 32.297 16.528 28.6657 15.2888 24.4904C14.6587 22.3639 14.7455 19.9835 15.5042 18.5678C15.8514 17.9223 16.6567 17.3461 17.5202 16.8234L21.4296 24.3597L21.2653 24.4623C20.5119 24.9332 20.2938 25.7019 20.6814 26.518C21.655 28.5781 23.9573 31.0962 24.902 32.0833L24.9158 32.097C25.9047 33.0425 28.4269 35.3466 30.4816 36.3186C31.2985 36.7065 32.0673 36.4884 32.5383 35.7348L32.6414 35.5695L40.1772 39.4786C39.6545 40.3425 39.0782 41.1479 38.4313 41.4945ZM40.9572 38.1293C40.8783 38.266 40.798 38.407 40.7163 38.5506C40.6841 38.6073 40.6515 38.6644 40.6188 38.7217L33.106 34.8246L33.9056 33.5428C33.9976 33.3956 34.3252 33.4777 34.5284 33.583L40.376 36.6168C40.553 36.709 40.9777 36.9671 41.0954 37.3717C41.163 37.6038 41.1178 37.8515 40.9572 38.1293ZM28.7109 17.1636C28.7109 16.922 28.9068 16.7261 29.1484 16.7261C35.2834 16.7261 40.2745 21.7164 40.2745 27.8504C40.2745 28.0921 40.0786 28.288 39.8369 28.288C39.5952 28.288 39.3993 28.0921 39.3993 27.8504C39.3993 22.199 34.8008 17.6012 29.1484 17.6012C28.9068 17.6012 28.7109 17.4053 28.7109 17.1636ZM28.7109 19.8365C28.7109 19.5948 28.9068 19.3989 29.1484 19.3989C33.8095 19.3989 37.6016 23.1903 37.6016 27.8504C37.6016 28.0921 37.4057 28.288 37.164 28.288C36.9224 28.288 36.7265 28.0921 36.7265 27.8504C36.7265 23.6728 33.327 20.274 29.1484 20.274C28.9068 20.274 28.7109 20.0781 28.7109 19.8365ZM28.7109 22.5094C28.7109 22.2677 28.9068 22.0718 29.1484 22.0718C32.3357 22.0718 34.9287 24.6641 34.9287 27.8505C34.9287 28.0921 34.7328 28.288 34.4911 28.288C34.2495 28.288 34.0536 28.0921 34.0536 27.8505C34.0536 25.1466 31.8532 22.9469 29.1484 22.9469C28.9068 22.9469 28.7109 22.7511 28.7109 22.5094Z" fill="white"/>
</svg>
