<svg width="56" height="55" viewBox="0 0 56 55" fill="none" xmlns="http://www.w3.org/2000/svg">
<rect width="56" height="55" rx="12" fill="black"/>
<path d="M29.4998 40H29.4949C27.5444 39.9992 25.6105 39.5165 23.8775 38.6008L18.5354 39.8746C18.2094 39.9522 17.868 39.8496 17.6308 39.6027C17.3935 39.3558 17.2934 38.9987 17.3651 38.6564L18.5226 33.1406C17.5281 31.2154 17.0031 29.1067 17.0002 27.0159C17 27.0087 17 27.0015 17 26.9945C17.0013 23.5296 18.3084 20.2665 20.6802 17.8064C23.0467 15.3518 26.1787 14 29.4996 14C32.8279 14.0014 35.955 15.3544 38.3058 17.8096C40.6893 20.2989 42.0011 23.5646 42 27.0049C41.999 29.6048 41.2554 32.1175 39.8495 34.2711C39.5449 34.7378 38.9372 34.8572 38.492 34.5379C38.047 34.2186 37.933 33.5815 38.2376 33.1149C39.4203 31.3029 40.0459 29.1899 40.0469 27.0041C40.0478 24.1123 38.94 21.362 36.9274 19.26C34.9451 17.1895 32.307 16.0486 29.4992 16.0474C23.6927 16.0474 18.9653 20.9481 18.9531 26.9761C18.9531 26.9827 18.9533 26.9891 18.9533 26.9955C18.9526 28.8614 19.4532 30.7533 20.401 32.4666C20.5236 32.6884 20.5625 32.9501 20.5099 33.2002L19.6033 37.5201L23.7947 36.5205C24.0261 36.4656 24.2687 36.5005 24.4774 36.6191C26.0088 37.4907 27.7439 37.9518 29.4952 37.9526H29.4996C31.4041 37.9526 33.2745 37.4127 34.9083 36.3916C35.3714 36.1018 35.9709 36.2608 36.2471 36.7465C36.5232 37.2321 36.3718 37.8604 35.9085 38.1501C33.9724 39.3602 31.7562 40 29.4996 40H29.4998ZM26.7418 21.7915C26.5276 21.294 26.3021 21.277 26.0984 21.2684H25.5505C25.3597 21.2684 25.05 21.3432 24.7881 21.6421C24.526 21.9411 23.7873 22.6637 23.7873 24.1335C23.7873 25.6033 24.8119 27.0237 24.9548 27.2232C25.0978 27.4224 26.9329 30.5349 29.8389 31.7324C32.2542 32.7276 32.7457 32.5296 33.2699 32.4796C33.7942 32.43 34.9617 31.7572 35.1997 31.0596C35.4381 30.3622 35.4381 29.7644 35.3666 29.6394C35.2953 29.515 35.1046 29.4402 34.8186 29.2909C34.5325 29.1415 33.1312 28.4063 32.8691 28.3067C32.6071 28.2072 32.4165 28.1574 32.2258 28.4565C32.0351 28.7552 31.4735 29.446 31.3066 29.6452C31.1399 29.8449 30.973 29.8697 30.6871 29.7204C30.4012 29.5704 29.4897 29.2495 28.3974 28.232C27.5473 27.44 26.9575 26.4303 26.7906 26.1311C26.6237 25.8324 26.7727 25.6705 26.9161 25.5215C27.0445 25.3877 27.2182 25.2048 27.3613 25.0304C27.504 24.8561 27.5448 24.7315 27.64 24.5322C27.7353 24.3328 27.6876 24.1585 27.6163 24.0089C27.5448 23.8595 26.9958 22.3821 26.7416 21.7915" fill="white"/>
</svg>
