<svg width="118" height="32" viewBox="0 0 118 32" fill="none" xmlns="http://www.w3.org/2000/svg">
<g filter="url(#filter0_d_2109_2673)">
<path d="M16.6796 0.000488281C9.7491 0.000488281 4.1078 5.33521 4.10486 11.892C4.10413 13.988 4.68333 16.0339 5.78365 17.8371L3.99976 24.0005L10.6657 22.3467C12.5025 23.2942 14.5701 23.7933 16.6745 23.794H16.6796C23.6094 23.794 29.2507 18.4586 29.2536 11.9018C29.2551 8.72416 27.9482 5.73632 25.5741 3.48884C23.2 1.24067 20.0431 0.00187862 16.6796 0.000488281ZM16.6796 21.7857H16.6752C14.8002 21.7857 12.9604 21.3081 11.3559 20.4079L10.9744 20.1937L7.01923 21.1753L8.07472 17.5278L7.82628 17.1538C6.78034 15.5799 6.22761 13.7607 6.22834 11.8934C6.23055 6.44331 10.9193 2.00953 16.684 2.00953C19.4756 2.01022 22.0997 3.03977 24.0725 4.90838C26.046 6.7763 27.1316 9.26013 27.1309 11.9011C27.1287 17.3512 22.44 21.7857 16.6796 21.7857ZM22.4121 14.3828C22.0982 14.2341 20.5532 13.5153 20.2651 13.4159C19.9769 13.3164 19.7674 13.2671 19.558 13.5646C19.3485 13.8622 18.7465 14.5316 18.5635 14.7297C18.3805 14.9285 18.1967 14.9529 17.8828 14.8041C17.569 14.6553 16.5561 14.3411 15.3566 13.329C14.4224 12.5413 13.7917 11.5681 13.6087 11.2706C13.4257 10.973 13.5889 10.8124 13.7469 10.6644C13.888 10.5316 14.0607 10.3175 14.218 10.1437C14.3753 9.9699 14.4275 9.84616 14.5319 9.64734C14.6363 9.44922 14.5841 9.27543 14.5054 9.12666C14.4268 8.9779 13.7983 7.51526 13.5367 6.9202C13.2816 6.34112 13.0229 6.41898 12.8296 6.40994C12.6466 6.40091 12.4371 6.39952 12.2276 6.39952C12.0181 6.39952 11.6778 6.4739 11.3897 6.77143C11.1015 7.06896 10.2901 7.78777 10.2901 9.2504C10.2901 10.713 11.4161 12.1263 11.5727 12.3244C11.73 12.5226 13.788 15.5243 16.9398 16.8111C17.6895 17.1169 18.2746 17.2998 18.7311 17.4367C19.4837 17.6626 20.1688 17.6307 20.7097 17.5542C21.3132 17.4687 22.5686 16.8354 22.8303 16.1409C23.0919 15.4471 23.0919 14.8521 23.0133 14.7276C22.9347 14.6039 22.7252 14.5295 22.4113 14.3807L22.4121 14.3828ZM44.6568 14.2014H44.6229L42.5384 6.24727H40.0261L37.9071 14.1041H37.8732L35.9423 6.24727H33.2595L36.4892 17.7905H39.2066L41.2396 9.93306H41.2742L43.3418 17.7905H46.0077L49.2889 6.24727H46.6575L44.6568 14.2014ZM57.4733 10.1513C57.2345 9.8552 56.9066 9.62371 56.4913 9.45617C56.0753 9.29003 55.5424 9.20661 54.8934 9.20661C54.4377 9.20661 53.971 9.31644 53.4917 9.5382C53.0132 9.75857 52.6207 10.1117 52.3127 10.5969H52.2613V6.24727H49.835V17.7899H52.2613V13.4089C52.2613 12.5573 52.409 11.9463 52.706 11.5737C53.0022 11.2024 53.4807 11.0161 54.1415 11.0161C54.7221 11.0161 55.1264 11.1858 55.355 11.5257C55.5829 11.8649 55.6968 12.3794 55.6968 13.069V17.7899H58.1238V12.6491C58.1238 12.1319 58.0746 11.6606 57.9783 11.2344C57.8813 10.8097 57.713 10.4482 57.4733 10.1513ZM67.4704 15.931V11.5827C67.4704 11.0752 67.3513 10.6685 67.1109 10.362C66.8721 10.0547 66.5648 9.81488 66.1892 9.64248C65.8129 9.47008 65.3969 9.35398 64.9412 9.29489C64.4854 9.2358 64.0356 9.20591 63.5917 9.20591C63.1021 9.20591 62.6148 9.2511 62.1312 9.34355C61.6461 9.43532 61.2109 9.58895 60.8236 9.80445C60.4362 10.02 60.1165 10.3057 59.8673 10.6609C59.6159 11.0168 59.4733 11.4638 59.4395 12.0033H61.8658C61.9114 11.5507 62.0716 11.2268 62.3451 11.0328C62.6185 10.8389 62.9941 10.7422 63.4726 10.7422C63.6887 10.7422 63.8908 10.7554 64.079 10.7826C64.2664 10.8097 64.4318 10.8625 64.5744 10.9438C64.717 11.0245 64.8309 11.1378 64.9162 11.2838C65.0014 11.4291 65.0441 11.6265 65.0441 11.8733C65.0551 12.111 64.9809 12.2904 64.8221 12.4148C64.6618 12.5392 64.4458 12.6338 64.1723 12.6977C63.8989 12.7631 63.5858 12.8118 63.2322 12.843C62.8787 12.8764 62.52 12.9202 62.1562 12.973C61.7909 13.0273 61.4292 13.0996 61.0713 13.1913C60.7126 13.2824 60.3921 13.4207 60.1135 13.6029C59.8342 13.7871 59.6064 14.0318 59.4292 14.339C59.2528 14.6463 59.1646 15.0377 59.1646 15.5111C59.1646 15.9421 59.2418 16.314 59.3954 16.6261C59.549 16.9397 59.7629 17.1976 60.0364 17.4026C60.3098 17.6077 60.6288 17.7586 60.9934 17.8559C61.3572 17.9525 61.7512 18.0012 62.1723 18.0012C62.7192 18.0012 63.255 17.9254 63.7784 17.7753C64.3024 17.623 64.7589 17.3602 65.1462 16.9821C65.1573 17.1225 65.1771 17.2601 65.2058 17.3943C65.2344 17.5285 65.2712 17.6612 65.3167 17.7899H67.7776C67.6637 17.6181 67.5836 17.3595 67.538 17.014C67.4917 16.6692 67.4689 16.3091 67.4689 15.931H67.4704ZM65.0441 14.5566C65.0441 14.6873 65.0301 14.8597 65.0014 15.0745C64.9735 15.2907 64.8963 15.5027 64.7706 15.7134C64.6449 15.9233 64.4509 16.1048 64.1892 16.2549C63.9276 16.4065 63.5571 16.4815 63.0779 16.4815C62.8846 16.4815 62.6964 16.4656 62.5141 16.4322C62.3318 16.4002 62.1723 16.3432 62.0356 16.2626C61.8989 16.1819 61.7909 16.0714 61.7107 15.931C61.6314 15.7905 61.5909 15.6188 61.5909 15.4145C61.5909 15.199 61.6314 15.0203 61.7107 14.8806C61.7909 14.7408 61.896 14.6248 62.0275 14.533C62.1576 14.4412 62.312 14.3689 62.4884 14.3147C62.6648 14.2612 62.8441 14.2181 63.0272 14.1854C63.2205 14.1534 63.4145 14.1256 63.6078 14.1048C63.8026 14.0839 63.9871 14.0561 64.1635 14.0241C64.3406 13.9915 64.5053 13.9511 64.6596 13.9025C64.8133 13.8538 64.9412 13.7878 65.0441 13.7009V14.5566ZM71.9996 6.92645H69.5725V9.43184H68.1032V10.9675H69.5725V15.899C69.5725 16.3196 69.6475 16.6588 69.7952 16.9174C69.9437 17.176 70.1459 17.3762 70.4016 17.516C70.6582 17.6564 70.9544 17.7502 71.291 17.7982C71.6262 17.8462 71.9834 17.8712 72.359 17.8712C72.5993 17.8712 72.8434 17.8656 73.0947 17.8559C73.3447 17.8448 73.5725 17.8239 73.7783 17.7905V16.0123C73.6637 16.0339 73.5446 16.0512 73.4189 16.061C73.2939 16.0721 73.1631 16.0777 73.0264 16.0777C72.617 16.0777 72.3428 16.0123 72.2061 15.883C72.0701 15.7537 72.0018 15.4951 72.0018 15.1065V10.9675H73.7791V9.43184H72.0018V6.92645H71.9996ZM82.0297 14.1291C81.8702 13.8649 81.6592 13.6439 81.3976 13.4659C81.1359 13.2886 80.836 13.1454 80.5008 13.037C80.1642 12.9299 79.8195 12.8389 79.4667 12.7631C79.1249 12.6873 78.7897 12.6171 78.4589 12.5525C78.1282 12.4878 77.8349 12.4148 77.5784 12.3349C77.3226 12.2535 77.1153 12.1493 76.9558 12.0193C76.7956 11.89 76.7169 11.7238 76.7169 11.518C76.7169 11.3456 76.761 11.208 76.8529 11.1058C76.9441 11.0036 77.0558 10.9258 77.1866 10.8708C77.3182 10.8173 77.4623 10.7826 77.6217 10.7659C77.7812 10.7499 77.9297 10.7422 78.0657 10.7422C78.4986 10.7422 78.875 10.8201 79.1947 10.9765C79.513 11.1329 79.6901 11.4318 79.7232 11.8733H82.0304C81.9848 11.3561 81.8452 10.9278 81.6122 10.5879C81.3792 10.2487 81.0852 9.97685 80.7324 9.77178C80.3796 9.5667 79.9782 9.42141 79.5269 9.33521C79.0771 9.24901 78.6133 9.20591 78.1355 9.20591C77.6578 9.20591 77.1888 9.24623 76.7346 9.32617C76.2781 9.40751 75.868 9.54793 75.5042 9.74745C75.1388 9.94696 74.8463 10.2188 74.6236 10.5636C74.4009 10.9084 74.2899 11.3505 74.2899 11.8893C74.2899 12.2556 74.37 12.5664 74.5303 12.8194C74.6883 13.0731 74.9 13.2824 75.1609 13.4499C75.424 13.6168 75.7232 13.7523 76.0591 13.8538C76.395 13.9574 76.7397 14.0457 77.0925 14.1214C77.9591 14.2938 78.6346 14.4663 79.1183 14.6393C79.6026 14.8118 79.8445 15.0704 79.8445 15.4152C79.8445 15.6202 79.7937 15.7885 79.6908 15.9233C79.5879 16.0589 79.46 16.1659 79.3064 16.2466C79.1521 16.3279 78.9808 16.3877 78.7934 16.4245C78.6052 16.4628 78.4251 16.4815 78.2546 16.4815C78.015 16.4815 77.7849 16.4544 77.563 16.4009C77.3402 16.3467 77.144 16.2633 76.9727 16.15C76.8022 16.0366 76.6618 15.8913 76.5538 15.7134C76.4464 15.5354 76.3913 15.3234 76.3913 15.0745H74.0848C74.1084 15.6348 74.2414 16.1013 74.4869 16.4732C74.7309 16.8451 75.044 17.144 75.4262 17.3707C75.8077 17.5966 76.2443 17.7586 76.7346 17.8559C77.2234 17.9525 77.7247 18.0012 78.237 18.0012C78.7493 18.0012 79.2315 17.9553 79.7158 17.8642C80.2002 17.7725 80.6302 17.6133 81.0058 17.3867C81.3829 17.1607 81.6857 16.8618 81.9202 16.4899C82.1532 16.1173 82.27 15.6571 82.27 15.1072C82.27 14.7186 82.1907 14.3933 82.0312 14.1298L82.0297 14.1291ZM86.8485 6.24727L82.2347 17.7905H84.9345L85.8908 15.2198H90.4538L91.3755 17.7905H94.162L89.5997 6.24727H86.8485ZM86.5927 13.329L88.1818 9.09329H88.2156L89.754 13.329H86.5927ZM102.553 10.5643C102.223 10.1548 101.807 9.826 101.306 9.57852C100.804 9.33035 100.207 9.20661 99.5122 9.20661C98.9646 9.20661 98.464 9.3088 98.0083 9.51318C97.5511 9.71825 97.1763 10.0471 96.8808 10.4996H96.8463V9.43184H94.5383V20.7172H96.9668V16.7561H96.9999C97.2961 17.1663 97.6754 17.4756 98.1377 17.6849C98.5978 17.8948 99.1028 18.0005 99.6496 18.0005C100.299 18.0005 100.866 17.8809 101.35 17.6446C101.834 17.4075 102.238 17.0891 102.563 16.6901C102.888 16.2911 103.129 15.8336 103.29 15.3164C103.448 14.7985 103.529 14.2598 103.529 13.6995C103.529 13.1065 103.448 12.5386 103.29 11.9935C103.129 11.4499 102.885 10.9723 102.554 10.5629L102.553 10.5643ZM100.998 14.622C100.929 14.9459 100.812 15.2282 100.648 15.4708C100.482 15.7134 100.266 15.9108 99.9973 16.061C99.7305 16.2118 99.3968 16.2883 98.9984 16.2883C98.6 16.2883 98.2818 16.2125 98.0083 16.061C97.7349 15.9108 97.5151 15.7134 97.3497 15.4708C97.1844 15.2282 97.0653 14.9459 96.9911 14.622C96.9168 14.2987 96.8808 13.9699 96.8808 13.6369C96.8808 13.3039 96.9139 12.957 96.9822 12.6345C97.0513 12.3112 97.1675 12.0255 97.3336 11.7766C97.4975 11.5292 97.715 11.3276 97.9833 11.1712C98.2509 11.0147 98.5831 10.9355 98.9822 10.9355C99.3813 10.9355 99.6981 11.0147 99.965 11.1712C100.232 11.3269 100.452 11.5312 100.623 11.785C100.793 12.0387 100.915 12.3272 100.99 12.6498C101.065 12.973 101.101 13.3025 101.101 13.6369C101.101 13.9713 101.067 14.2994 100.998 14.622ZM112.959 11.9949C112.8 11.4513 112.555 10.9737 112.224 10.5643C111.894 10.1548 111.479 9.826 110.978 9.57852C110.476 9.33035 109.877 9.20661 109.183 9.20661C108.637 9.20661 108.135 9.3088 107.68 9.51318C107.224 9.71825 106.848 10.0471 106.551 10.4996H106.518V9.43184H104.211V20.7172H106.637V16.7561H106.672C106.968 17.1663 107.348 17.4756 107.808 17.6849C108.269 17.8948 108.774 18.0005 109.321 18.0005C109.97 18.0005 110.536 17.8809 111.021 17.6446C111.505 17.4075 111.91 17.0891 112.234 16.6901C112.56 16.2911 112.801 15.8336 112.96 15.3164C113.12 14.7985 113.2 14.2598 113.2 13.6995C113.2 13.1065 113.12 12.5386 112.96 11.9935L112.959 11.9949ZM110.669 14.622C110.601 14.9459 110.485 15.2282 110.319 15.4708C110.153 15.7134 109.937 15.9108 109.669 16.061C109.402 16.2118 109.069 16.2883 108.67 16.2883C108.271 16.2883 107.952 16.2125 107.678 16.061C107.404 15.9108 107.186 15.7134 107.02 15.4708C106.855 15.2282 106.735 14.9459 106.661 14.622C106.587 14.2987 106.55 13.9699 106.55 13.6369C106.55 13.3039 106.585 12.957 106.653 12.6345C106.721 12.3112 106.838 12.0255 107.004 11.7766C107.168 11.5292 107.385 11.3276 107.653 11.1712C107.92 11.0147 108.254 10.9355 108.653 10.9355C109.052 10.9355 109.367 11.0147 109.635 11.1712C109.903 11.3269 110.122 11.5312 110.293 11.785C110.465 12.0387 110.587 12.3272 110.661 12.6498C110.736 12.973 110.772 13.3025 110.772 13.6369C110.772 13.9713 110.737 14.2994 110.669 14.622Z" fill="white"/>
</g>
<defs>
<filter id="filter0_d_2109_2673" x="-0.000244141" y="0.000488281" width="117.2" height="32" filterUnits="userSpaceOnUse" color-interpolation-filters="sRGB">
<feFlood flood-opacity="0" result="BackgroundImageFix"/>
<feColorMatrix in="SourceAlpha" type="matrix" values="0 0 0 0 0 0 0 0 0 0 0 0 0 0 0 0 0 0 127 0" result="hardAlpha"/>
<feOffset dy="4"/>
<feGaussianBlur stdDeviation="2"/>
<feComposite in2="hardAlpha" operator="out"/>
<feColorMatrix type="matrix" values="0 0 0 0 0 0 0 0 0 0 0 0 0 0 0 0 0 0 0.25 0"/>
<feBlend mode="normal" in2="BackgroundImageFix" result="effect1_dropShadow_2109_2673"/>
<feBlend mode="normal" in="SourceGraphic" in2="effect1_dropShadow_2109_2673" result="shape"/>
</filter>
</defs>
</svg>
