<svg width="16" height="16" viewBox="0 0 16 16" fill="none" xmlns="http://www.w3.org/2000/svg">
<path d="M7.19751 16H5.32088L7.34833 10H3.98616L3.26207 11.102C3.07997 11.3783 2.83197 11.605 2.54039 11.7617C2.2488 11.9185 1.92278 12.0004 1.59166 12H0.0106778L1.47888 8L0 4H1.58365C1.91422 3.99956 2.23972 4.08114 2.53092 4.23741C2.82213 4.39369 3.06992 4.61976 3.25206 4.89533L3.98616 6H7.35034L5.32088 3.42691e-08H7.19751C7.55719 -6.64697e-05 7.91025 0.0966633 8.21957 0.280022C8.52889 0.46338 8.78306 0.726595 8.95534 1.042L11.7196 6H13.9252C14.4079 5.99394 14.8773 6.15754 15.2514 6.4622C15.6256 6.76686 15.8806 7.19319 15.972 7.66667C16.0205 7.95356 16.0058 8.24758 15.9289 8.52821C15.852 8.80884 15.7147 9.06933 15.5266 9.29149C15.3385 9.51366 15.1042 9.69215 14.8399 9.81452C14.5757 9.93689 14.2879 10.0002 13.9966 10H11.7196L8.95267 14.9627C8.77999 15.2768 8.52598 15.5388 8.21722 15.7213C7.90845 15.9038 7.55627 16 7.19751 16Z" fill="black"/>
</svg>
