<svg width="16" height="16" viewBox="0 0 16 16" fill="none" xmlns="http://www.w3.org/2000/svg">
<path d="M14.5785 8.47392L8.09846 7.39085C8.03692 7.38469 7.96308 7.38469 7.90154 7.39085L1.42154 8.47392C0.596923 8.60931 0 9.317 0 10.1478C0 10.4678 0.0923077 10.7816 0.258462 11.0524L2.80615 15.1324C3.15077 15.6739 3.73538 16.0001 4.37538 16.0001H7.38462V10.4616C7.38462 10.1232 7.66154 9.84623 8 9.84623C8.33846 9.84623 8.61539 10.1232 8.61539 10.4616V16.0001H11.6246C12.2646 16.0001 12.8492 15.6739 13.1938 15.1324L15.7415 11.0524C15.9077 10.7816 16 10.4678 16 10.1478C16 9.317 15.4031 8.60931 14.5785 8.47392Z" fill="black"/>
<path d="M4.61543 3.07692H11.3847C11.557 3.07692 11.6924 2.94154 11.6924 2.76923V0.615385C11.6924 0.276923 11.4154 0 11.077 0H4.92312C4.58466 0 4.30774 0.276923 4.30774 0.615385V2.76923C4.30774 2.94154 4.44312 3.07692 4.61543 3.07692Z" fill="black"/>
<path d="M8.61536 6.23377L14.1538 7.15685V4.923C14.1538 4.58454 13.8769 4.30762 13.5384 4.30762H8.61536V6.23377Z" fill="black"/>
<path d="M7.38465 4.30762H2.46158C2.12311 4.30762 1.84619 4.58454 1.84619 4.923V7.15685L7.38465 6.23377V4.30762Z" fill="black"/>
</svg>
