<svg width="105" height="36" viewBox="0 0 105 36" fill="none" xmlns="http://www.w3.org/2000/svg">
<g clip-path="url(#clip0_2109_2531)">
<path d="M96.6385 0.000114075H8.36627C8.0445 0.000114075 7.7266 0.000114075 7.40569 0.00186908C7.13705 0.00362408 6.87056 0.00872235 6.59935 0.0130133C6.01015 0.0199472 5.42234 0.071785 4.84101 0.168076C4.26051 0.266464 3.69819 0.451953 3.17308 0.718269C2.6486 0.986838 2.16937 1.33582 1.75278 1.75254C1.334 2.1681 0.984912 2.64842 0.718944 3.17505C0.452241 3.70063 0.267309 4.26383 0.170534 4.84521C0.0728385 5.42586 0.0202678 6.0132 0.0132935 6.60197C0.00515067 6.87101 0.00429076 7.14095 0 7.41002V27.6928C0.00429076 27.9652 0.00515067 28.2292 0.0132935 28.5018C0.02027 29.0905 0.0728406 29.6778 0.170534 30.2584C0.267042 30.8401 0.451985 31.4037 0.718944 31.9294C0.984792 32.4544 1.33393 32.9327 1.75278 33.346C2.1678 33.7646 2.64733 34.1138 3.17308 34.3803C3.69819 34.6473 4.26045 34.8339 4.84101 34.9338C5.42243 35.0294 6.01019 35.0812 6.59935 35.089C6.87056 35.0949 7.13705 35.0984 7.40569 35.0984C7.72659 35.1001 8.04452 35.1001 8.36627 35.1001H96.6385C96.9538 35.1001 97.2743 35.1001 97.5896 35.0984C97.857 35.0984 98.1312 35.0949 98.3985 35.089C98.9866 35.0816 99.5732 35.0298 100.153 34.9338C100.736 34.8332 101.3 34.6467 101.828 34.3803C102.353 34.1136 102.832 33.7644 103.247 33.346C103.665 32.9311 104.014 32.4531 104.284 31.9294C104.549 31.4033 104.732 30.8398 104.827 30.2584C104.925 29.6777 104.979 29.0905 104.99 28.5018C104.993 28.2292 104.993 27.9652 104.993 27.6928C105 27.374 105 27.0569 105 26.733V8.36807C105 8.04672 105 7.72794 104.993 7.41002C104.993 7.14095 104.993 6.87101 104.99 6.60193C104.979 6.01311 104.925 5.4259 104.827 4.84518C104.732 4.26413 104.548 3.70097 104.284 3.17501C103.742 2.11945 102.883 1.26023 101.828 0.71819C101.3 0.452524 100.736 0.267085 100.153 0.167997C99.5733 0.0712818 98.9866 0.0194259 98.3985 0.0128905C98.1312 0.00860828 97.857 0.00346613 97.5896 0.001755C97.2743 0 96.9538 0.000114075 96.6385 0.000114075Z" fill="#A6A6A6"/>
<path d="M7.41005 34.3319C7.14271 34.3319 6.88183 34.3285 6.61658 34.3226C6.0671 34.3154 5.51891 34.2676 4.97649 34.1794C4.47072 34.0923 3.98076 33.9303 3.52277 33.6987C3.06899 33.4689 2.6551 33.1677 2.29697 32.8066C1.93365 32.4497 1.63117 32.0357 1.40151 31.5812C1.16933 31.1236 1.00864 30.6332 0.925056 30.127C0.834787 29.583 0.785948 29.033 0.778959 28.4817C0.773396 28.2966 0.766113 27.6804 0.766113 27.6804V7.40967C0.766113 7.40967 0.77387 6.80296 0.779003 6.62471C0.785694 6.07424 0.83425 5.52508 0.924249 4.98197C1.00799 4.47436 1.1688 3.98252 1.40111 3.52348C1.62992 3.06921 1.93072 2.65496 2.29185 2.29678C2.65258 1.9352 3.06779 1.63245 3.52234 1.39956C3.97927 1.16868 4.46831 1.00778 4.97306 0.922255C5.51726 0.833247 6.06735 0.785125 6.61874 0.778292L7.41048 0.767578H97.5854L98.3866 0.778722C98.933 0.785215 99.4781 0.832908 100.017 0.921395C100.527 1.00799 101.021 1.17001 101.483 1.40213C102.394 1.87146 103.135 2.61398 103.602 3.52562C103.831 3.98149 103.989 4.46932 104.072 4.97255C104.163 5.52011 104.214 6.07359 104.225 6.62858C104.227 6.87708 104.227 7.14402 104.227 7.40967C104.234 7.73874 104.234 8.05194 104.234 8.36772V26.7326C104.234 27.0514 104.234 27.3625 104.227 27.6761C104.227 27.9615 104.227 28.2229 104.224 28.4919C104.213 29.037 104.163 29.5806 104.074 30.1184C103.992 30.6283 103.832 31.1225 103.6 31.5838C103.369 32.0334 103.068 32.4438 102.709 32.7997C102.35 33.1628 101.936 33.4658 101.481 33.697C101.02 33.9304 100.527 34.093 100.017 34.1794C99.4749 34.268 98.9267 34.3159 98.3771 34.3226C98.1201 34.3285 97.851 34.3319 97.5897 34.3319L96.6385 34.3337L7.41005 34.3319Z" fill="black"/>
<path d="M21.7335 17.8138C21.7429 17.0813 21.9375 16.3632 22.299 15.7262C22.6605 15.0892 23.1773 14.554 23.8013 14.1703C23.4049 13.6042 22.882 13.1383 22.2741 12.8096C21.6661 12.481 20.99 12.2986 20.2992 12.277C18.8258 12.1223 17.3973 13.1587 16.6465 13.1587C15.8811 13.1587 14.725 12.2923 13.4802 12.3179C12.6749 12.344 11.8902 12.5781 11.2024 12.9976C10.5145 13.4171 9.94712 14.0076 9.55536 14.7116C7.85836 17.6499 9.12417 21.9681 10.7498 24.3432C11.5631 25.5061 12.5136 26.8052 13.7574 26.7592C14.9744 26.7087 15.429 25.983 16.8981 25.983C18.3536 25.983 18.7801 26.7592 20.0491 26.7299C21.3551 26.7087 22.1779 25.5617 22.9627 24.3877C23.547 23.559 23.9967 22.6432 24.295 21.674C23.5363 21.3531 22.8888 20.8159 22.4333 20.1295C21.9778 19.443 21.7344 18.6376 21.7335 17.8138Z" fill="white"/>
<path d="M19.3365 10.7149C20.0486 9.86001 20.3994 8.76122 20.3144 7.65186C19.2265 7.76612 18.2216 8.28609 17.4999 9.10816C17.1471 9.50976 16.8768 9.97698 16.7046 10.4831C16.5324 10.9892 16.4617 11.5243 16.4964 12.0578C17.0405 12.0634 17.5788 11.9454 18.0708 11.7128C18.5628 11.4802 18.9955 11.139 19.3365 10.7149Z" fill="white"/>
<path d="M37.1182 23.8148H32.9649L31.9674 26.7601H30.2083L34.1422 15.8633H35.97L39.904 26.7601H38.1148L37.1182 23.8148ZM33.395 22.4557H36.6872L35.0643 17.6757H35.0189L33.395 22.4557Z" fill="white"/>
<path d="M48.4 22.7883C48.4 25.2571 47.0787 26.8433 45.0847 26.8433C44.5796 26.8697 44.0772 26.7534 43.6352 26.5075C43.1931 26.2617 42.8292 25.8964 42.5851 25.4533H42.5474V29.3884H40.9167V18.8155H42.4952V20.1369H42.5252C42.7805 19.696 43.1505 19.3326 43.5959 19.0853C44.0414 18.8379 44.5455 18.716 45.0547 18.7324C47.0709 18.7324 48.4 20.3263 48.4 22.7883ZM46.7239 22.7883C46.7239 21.1798 45.8927 20.1224 44.6245 20.1224C43.3786 20.1224 42.5406 21.2021 42.5406 22.7883C42.5406 24.389 43.3786 25.4611 44.6245 25.4611C45.8927 25.4611 46.7239 24.4113 46.7239 22.7883Z" fill="white"/>
<path d="M57.1437 22.7883C57.1437 25.2571 55.8223 26.8433 53.8283 26.8433C53.3232 26.8697 52.8209 26.7534 52.3788 26.5075C51.9368 26.2617 51.5729 25.8964 51.3288 25.4533H51.2911V29.3884H49.6604V18.8155H51.2388V20.1369H51.2688C51.5241 19.696 51.8941 19.3326 52.3396 19.0852C52.785 18.8379 53.2891 18.716 53.7983 18.7324C55.8146 18.7324 57.1437 20.3263 57.1437 22.7883ZM55.4676 22.7883C55.4676 21.1798 54.6364 20.1224 53.3682 20.1224C52.1223 20.1224 51.2842 21.2021 51.2842 22.7883C51.2842 24.389 52.1223 25.4611 53.3682 25.4611C54.6364 25.4611 55.4676 24.4113 55.4676 22.7883Z" fill="white"/>
<path d="M62.9227 23.724C63.0435 24.8046 64.0932 25.5141 65.5276 25.5141C66.9021 25.5141 67.8909 24.8046 67.8909 23.8302C67.8909 22.9844 67.2945 22.478 65.8824 22.1309L64.4702 21.7907C62.4694 21.3074 61.5405 20.3716 61.5405 18.8532C61.5405 16.973 63.1789 15.6816 65.5053 15.6816C67.8078 15.6816 69.3862 16.973 69.4393 18.8532H67.7932C67.6947 17.7657 66.7958 17.1093 65.4822 17.1093C64.1686 17.1093 63.2697 17.7734 63.2697 18.74C63.2697 19.5104 63.8438 19.9637 65.2483 20.3108L66.4487 20.6056C68.6844 21.1343 69.6133 22.0324 69.6133 23.6262C69.6133 25.6649 67.9894 26.9417 65.4068 26.9417C62.9903 26.9417 61.3588 25.6949 61.2534 23.7239L62.9227 23.724Z" fill="white"/>
<path d="M73.1326 16.9355V18.8157H74.6433V20.1071H73.1326V24.4868C73.1326 25.1672 73.4351 25.4843 74.0991 25.4843C74.2785 25.4812 74.4575 25.4686 74.6356 25.4466V26.7303C74.337 26.7861 74.0335 26.8113 73.7298 26.8057C72.1214 26.8057 71.4942 26.2015 71.4942 24.6608V20.1071H70.3391V18.8157H71.4942V16.9355H73.1326Z" fill="white"/>
<path d="M75.5181 22.7882C75.5181 20.2885 76.9902 18.7178 79.2858 18.7178C81.5891 18.7178 83.0544 20.2885 83.0544 22.7882C83.0544 25.2947 81.5969 26.8586 79.2858 26.8586C76.9756 26.8586 75.5181 25.2947 75.5181 22.7882ZM81.3929 22.7882C81.3929 21.0735 80.6071 20.0614 79.2858 20.0614C77.9645 20.0614 77.1796 21.0812 77.1796 22.7882C77.1796 24.5098 77.9645 25.5141 79.2858 25.5141C80.6071 25.5141 81.3929 24.5098 81.3929 22.7882Z" fill="white"/>
<path d="M84.3989 18.8155H85.9542V20.1677H85.9919C86.0971 19.7454 86.3445 19.3721 86.6925 19.1107C87.0405 18.8494 87.4679 18.7157 87.9028 18.7323C88.0907 18.7317 88.2781 18.7521 88.4615 18.7932V20.3185C88.2242 20.246 87.9768 20.2127 87.7288 20.22C87.4919 20.2104 87.2557 20.2521 87.0365 20.3424C86.8173 20.4327 86.6202 20.5694 86.4588 20.743C86.2973 20.9167 86.1754 21.1232 86.1013 21.3484C86.0272 21.5736 86.0028 21.8122 86.0296 22.0478V26.7601H84.3989L84.3989 18.8155Z" fill="white"/>
<path d="M95.9797 24.4267C95.7603 25.8689 94.3558 26.8586 92.5589 26.8586C90.2479 26.8586 88.8135 25.3102 88.8135 22.8259C88.8135 20.334 90.2556 18.7178 92.4904 18.7178C94.6883 18.7178 96.0705 20.2277 96.0705 22.6365V23.1953H90.4596V23.2938C90.4337 23.5862 90.4703 23.8807 90.5669 24.1579C90.6636 24.435 90.8182 24.6884 91.0203 24.9013C91.2224 25.1141 91.4675 25.2815 91.7393 25.3923C92.0111 25.5032 92.3033 25.5549 92.5967 25.5441C92.982 25.5802 93.3687 25.491 93.6993 25.2896C94.0298 25.0883 94.2865 24.7856 94.4313 24.4267L95.9797 24.4267ZM90.4673 22.0555H94.439C94.4536 21.7926 94.4137 21.5295 94.3219 21.2828C94.23 21.036 94.0882 20.8109 93.9052 20.6216C93.7222 20.4322 93.5021 20.2828 93.2587 20.1826C93.0152 20.0823 92.7536 20.0335 92.4904 20.0392C92.2248 20.0376 91.9616 20.0886 91.7159 20.1893C91.4702 20.29 91.2468 20.4383 91.0587 20.6258C90.8706 20.8133 90.7215 21.0361 90.62 21.2815C90.5185 21.5269 90.4666 21.79 90.4673 22.0555Z" fill="white"/>
<path d="M33.1907 7.66121C33.5326 7.63668 33.8756 7.68833 34.1951 7.81244C34.5146 7.93655 34.8026 8.13002 35.0383 8.3789C35.2739 8.62778 35.4514 8.92586 35.558 9.25165C35.6645 9.57744 35.6974 9.92282 35.6543 10.2629C35.6543 11.9356 34.7503 12.8971 33.1907 12.8971H31.2996V7.66121H33.1907ZM32.1127 12.1566H33.0999C33.3442 12.1712 33.5886 12.1312 33.8155 12.0394C34.0424 11.9476 34.2459 11.8064 34.4113 11.626C34.5767 11.4456 34.6998 11.2306 34.7716 10.9966C34.8434 10.7627 34.8622 10.5157 34.8265 10.2735C34.8596 10.0324 34.8389 9.78687 34.766 9.55462C34.6931 9.32238 34.5697 9.10915 34.4047 8.9302C34.2396 8.75125 34.0371 8.61102 33.8115 8.51955C33.5859 8.42808 33.3429 8.38764 33.0999 8.40113H32.1127V12.1566Z" fill="white"/>
<path d="M36.5728 10.9198C36.5479 10.6601 36.5776 10.3981 36.66 10.1506C36.7423 9.90311 36.8755 9.67553 37.0509 9.4825C37.2264 9.28947 37.4402 9.13523 37.6788 9.02969C37.9173 8.92415 38.1752 8.86963 38.4361 8.86963C38.6969 8.86963 38.9549 8.92415 39.1934 9.02969C39.432 9.13523 39.6458 9.28947 39.8213 9.4825C39.9967 9.67553 40.1299 9.90311 40.2122 10.1506C40.2945 10.3981 40.3242 10.6601 40.2994 10.9198C40.3247 11.1797 40.2954 11.4421 40.2132 11.69C40.1311 11.9379 39.998 12.1659 39.8225 12.3593C39.6471 12.5527 39.4331 12.7073 39.1943 12.8131C38.9555 12.9188 38.6972 12.9735 38.4361 12.9735C38.1749 12.9735 37.9167 12.9188 37.6779 12.8131C37.4391 12.7073 37.2251 12.5527 37.0496 12.3593C36.8741 12.1659 36.7411 11.9379 36.6589 11.69C36.5768 11.4421 36.5475 11.1797 36.5728 10.9198ZM39.4973 10.9198C39.4973 10.0633 39.1126 9.56242 38.4374 9.56242C37.7596 9.56242 37.3783 10.0633 37.3783 10.9198C37.3783 11.7832 37.7596 12.2802 38.4374 12.2802C39.1126 12.2802 39.4973 11.7797 39.4973 10.9198Z" fill="white"/>
<path d="M45.2533 12.8971H44.4444L43.6277 9.98697H43.566L42.7529 12.8971H41.9517L40.8625 8.9458H41.6535L42.3613 11.9609H42.4195L43.2319 8.9458H43.9799L44.7923 11.9609H44.854L45.5583 8.9458H46.3381L45.2533 12.8971Z" fill="white"/>
<path d="M47.2539 8.94589H48.0045V9.57359H48.0628C48.1617 9.34814 48.3284 9.15915 48.5397 9.03296C48.7511 8.90677 48.9965 8.84967 49.2419 8.86961C49.4341 8.85516 49.6272 8.88415 49.8067 8.95443C49.9862 9.02471 50.1476 9.13449 50.279 9.27563C50.4103 9.41677 50.5082 9.58566 50.5654 9.76978C50.6227 9.95389 50.6377 10.1485 50.6095 10.3392V12.8972H49.8297V10.5351C49.8297 9.90009 49.5538 9.5843 48.9771 9.5843C48.8466 9.57822 48.7163 9.60044 48.5951 9.64943C48.474 9.69842 48.3649 9.77303 48.2753 9.86813C48.1857 9.96324 48.1177 10.0766 48.076 10.2004C48.0343 10.3243 48.0198 10.4557 48.0337 10.5856V12.8972H47.2539L47.2539 8.94589Z" fill="white"/>
<path d="M51.8521 7.40332H52.6318V12.8971H51.8521V7.40332Z" fill="white"/>
<path d="M53.7158 10.9199C53.691 10.6602 53.7207 10.3982 53.8031 10.1507C53.8854 9.90313 54.0186 9.67555 54.1941 9.48251C54.3695 9.28947 54.5834 9.13524 54.822 9.02969C55.0605 8.92415 55.3185 8.86963 55.5794 8.86963C55.8402 8.86963 56.0982 8.92415 56.3367 9.02969C56.5753 9.13524 56.7892 9.28947 56.9646 9.48251C57.1401 9.67555 57.2732 9.90313 57.3556 10.1507C57.438 10.3982 57.4677 10.6602 57.4429 10.9199C57.4682 11.1798 57.4388 11.4422 57.3566 11.6901C57.2745 11.938 57.1414 12.166 56.9659 12.3594C56.7904 12.5528 56.5763 12.7074 56.3376 12.8131C56.0988 12.9189 55.8405 12.9735 55.5794 12.9735C55.3182 12.9735 55.0599 12.9189 54.8211 12.8131C54.5823 12.7074 54.3683 12.5528 54.1928 12.3594C54.0173 12.166 53.8842 11.938 53.8021 11.6901C53.7199 11.4422 53.6905 11.1798 53.7158 10.9199ZM56.6404 10.9199C56.6404 10.0634 56.2556 9.5625 55.5804 9.5625C54.9026 9.5625 54.5213 10.0634 54.5213 10.9199C54.5213 11.7832 54.9026 12.2803 55.5804 12.2803C56.2556 12.2803 56.6404 11.7798 56.6404 10.9199Z" fill="white"/>
<path d="M58.2637 11.7798C58.2637 11.0685 58.7932 10.6585 59.7332 10.6002L60.8035 10.5385V10.1974C60.8035 9.78011 60.5276 9.54446 59.9946 9.54446C59.5593 9.54446 59.2577 9.70428 59.1711 9.98364H58.4162C58.4959 9.30495 59.1343 8.86963 60.0306 8.86963C61.0212 8.86963 61.5798 9.36278 61.5798 10.1974V12.8972H60.8292V12.3419H60.7675C60.6423 12.5411 60.4664 12.7035 60.2579 12.8125C60.0494 12.9215 59.8157 12.9732 59.5807 12.9623C59.4148 12.9796 59.2472 12.9619 59.0886 12.9104C58.93 12.8589 58.7839 12.7747 58.6598 12.6633C58.5357 12.5518 58.4364 12.4157 58.3682 12.2635C58.2999 12.1113 58.2643 11.9465 58.2637 11.7798ZM60.8035 11.4421V11.1118L59.8386 11.1735C59.2945 11.2099 59.0477 11.395 59.0477 11.7433C59.0477 12.099 59.3562 12.3059 59.7804 12.3059C59.9047 12.3185 60.0302 12.306 60.1496 12.269C60.2689 12.2321 60.3796 12.1715 60.4751 12.0909C60.5705 12.0103 60.6488 11.9114 60.7052 11.7999C60.7616 11.6884 60.7951 11.5668 60.8035 11.4421Z" fill="white"/>
<path d="M62.6047 10.9198C62.6047 9.67121 63.2466 8.88026 64.2448 8.88026C64.4918 8.86888 64.7368 8.92803 64.9514 9.05078C65.1659 9.17354 65.3411 9.35484 65.4565 9.57348H65.5147V7.40332H66.2945V12.8971H65.5473V12.2728H65.4856C65.3614 12.49 65.1801 12.6691 64.9614 12.7906C64.7426 12.9121 64.4949 12.9715 64.2448 12.9622C63.2397 12.9623 62.6047 12.1713 62.6047 10.9198ZM63.4102 10.9198C63.4102 11.7578 63.8053 12.2622 64.4659 12.2622C65.1232 12.2622 65.5293 11.7506 65.5293 10.9232C65.5293 10.0997 65.1189 9.5808 64.4659 9.5808C63.8095 9.5808 63.4102 10.0885 63.4102 10.9198Z" fill="white"/>
<path d="M69.5208 10.9198C69.4959 10.6601 69.5256 10.3981 69.608 10.1506C69.6903 9.90311 69.8235 9.67553 69.9989 9.4825C70.1744 9.28947 70.3882 9.13523 70.6267 9.02969C70.8653 8.92415 71.1232 8.86963 71.3841 8.86963C71.6449 8.86963 71.9029 8.92415 72.1414 9.02969C72.38 9.13523 72.5938 9.28947 72.7692 9.4825C72.9447 9.67553 73.0778 9.90311 73.1602 10.1506C73.2425 10.3981 73.2722 10.6601 73.2474 10.9198C73.2727 11.1797 73.2434 11.4421 73.1612 11.69C73.0791 11.9379 72.946 12.1659 72.7705 12.3593C72.5951 12.5527 72.3811 12.7073 72.1423 12.8131C71.9035 12.9188 71.6452 12.9735 71.3841 12.9735C71.1229 12.9735 70.8647 12.9188 70.6259 12.8131C70.3871 12.7073 70.1731 12.5527 69.9976 12.3593C69.8221 12.1659 69.6891 11.9379 69.6069 11.69C69.5248 11.4421 69.4955 11.1797 69.5208 10.9198ZM72.4453 10.9198C72.4453 10.0633 72.0606 9.56242 71.3854 9.56242C70.7076 9.56242 70.3263 10.0633 70.3263 10.9198C70.3263 11.7832 70.7076 12.2802 71.3854 12.2802C72.0606 12.2802 72.4453 11.7797 72.4453 10.9198Z" fill="white"/>
<path d="M74.2937 8.94589H75.0443V9.57359H75.1026C75.2015 9.34814 75.3682 9.15915 75.5795 9.03296C75.7909 8.90677 76.0363 8.84967 76.2817 8.86961C76.4739 8.85516 76.667 8.88415 76.8465 8.95443C77.026 9.02471 77.1874 9.13449 77.3188 9.27563C77.4501 9.41677 77.548 9.58566 77.6052 9.76978C77.6625 9.95389 77.6775 10.1485 77.6493 10.3392V12.8972H76.8695V10.5351C76.8695 9.90009 76.5936 9.5843 76.0169 9.5843C75.8864 9.57822 75.7561 9.60044 75.6349 9.64943C75.5138 9.69842 75.4047 9.77303 75.3151 9.86813C75.2255 9.96324 75.1575 10.0766 75.1158 10.2004C75.0741 10.3243 75.0596 10.4557 75.0735 10.5856V12.8972H74.2937V8.94589Z" fill="white"/>
<path d="M82.0553 7.96191V8.96367H82.9114V9.62051H82.0553V11.6523C82.0553 12.0662 82.2259 12.2474 82.614 12.2474C82.7134 12.2471 82.8127 12.2411 82.9114 12.2294V12.879C82.7713 12.904 82.6295 12.9174 82.4872 12.9188C81.62 12.9188 81.2747 12.6138 81.2747 11.852V9.62048H80.6475V8.96363H81.2747V7.96191H82.0553Z" fill="white"/>
<path d="M83.9766 7.40332H84.7495V9.58079H84.8112C84.9148 9.35324 85.0861 9.16318 85.3017 9.03652C85.5173 8.90985 85.7667 8.85274 86.0159 8.87297C86.2072 8.86256 86.3984 8.89449 86.5758 8.96648C86.7533 9.03847 86.9128 9.14875 87.0427 9.28945C87.1727 9.43014 87.27 9.59779 87.3277 9.78043C87.3855 9.96307 87.4022 10.1562 87.3767 10.346V12.8971H86.5961V10.5384C86.5961 9.90728 86.3022 9.58764 85.7512 9.58764C85.6172 9.57665 85.4824 9.59507 85.3562 9.64162C85.2301 9.68818 85.1156 9.76174 85.0209 9.85716C84.9261 9.95257 84.8533 10.0675 84.8076 10.194C84.762 10.3205 84.7445 10.4554 84.7564 10.5894V12.8971H83.9766L83.9766 7.40332Z" fill="white"/>
<path d="M91.9232 11.8304C91.8173 12.1915 91.5878 12.5039 91.2748 12.7129C90.9618 12.9219 90.5853 13.0141 90.2112 12.9735C89.9509 12.9804 89.6922 12.9306 89.4531 12.8274C89.214 12.7243 89.0002 12.5704 88.8265 12.3763C88.6528 12.1823 88.5235 11.9527 88.4474 11.7037C88.3714 11.4546 88.3504 11.192 88.386 10.934C88.3513 10.6753 88.3727 10.4121 88.4485 10.1623C88.5244 9.9125 88.6531 9.68192 88.8259 9.48617C88.9986 9.29042 89.2114 9.13408 89.4498 9.02772C89.6882 8.92136 89.9467 8.86747 90.2077 8.8697C91.3071 8.8697 91.9704 9.62083 91.9704 10.8616V11.1337H89.1803V11.1774C89.1681 11.3224 89.1863 11.4684 89.2338 11.6059C89.2813 11.7435 89.357 11.8696 89.4561 11.9762C89.5552 12.0827 89.6754 12.1674 89.8091 12.2248C89.9429 12.2822 90.0871 12.311 90.2326 12.3094C90.4191 12.3318 90.6081 12.2982 90.7755 12.2129C90.9428 12.1276 91.0811 11.9945 91.1726 11.8304L91.9232 11.8304ZM89.1803 10.557H91.176C91.1858 10.4244 91.1678 10.2912 91.1231 10.1659C91.0784 10.0407 91.008 9.92621 90.9164 9.82981C90.8248 9.73341 90.714 9.65724 90.5913 9.60619C90.4685 9.55514 90.3364 9.53034 90.2034 9.53339C90.0686 9.5317 89.9347 9.55702 89.8098 9.60787C89.6849 9.65871 89.5714 9.73405 89.4761 9.82945C89.3807 9.92485 89.3054 10.0384 89.2546 10.1633C89.2038 10.2883 89.1785 10.4221 89.1803 10.557Z" fill="white"/>
</g>
<defs>
<clipPath id="clip0_2109_2531">
<rect width="105" height="35.1" fill="white"/>
</clipPath>
</defs>
</svg>
