<svg width="180" height="26" viewBox="0 0 180 26" fill="none" xmlns="http://www.w3.org/2000/svg">
<mask id="path-1-outside-1_2109_2432" maskUnits="userSpaceOnUse" x="21.8835" y="0" width="158" height="26" fill="black">
<rect fill="white" x="21.8835" width="158" height="26"/>
<path d="M22.8835 12.45C22.8835 10.1906 23.5784 8.51227 24.9681 7.4149C26.3578 6.30945 28.2758 5.75671 30.7221 5.75671C32.9272 5.75671 34.6443 6.18437 35.8731 7.03966C37.1021 7.88692 37.7166 9.12152 37.7166 10.7434C37.7166 11.2033 37.682 11.6471 37.6132 12.0748C37.5557 12.5024 37.4926 12.8131 37.4236 13.0068L37.3203 13.2972H26.5186C26.6564 14.7174 27.1215 15.722 27.914 16.311C28.718 16.892 29.8894 17.1825 31.4284 17.1825C32.1635 17.1825 32.8756 17.122 33.5647 17.0009C34.2653 16.8799 34.7821 16.7629 35.1151 16.6499L35.5975 16.4684C36.3096 16.9122 36.6829 17.5053 36.7173 18.2476C36.6599 18.2718 36.5795 18.3081 36.4761 18.3565C36.3728 18.405 36.1316 18.4897 35.7525 18.6107C35.385 18.7317 34.9945 18.8366 34.5811 18.9254C34.1677 19.0142 33.6221 19.0949 32.9445 19.1675C32.2669 19.2482 31.572 19.2885 30.86 19.2885C25.5423 19.2885 22.8835 17.009 22.8835 12.45ZM26.5186 11.5301H34.0815C34.1504 11.1428 34.1849 10.7716 34.1849 10.4166C34.1849 9.60969 33.915 8.9601 33.3752 8.4679C32.8353 7.96763 31.951 7.71747 30.7221 7.71747C28.1724 7.71747 26.7712 8.98836 26.5186 11.5301ZM40.2662 21.794C40.2662 21.3501 40.3811 20.9306 40.6107 20.5352C40.8404 20.1398 41.1391 19.7969 41.5066 19.5064C41.8741 19.224 42.2072 18.998 42.5058 18.8286C42.8044 18.6591 43.1088 18.5098 43.4189 18.3807C42.902 18.0176 42.6436 17.5375 42.6436 16.9404C42.6436 16.0367 43.2064 15.1208 44.332 14.1929C42.1957 13.499 41.1276 12.1757 41.1276 10.2229C41.1276 8.8189 41.7191 7.72555 42.902 6.94284C44.0965 6.1521 45.8077 5.75671 48.0359 5.75671C49.6208 5.75671 50.9244 5.94631 51.9465 6.32556L56.8908 5.75671C57.0517 6.01492 57.132 6.33766 57.132 6.725C57.132 7.11229 57.0517 7.44316 56.8908 7.71747L53.9621 7.62065C54.6168 8.29037 54.9441 9.15781 54.9441 10.2229C54.9441 11.627 54.3527 12.7243 53.1697 13.5151C51.9867 14.2978 50.2754 14.6891 48.0359 14.6891C47.542 14.6891 47.0252 14.6609 46.4854 14.6044C46.026 15.0401 45.7962 15.4718 45.7962 15.8995C45.7962 15.9479 45.802 15.9964 45.8135 16.0447C45.8595 16.311 46.0547 16.5329 46.3992 16.7105C46.7438 16.8799 47.1802 16.9969 47.7085 17.0615C48.2368 17.126 48.8283 17.1946 49.483 17.2672C50.1376 17.3398 50.8038 17.4044 51.4814 17.4609C52.159 17.5174 52.8194 17.6303 53.4626 17.7998C54.1057 17.9612 54.68 18.1629 55.1853 18.405C55.6907 18.639 56.0926 18.9779 56.3913 19.4216C56.7014 19.8654 56.8564 20.394 56.8564 21.0072C56.8564 22.2499 56.0467 23.2666 54.4273 24.0573C52.8079 24.8481 50.597 25.2435 47.7947 25.2435C45.2565 25.2435 43.3672 24.9288 42.1268 24.2994C40.8864 23.6781 40.2662 22.8429 40.2662 21.794ZM43.6945 21.2977C43.6945 21.9513 44.0448 22.4798 44.7454 22.8833C45.4575 23.2867 46.5084 23.4885 47.8981 23.4885C49.6783 23.4885 51.0564 23.2827 52.0326 22.8711C53.0089 22.4677 53.497 21.9271 53.497 21.2493C53.497 20.862 53.319 20.5473 52.963 20.3052C52.6184 20.0712 52.1303 19.8977 51.4986 19.7848C50.8784 19.6799 50.241 19.5992 49.5863 19.5427C48.9317 19.4862 48.1909 19.4176 47.364 19.3369C46.5371 19.2562 45.8537 19.1594 45.3139 19.0464C44.843 19.3127 44.4526 19.6435 44.1424 20.039C43.8438 20.4424 43.6945 20.862 43.6945 21.2977ZM45.4172 8.18953C44.7856 8.64137 44.4698 9.31918 44.4698 10.2229C44.4698 11.1267 44.7856 11.8045 45.4172 12.2563C46.0604 12.7001 46.9333 12.922 48.0359 12.922C49.1384 12.922 49.9998 12.7001 50.62 12.2563C51.2517 11.8045 51.5675 11.1267 51.5675 10.2229C51.5675 9.31918 51.2517 8.64137 50.62 8.18953C49.9998 7.72961 49.1384 7.49963 48.0359 7.49963C46.9333 7.49963 46.0604 7.72961 45.4172 8.18953ZM59.7506 12.45C59.7506 10.1906 60.4455 8.51227 61.8351 7.4149C63.2248 6.30945 65.1428 5.75671 67.5892 5.75671C69.7943 5.75671 71.5113 6.18437 72.7402 7.03966C73.9692 7.88692 74.5836 9.12152 74.5836 10.7434C74.5836 11.2033 74.5491 11.6471 74.4803 12.0748C74.4228 12.5024 74.3597 12.8131 74.2907 13.0068L74.1874 13.2972H63.3857C63.5235 14.7174 63.9886 15.722 64.7811 16.311C65.5851 16.892 66.7565 17.1825 68.2955 17.1825C69.0306 17.1825 69.7427 17.122 70.4318 17.0009C71.1323 16.8799 71.6492 16.7629 71.9822 16.6499L72.4646 16.4684C73.1767 16.9122 73.5499 17.5053 73.5844 18.2476C73.527 18.2718 73.4466 18.3081 73.3432 18.3565C73.2398 18.405 72.9987 18.4897 72.6196 18.6107C72.2521 18.7317 71.8616 18.8366 71.4482 18.9254C71.0347 19.0142 70.4892 19.0949 69.8116 19.1675C69.134 19.2482 68.4391 19.2885 67.7271 19.2885C62.4094 19.2885 59.7506 17.009 59.7506 12.45ZM63.3857 11.5301H70.9486C71.0175 11.1428 71.052 10.7716 71.052 10.4166C71.052 9.60969 70.7821 8.9601 70.2422 8.4679C69.7024 7.96763 68.8181 7.71747 67.5892 7.71747C65.0395 7.71747 63.6383 8.98836 63.3857 11.5301ZM77.5296 15.1491C77.5296 13.8177 78.098 12.8373 79.235 12.2079C80.3721 11.5785 82.0604 11.2639 84.3 11.2639C85.7701 11.2639 87.1138 11.3122 88.3313 11.4091V10.4892C88.3313 9.6097 88.0499 8.948 87.4871 8.50424C86.9358 8.06044 86.0055 7.83853 84.6962 7.83853C83.9612 7.83853 83.1974 7.89099 82.4049 7.99589C81.624 8.10074 81.021 8.20565 80.5961 8.31055L79.9586 8.4679L79.9069 8.44371C79.8839 8.41952 79.8495 8.39934 79.8036 8.38318C79.7691 8.35899 79.7232 8.32671 79.6658 8.28636C79.6083 8.23792 79.5509 8.18953 79.4935 8.1411C79.4476 8.09271 79.3901 8.03218 79.3212 7.95955C79.2638 7.87889 79.2064 7.79818 79.1489 7.71747C79.1144 7.65292 79.08 7.58837 79.0456 7.52382C79.0226 7.45928 78.9996 7.39874 78.9766 7.34228C78.9652 7.28581 78.9537 7.22929 78.9422 7.17282C78.9307 7.10828 78.925 7.05582 78.925 7.01547C78.925 6.96708 78.925 6.92266 78.925 6.88236C78.925 6.842 78.925 6.80973 78.925 6.78553C78.9365 6.75326 78.9422 6.725 78.9422 6.70081V6.67657C79.0111 6.65237 79.1087 6.6201 79.235 6.57974C79.3729 6.53939 79.6543 6.46681 80.0792 6.3619C80.5156 6.24892 80.9579 6.1521 81.4057 6.07139C81.8652 5.99073 82.4336 5.9181 83.1113 5.85353C83.7889 5.78898 84.455 5.75671 85.1097 5.75671C87.5905 5.75671 89.3305 6.14402 90.3296 6.91865C91.3403 7.69328 91.8456 8.91171 91.8456 10.574V18.877C91.593 18.99 91.1394 19.0464 90.4847 19.0464C90.2206 19.0464 89.9679 19.0343 89.7267 19.0101C89.497 18.9779 89.3305 18.9496 89.2271 18.9254L89.0721 18.877L88.5379 17.2914C87.6192 18.6228 85.7701 19.2885 82.9907 19.2885C81.2909 19.2885 79.9529 18.9375 78.9766 18.2355C78.0119 17.5335 77.5296 16.5047 77.5296 15.1491ZM81.1645 15.1491C81.1645 16.6418 82.1867 17.3883 84.2311 17.3883C85.1269 17.3883 85.8907 17.2228 86.5224 16.892C87.154 16.5531 87.6134 16.1335 87.9005 15.6332C88.1877 15.1249 88.3313 14.5681 88.3313 13.9629V13.0915C86.7118 12.9947 85.5232 12.9462 84.7652 12.9462C83.5592 12.9462 82.6576 13.1238 82.0604 13.4788C81.4632 13.8258 81.1645 14.3825 81.1645 15.1491ZM96.859 18.877V6.18036C97.2033 6.06737 97.789 6.0109 98.616 6.0109C98.9491 6.0109 99.2596 6.02702 99.5468 6.05929C99.8452 6.08348 100.058 6.11174 100.184 6.14402L100.373 6.18036V7.31808C101.683 6.27718 103.463 5.75671 105.714 5.75671C107.448 5.75671 108.792 6.09965 109.745 6.78553C110.699 7.46329 111.175 8.37108 111.175 9.50881V18.877C110.785 18.99 110.199 19.0464 109.418 19.0464C109.062 19.0464 108.734 19.0343 108.436 19.0101C108.137 18.9779 107.931 18.9496 107.815 18.9254L107.643 18.877V9.94453C107.643 8.4921 106.552 7.7659 104.37 7.7659C103.589 7.7659 102.843 7.9071 102.131 8.18953C101.419 8.47192 100.832 8.85926 100.373 9.35145V18.877C99.9596 18.99 99.3739 19.0464 98.616 19.0464C98.2484 19.0464 97.9153 19.0343 97.6168 19.0101C97.3296 18.9779 97.1349 18.9496 97.0311 18.9254L96.859 18.877ZM121.615 2.29508C121.615 2.1095 121.638 1.92794 121.684 1.75042C121.741 1.56484 121.793 1.42363 121.839 1.3268L121.908 1.19366H138.808C138.992 1.50028 139.084 1.85935 139.084 2.27088C139.084 2.46453 139.061 2.65416 139.015 2.83974C138.969 3.02533 138.923 3.16251 138.877 3.25127L138.808 3.3844H132.244V18.877C131.819 18.99 131.217 19.0464 130.436 19.0464C130.057 19.0464 129.718 19.0343 129.419 19.0101C129.12 18.9779 128.914 18.9496 128.799 18.9254L128.644 18.877V3.3844H121.908C121.712 3.10199 121.615 2.73888 121.615 2.29508ZM138.274 15.1491C138.274 13.8177 138.843 12.8373 139.979 12.2079C141.117 11.5785 142.805 11.2639 145.045 11.2639C146.514 11.2639 147.859 11.3122 149.076 11.4091V10.4892C149.076 9.6097 148.794 8.948 148.232 8.50424C147.68 8.06044 146.75 7.83853 145.441 7.83853C144.706 7.83853 143.942 7.89099 143.15 7.99589C142.369 8.10074 141.765 8.20565 141.341 8.31055L140.703 8.4679L140.651 8.44371C140.629 8.41952 140.594 8.39934 140.548 8.38318C140.514 8.35899 140.468 8.32671 140.411 8.28636C140.353 8.23792 140.296 8.18953 140.238 8.1411C140.192 8.09271 140.135 8.03218 140.065 7.95955C140.008 7.87889 139.951 7.79818 139.893 7.71747C139.859 7.65292 139.825 7.58837 139.79 7.52382C139.767 7.45928 139.744 7.39874 139.721 7.34228C139.71 7.28581 139.699 7.22929 139.687 7.17282C139.675 7.10828 139.67 7.05582 139.67 7.01547C139.67 6.96708 139.67 6.92266 139.67 6.88236C139.67 6.842 139.67 6.80973 139.67 6.78553C139.681 6.75326 139.687 6.725 139.687 6.70081V6.67657C139.756 6.65237 139.853 6.6201 139.979 6.57974C140.118 6.53939 140.399 6.46681 140.824 6.3619C141.26 6.24892 141.703 6.1521 142.15 6.07139C142.61 5.99073 143.178 5.9181 143.855 5.85353C144.534 5.78898 145.2 5.75671 145.855 5.75671C148.335 5.75671 150.075 6.14402 151.074 6.91865C152.085 7.69328 152.59 8.91171 152.59 10.574V18.877C152.337 18.99 151.884 19.0464 151.229 19.0464C150.965 19.0464 150.712 19.0343 150.471 19.0101C150.242 18.9779 150.075 18.9496 149.971 18.9254L149.817 18.877L149.283 17.2914C148.364 18.6228 146.514 19.2885 143.736 19.2885C142.036 19.2885 140.698 18.9375 139.721 18.2355C138.757 17.5335 138.274 16.5047 138.274 15.1491ZM141.909 15.1491C141.909 16.6418 142.931 17.3883 144.975 17.3883C145.872 17.3883 146.635 17.2228 147.267 16.892C147.899 16.5531 148.358 16.1335 148.645 15.6332C148.933 15.1249 149.076 14.5681 149.076 13.9629V13.0915C147.456 12.9947 146.267 12.9462 145.51 12.9462C144.304 12.9462 143.402 13.1238 142.805 13.4788C142.208 13.8258 141.909 14.3825 141.909 15.1491ZM155.622 18.877L161.859 12.3774L156.001 6.18036C156.472 6.06737 157.121 6.0109 157.948 6.0109C158.327 6.0109 158.678 6.02702 158.999 6.05929C159.32 6.08348 159.55 6.11174 159.688 6.14402L159.895 6.18036L164.047 10.574L168.25 6.18036C168.652 6.06737 169.215 6.0109 169.938 6.0109C170.295 6.0109 170.628 6.02702 170.937 6.05929C171.248 6.08348 171.466 6.11174 171.592 6.14402L171.782 6.18036L165.924 12.2805L172.196 18.877C171.736 18.99 171.093 19.0464 170.266 19.0464C169.887 19.0464 169.537 19.0343 169.215 19.0101C168.893 18.9779 168.664 18.9496 168.525 18.9254L168.319 18.877L163.771 14.084L159.188 18.877C158.752 18.99 158.172 19.0464 157.448 19.0464C157.104 19.0464 156.777 19.0343 156.467 19.0101C156.168 18.9779 155.95 18.9496 155.812 18.9254L155.622 18.877ZM175.348 3.50544V1.16945C175.715 1.05648 176.324 1 177.174 1C177.53 1 177.858 1.01614 178.156 1.04841C178.466 1.07262 178.685 1.10086 178.811 1.13314L179 1.16945V3.50544C178.587 3.61841 177.978 3.67489 177.174 3.67489C176.795 3.67489 176.451 3.66279 176.14 3.63858C175.842 3.6063 175.635 3.57806 175.521 3.55386L175.348 3.50544ZM175.417 18.877V6.18036C175.761 6.06737 176.347 6.0109 177.174 6.0109C177.519 6.0109 177.834 6.02702 178.122 6.05929C178.42 6.08348 178.632 6.11174 178.759 6.14402L178.932 6.18036V18.877C178.541 18.99 177.955 19.0464 177.174 19.0464C176.806 19.0464 176.473 19.0343 176.175 19.0101C175.887 18.9779 175.693 18.9496 175.589 18.9254L175.417 18.877Z"/>
</mask>
<path d="M22.8835 12.45C22.8835 10.1906 23.5784 8.51227 24.9681 7.4149C26.3578 6.30945 28.2758 5.75671 30.7221 5.75671C32.9272 5.75671 34.6443 6.18437 35.8731 7.03966C37.1021 7.88692 37.7166 9.12152 37.7166 10.7434C37.7166 11.2033 37.682 11.6471 37.6132 12.0748C37.5557 12.5024 37.4926 12.8131 37.4236 13.0068L37.3203 13.2972H26.5186C26.6564 14.7174 27.1215 15.722 27.914 16.311C28.718 16.892 29.8894 17.1825 31.4284 17.1825C32.1635 17.1825 32.8756 17.122 33.5647 17.0009C34.2653 16.8799 34.7821 16.7629 35.1151 16.6499L35.5975 16.4684C36.3096 16.9122 36.6829 17.5053 36.7173 18.2476C36.6599 18.2718 36.5795 18.3081 36.4761 18.3565C36.3728 18.405 36.1316 18.4897 35.7525 18.6107C35.385 18.7317 34.9945 18.8366 34.5811 18.9254C34.1677 19.0142 33.6221 19.0949 32.9445 19.1675C32.2669 19.2482 31.572 19.2885 30.86 19.2885C25.5423 19.2885 22.8835 17.009 22.8835 12.45ZM26.5186 11.5301H34.0815C34.1504 11.1428 34.1849 10.7716 34.1849 10.4166C34.1849 9.60969 33.915 8.9601 33.3752 8.4679C32.8353 7.96763 31.951 7.71747 30.7221 7.71747C28.1724 7.71747 26.7712 8.98836 26.5186 11.5301ZM40.2662 21.794C40.2662 21.3501 40.3811 20.9306 40.6107 20.5352C40.8404 20.1398 41.1391 19.7969 41.5066 19.5064C41.8741 19.224 42.2072 18.998 42.5058 18.8286C42.8044 18.6591 43.1088 18.5098 43.4189 18.3807C42.902 18.0176 42.6436 17.5375 42.6436 16.9404C42.6436 16.0367 43.2064 15.1208 44.332 14.1929C42.1957 13.499 41.1276 12.1757 41.1276 10.2229C41.1276 8.8189 41.7191 7.72555 42.902 6.94284C44.0965 6.1521 45.8077 5.75671 48.0359 5.75671C49.6208 5.75671 50.9244 5.94631 51.9465 6.32556L56.8908 5.75671C57.0517 6.01492 57.132 6.33766 57.132 6.725C57.132 7.11229 57.0517 7.44316 56.8908 7.71747L53.9621 7.62065C54.6168 8.29037 54.9441 9.15781 54.9441 10.2229C54.9441 11.627 54.3527 12.7243 53.1697 13.5151C51.9867 14.2978 50.2754 14.6891 48.0359 14.6891C47.542 14.6891 47.0252 14.6609 46.4854 14.6044C46.026 15.0401 45.7962 15.4718 45.7962 15.8995C45.7962 15.9479 45.802 15.9964 45.8135 16.0447C45.8595 16.311 46.0547 16.5329 46.3992 16.7105C46.7438 16.8799 47.1802 16.9969 47.7085 17.0615C48.2368 17.126 48.8283 17.1946 49.483 17.2672C50.1376 17.3398 50.8038 17.4044 51.4814 17.4609C52.159 17.5174 52.8194 17.6303 53.4626 17.7998C54.1057 17.9612 54.68 18.1629 55.1853 18.405C55.6907 18.639 56.0926 18.9779 56.3913 19.4216C56.7014 19.8654 56.8564 20.394 56.8564 21.0072C56.8564 22.2499 56.0467 23.2666 54.4273 24.0573C52.8079 24.8481 50.597 25.2435 47.7947 25.2435C45.2565 25.2435 43.3672 24.9288 42.1268 24.2994C40.8864 23.6781 40.2662 22.8429 40.2662 21.794ZM43.6945 21.2977C43.6945 21.9513 44.0448 22.4798 44.7454 22.8833C45.4575 23.2867 46.5084 23.4885 47.8981 23.4885C49.6783 23.4885 51.0564 23.2827 52.0326 22.8711C53.0089 22.4677 53.497 21.9271 53.497 21.2493C53.497 20.862 53.319 20.5473 52.963 20.3052C52.6184 20.0712 52.1303 19.8977 51.4986 19.7848C50.8784 19.6799 50.241 19.5992 49.5863 19.5427C48.9317 19.4862 48.1909 19.4176 47.364 19.3369C46.5371 19.2562 45.8537 19.1594 45.3139 19.0464C44.843 19.3127 44.4526 19.6435 44.1424 20.039C43.8438 20.4424 43.6945 20.862 43.6945 21.2977ZM45.4172 8.18953C44.7856 8.64137 44.4698 9.31918 44.4698 10.2229C44.4698 11.1267 44.7856 11.8045 45.4172 12.2563C46.0604 12.7001 46.9333 12.922 48.0359 12.922C49.1384 12.922 49.9998 12.7001 50.62 12.2563C51.2517 11.8045 51.5675 11.1267 51.5675 10.2229C51.5675 9.31918 51.2517 8.64137 50.62 8.18953C49.9998 7.72961 49.1384 7.49963 48.0359 7.49963C46.9333 7.49963 46.0604 7.72961 45.4172 8.18953ZM59.7506 12.45C59.7506 10.1906 60.4455 8.51227 61.8351 7.4149C63.2248 6.30945 65.1428 5.75671 67.5892 5.75671C69.7943 5.75671 71.5113 6.18437 72.7402 7.03966C73.9692 7.88692 74.5836 9.12152 74.5836 10.7434C74.5836 11.2033 74.5491 11.6471 74.4803 12.0748C74.4228 12.5024 74.3597 12.8131 74.2907 13.0068L74.1874 13.2972H63.3857C63.5235 14.7174 63.9886 15.722 64.7811 16.311C65.5851 16.892 66.7565 17.1825 68.2955 17.1825C69.0306 17.1825 69.7427 17.122 70.4318 17.0009C71.1323 16.8799 71.6492 16.7629 71.9822 16.6499L72.4646 16.4684C73.1767 16.9122 73.5499 17.5053 73.5844 18.2476C73.527 18.2718 73.4466 18.3081 73.3432 18.3565C73.2398 18.405 72.9987 18.4897 72.6196 18.6107C72.2521 18.7317 71.8616 18.8366 71.4482 18.9254C71.0347 19.0142 70.4892 19.0949 69.8116 19.1675C69.134 19.2482 68.4391 19.2885 67.7271 19.2885C62.4094 19.2885 59.7506 17.009 59.7506 12.45ZM63.3857 11.5301H70.9486C71.0175 11.1428 71.052 10.7716 71.052 10.4166C71.052 9.60969 70.7821 8.9601 70.2422 8.4679C69.7024 7.96763 68.8181 7.71747 67.5892 7.71747C65.0395 7.71747 63.6383 8.98836 63.3857 11.5301ZM77.5296 15.1491C77.5296 13.8177 78.098 12.8373 79.235 12.2079C80.3721 11.5785 82.0604 11.2639 84.3 11.2639C85.7701 11.2639 87.1138 11.3122 88.3313 11.4091V10.4892C88.3313 9.6097 88.0499 8.948 87.4871 8.50424C86.9358 8.06044 86.0055 7.83853 84.6962 7.83853C83.9612 7.83853 83.1974 7.89099 82.4049 7.99589C81.624 8.10074 81.021 8.20565 80.5961 8.31055L79.9586 8.4679L79.9069 8.44371C79.8839 8.41952 79.8495 8.39934 79.8036 8.38318C79.7691 8.35899 79.7232 8.32671 79.6658 8.28636C79.6083 8.23792 79.5509 8.18953 79.4935 8.1411C79.4476 8.09271 79.3901 8.03218 79.3212 7.95955C79.2638 7.87889 79.2064 7.79818 79.1489 7.71747C79.1144 7.65292 79.08 7.58837 79.0456 7.52382C79.0226 7.45928 78.9996 7.39874 78.9766 7.34228C78.9652 7.28581 78.9537 7.22929 78.9422 7.17282C78.9307 7.10828 78.925 7.05582 78.925 7.01547C78.925 6.96708 78.925 6.92266 78.925 6.88236C78.925 6.842 78.925 6.80973 78.925 6.78553C78.9365 6.75326 78.9422 6.725 78.9422 6.70081V6.67657C79.0111 6.65237 79.1087 6.6201 79.235 6.57974C79.3729 6.53939 79.6543 6.46681 80.0792 6.3619C80.5156 6.24892 80.9579 6.1521 81.4057 6.07139C81.8652 5.99073 82.4336 5.9181 83.1113 5.85353C83.7889 5.78898 84.455 5.75671 85.1097 5.75671C87.5905 5.75671 89.3305 6.14402 90.3296 6.91865C91.3403 7.69328 91.8456 8.91171 91.8456 10.574V18.877C91.593 18.99 91.1394 19.0464 90.4847 19.0464C90.2206 19.0464 89.9679 19.0343 89.7267 19.0101C89.497 18.9779 89.3305 18.9496 89.2271 18.9254L89.0721 18.877L88.5379 17.2914C87.6192 18.6228 85.7701 19.2885 82.9907 19.2885C81.2909 19.2885 79.9529 18.9375 78.9766 18.2355C78.0119 17.5335 77.5296 16.5047 77.5296 15.1491ZM81.1645 15.1491C81.1645 16.6418 82.1867 17.3883 84.2311 17.3883C85.1269 17.3883 85.8907 17.2228 86.5224 16.892C87.154 16.5531 87.6134 16.1335 87.9005 15.6332C88.1877 15.1249 88.3313 14.5681 88.3313 13.9629V13.0915C86.7118 12.9947 85.5232 12.9462 84.7652 12.9462C83.5592 12.9462 82.6576 13.1238 82.0604 13.4788C81.4632 13.8258 81.1645 14.3825 81.1645 15.1491ZM96.859 18.877V6.18036C97.2033 6.06737 97.789 6.0109 98.616 6.0109C98.9491 6.0109 99.2596 6.02702 99.5468 6.05929C99.8452 6.08348 100.058 6.11174 100.184 6.14402L100.373 6.18036V7.31808C101.683 6.27718 103.463 5.75671 105.714 5.75671C107.448 5.75671 108.792 6.09965 109.745 6.78553C110.699 7.46329 111.175 8.37108 111.175 9.50881V18.877C110.785 18.99 110.199 19.0464 109.418 19.0464C109.062 19.0464 108.734 19.0343 108.436 19.0101C108.137 18.9779 107.931 18.9496 107.815 18.9254L107.643 18.877V9.94453C107.643 8.4921 106.552 7.7659 104.37 7.7659C103.589 7.7659 102.843 7.9071 102.131 8.18953C101.419 8.47192 100.832 8.85926 100.373 9.35145V18.877C99.9596 18.99 99.3739 19.0464 98.616 19.0464C98.2484 19.0464 97.9153 19.0343 97.6168 19.0101C97.3296 18.9779 97.1349 18.9496 97.0311 18.9254L96.859 18.877ZM121.615 2.29508C121.615 2.1095 121.638 1.92794 121.684 1.75042C121.741 1.56484 121.793 1.42363 121.839 1.3268L121.908 1.19366H138.808C138.992 1.50028 139.084 1.85935 139.084 2.27088C139.084 2.46453 139.061 2.65416 139.015 2.83974C138.969 3.02533 138.923 3.16251 138.877 3.25127L138.808 3.3844H132.244V18.877C131.819 18.99 131.217 19.0464 130.436 19.0464C130.057 19.0464 129.718 19.0343 129.419 19.0101C129.12 18.9779 128.914 18.9496 128.799 18.9254L128.644 18.877V3.3844H121.908C121.712 3.10199 121.615 2.73888 121.615 2.29508ZM138.274 15.1491C138.274 13.8177 138.843 12.8373 139.979 12.2079C141.117 11.5785 142.805 11.2639 145.045 11.2639C146.514 11.2639 147.859 11.3122 149.076 11.4091V10.4892C149.076 9.6097 148.794 8.948 148.232 8.50424C147.68 8.06044 146.75 7.83853 145.441 7.83853C144.706 7.83853 143.942 7.89099 143.15 7.99589C142.369 8.10074 141.765 8.20565 141.341 8.31055L140.703 8.4679L140.651 8.44371C140.629 8.41952 140.594 8.39934 140.548 8.38318C140.514 8.35899 140.468 8.32671 140.411 8.28636C140.353 8.23792 140.296 8.18953 140.238 8.1411C140.192 8.09271 140.135 8.03218 140.065 7.95955C140.008 7.87889 139.951 7.79818 139.893 7.71747C139.859 7.65292 139.825 7.58837 139.79 7.52382C139.767 7.45928 139.744 7.39874 139.721 7.34228C139.71 7.28581 139.699 7.22929 139.687 7.17282C139.675 7.10828 139.67 7.05582 139.67 7.01547C139.67 6.96708 139.67 6.92266 139.67 6.88236C139.67 6.842 139.67 6.80973 139.67 6.78553C139.681 6.75326 139.687 6.725 139.687 6.70081V6.67657C139.756 6.65237 139.853 6.6201 139.979 6.57974C140.118 6.53939 140.399 6.46681 140.824 6.3619C141.26 6.24892 141.703 6.1521 142.15 6.07139C142.61 5.99073 143.178 5.9181 143.855 5.85353C144.534 5.78898 145.2 5.75671 145.855 5.75671C148.335 5.75671 150.075 6.14402 151.074 6.91865C152.085 7.69328 152.59 8.91171 152.59 10.574V18.877C152.337 18.99 151.884 19.0464 151.229 19.0464C150.965 19.0464 150.712 19.0343 150.471 19.0101C150.242 18.9779 150.075 18.9496 149.971 18.9254L149.817 18.877L149.283 17.2914C148.364 18.6228 146.514 19.2885 143.736 19.2885C142.036 19.2885 140.698 18.9375 139.721 18.2355C138.757 17.5335 138.274 16.5047 138.274 15.1491ZM141.909 15.1491C141.909 16.6418 142.931 17.3883 144.975 17.3883C145.872 17.3883 146.635 17.2228 147.267 16.892C147.899 16.5531 148.358 16.1335 148.645 15.6332C148.933 15.1249 149.076 14.5681 149.076 13.9629V13.0915C147.456 12.9947 146.267 12.9462 145.51 12.9462C144.304 12.9462 143.402 13.1238 142.805 13.4788C142.208 13.8258 141.909 14.3825 141.909 15.1491ZM155.622 18.877L161.859 12.3774L156.001 6.18036C156.472 6.06737 157.121 6.0109 157.948 6.0109C158.327 6.0109 158.678 6.02702 158.999 6.05929C159.32 6.08348 159.55 6.11174 159.688 6.14402L159.895 6.18036L164.047 10.574L168.25 6.18036C168.652 6.06737 169.215 6.0109 169.938 6.0109C170.295 6.0109 170.628 6.02702 170.937 6.05929C171.248 6.08348 171.466 6.11174 171.592 6.14402L171.782 6.18036L165.924 12.2805L172.196 18.877C171.736 18.99 171.093 19.0464 170.266 19.0464C169.887 19.0464 169.537 19.0343 169.215 19.0101C168.893 18.9779 168.664 18.9496 168.525 18.9254L168.319 18.877L163.771 14.084L159.188 18.877C158.752 18.99 158.172 19.0464 157.448 19.0464C157.104 19.0464 156.777 19.0343 156.467 19.0101C156.168 18.9779 155.95 18.9496 155.812 18.9254L155.622 18.877ZM175.348 3.50544V1.16945C175.715 1.05648 176.324 1 177.174 1C177.53 1 177.858 1.01614 178.156 1.04841C178.466 1.07262 178.685 1.10086 178.811 1.13314L179 1.16945V3.50544C178.587 3.61841 177.978 3.67489 177.174 3.67489C176.795 3.67489 176.451 3.66279 176.14 3.63858C175.842 3.6063 175.635 3.57806 175.521 3.55386L175.348 3.50544ZM175.417 18.877V6.18036C175.761 6.06737 176.347 6.0109 177.174 6.0109C177.519 6.0109 177.834 6.02702 178.122 6.05929C178.42 6.08348 178.632 6.11174 178.759 6.14402L178.932 6.18036V18.877C178.541 18.99 177.955 19.0464 177.174 19.0464C176.806 19.0464 176.473 19.0343 176.175 19.0101C175.887 18.9779 175.693 18.9496 175.589 18.9254L175.417 18.877Z" fill="black"/>
<path d="M22.8835 12.45C22.8835 10.1906 23.5784 8.51227 24.9681 7.4149C26.3578 6.30945 28.2758 5.75671 30.7221 5.75671C32.9272 5.75671 34.6443 6.18437 35.8731 7.03966C37.1021 7.88692 37.7166 9.12152 37.7166 10.7434C37.7166 11.2033 37.682 11.6471 37.6132 12.0748C37.5557 12.5024 37.4926 12.8131 37.4236 13.0068L37.3203 13.2972H26.5186C26.6564 14.7174 27.1215 15.722 27.914 16.311C28.718 16.892 29.8894 17.1825 31.4284 17.1825C32.1635 17.1825 32.8756 17.122 33.5647 17.0009C34.2653 16.8799 34.7821 16.7629 35.1151 16.6499L35.5975 16.4684C36.3096 16.9122 36.6829 17.5053 36.7173 18.2476C36.6599 18.2718 36.5795 18.3081 36.4761 18.3565C36.3728 18.405 36.1316 18.4897 35.7525 18.6107C35.385 18.7317 34.9945 18.8366 34.5811 18.9254C34.1677 19.0142 33.6221 19.0949 32.9445 19.1675C32.2669 19.2482 31.572 19.2885 30.86 19.2885C25.5423 19.2885 22.8835 17.009 22.8835 12.45ZM26.5186 11.5301H34.0815C34.1504 11.1428 34.1849 10.7716 34.1849 10.4166C34.1849 9.60969 33.915 8.9601 33.3752 8.4679C32.8353 7.96763 31.951 7.71747 30.7221 7.71747C28.1724 7.71747 26.7712 8.98836 26.5186 11.5301ZM40.2662 21.794C40.2662 21.3501 40.3811 20.9306 40.6107 20.5352C40.8404 20.1398 41.1391 19.7969 41.5066 19.5064C41.8741 19.224 42.2072 18.998 42.5058 18.8286C42.8044 18.6591 43.1088 18.5098 43.4189 18.3807C42.902 18.0176 42.6436 17.5375 42.6436 16.9404C42.6436 16.0367 43.2064 15.1208 44.332 14.1929C42.1957 13.499 41.1276 12.1757 41.1276 10.2229C41.1276 8.8189 41.7191 7.72555 42.902 6.94284C44.0965 6.1521 45.8077 5.75671 48.0359 5.75671C49.6208 5.75671 50.9244 5.94631 51.9465 6.32556L56.8908 5.75671C57.0517 6.01492 57.132 6.33766 57.132 6.725C57.132 7.11229 57.0517 7.44316 56.8908 7.71747L53.9621 7.62065C54.6168 8.29037 54.9441 9.15781 54.9441 10.2229C54.9441 11.627 54.3527 12.7243 53.1697 13.5151C51.9867 14.2978 50.2754 14.6891 48.0359 14.6891C47.542 14.6891 47.0252 14.6609 46.4854 14.6044C46.026 15.0401 45.7962 15.4718 45.7962 15.8995C45.7962 15.9479 45.802 15.9964 45.8135 16.0447C45.8595 16.311 46.0547 16.5329 46.3992 16.7105C46.7438 16.8799 47.1802 16.9969 47.7085 17.0615C48.2368 17.126 48.8283 17.1946 49.483 17.2672C50.1376 17.3398 50.8038 17.4044 51.4814 17.4609C52.159 17.5174 52.8194 17.6303 53.4626 17.7998C54.1057 17.9612 54.68 18.1629 55.1853 18.405C55.6907 18.639 56.0926 18.9779 56.3913 19.4216C56.7014 19.8654 56.8564 20.394 56.8564 21.0072C56.8564 22.2499 56.0467 23.2666 54.4273 24.0573C52.8079 24.8481 50.597 25.2435 47.7947 25.2435C45.2565 25.2435 43.3672 24.9288 42.1268 24.2994C40.8864 23.6781 40.2662 22.8429 40.2662 21.794ZM43.6945 21.2977C43.6945 21.9513 44.0448 22.4798 44.7454 22.8833C45.4575 23.2867 46.5084 23.4885 47.8981 23.4885C49.6783 23.4885 51.0564 23.2827 52.0326 22.8711C53.0089 22.4677 53.497 21.9271 53.497 21.2493C53.497 20.862 53.319 20.5473 52.963 20.3052C52.6184 20.0712 52.1303 19.8977 51.4986 19.7848C50.8784 19.6799 50.241 19.5992 49.5863 19.5427C48.9317 19.4862 48.1909 19.4176 47.364 19.3369C46.5371 19.2562 45.8537 19.1594 45.3139 19.0464C44.843 19.3127 44.4526 19.6435 44.1424 20.039C43.8438 20.4424 43.6945 20.862 43.6945 21.2977ZM45.4172 8.18953C44.7856 8.64137 44.4698 9.31918 44.4698 10.2229C44.4698 11.1267 44.7856 11.8045 45.4172 12.2563C46.0604 12.7001 46.9333 12.922 48.0359 12.922C49.1384 12.922 49.9998 12.7001 50.62 12.2563C51.2517 11.8045 51.5675 11.1267 51.5675 10.2229C51.5675 9.31918 51.2517 8.64137 50.62 8.18953C49.9998 7.72961 49.1384 7.49963 48.0359 7.49963C46.9333 7.49963 46.0604 7.72961 45.4172 8.18953ZM59.7506 12.45C59.7506 10.1906 60.4455 8.51227 61.8351 7.4149C63.2248 6.30945 65.1428 5.75671 67.5892 5.75671C69.7943 5.75671 71.5113 6.18437 72.7402 7.03966C73.9692 7.88692 74.5836 9.12152 74.5836 10.7434C74.5836 11.2033 74.5491 11.6471 74.4803 12.0748C74.4228 12.5024 74.3597 12.8131 74.2907 13.0068L74.1874 13.2972H63.3857C63.5235 14.7174 63.9886 15.722 64.7811 16.311C65.5851 16.892 66.7565 17.1825 68.2955 17.1825C69.0306 17.1825 69.7427 17.122 70.4318 17.0009C71.1323 16.8799 71.6492 16.7629 71.9822 16.6499L72.4646 16.4684C73.1767 16.9122 73.5499 17.5053 73.5844 18.2476C73.527 18.2718 73.4466 18.3081 73.3432 18.3565C73.2398 18.405 72.9987 18.4897 72.6196 18.6107C72.2521 18.7317 71.8616 18.8366 71.4482 18.9254C71.0347 19.0142 70.4892 19.0949 69.8116 19.1675C69.134 19.2482 68.4391 19.2885 67.7271 19.2885C62.4094 19.2885 59.7506 17.009 59.7506 12.45ZM63.3857 11.5301H70.9486C71.0175 11.1428 71.052 10.7716 71.052 10.4166C71.052 9.60969 70.7821 8.9601 70.2422 8.4679C69.7024 7.96763 68.8181 7.71747 67.5892 7.71747C65.0395 7.71747 63.6383 8.98836 63.3857 11.5301ZM77.5296 15.1491C77.5296 13.8177 78.098 12.8373 79.235 12.2079C80.3721 11.5785 82.0604 11.2639 84.3 11.2639C85.7701 11.2639 87.1138 11.3122 88.3313 11.4091V10.4892C88.3313 9.6097 88.0499 8.948 87.4871 8.50424C86.9358 8.06044 86.0055 7.83853 84.6962 7.83853C83.9612 7.83853 83.1974 7.89099 82.4049 7.99589C81.624 8.10074 81.021 8.20565 80.5961 8.31055L79.9586 8.4679L79.9069 8.44371C79.8839 8.41952 79.8495 8.39934 79.8036 8.38318C79.7691 8.35899 79.7232 8.32671 79.6658 8.28636C79.6083 8.23792 79.5509 8.18953 79.4935 8.1411C79.4476 8.09271 79.3901 8.03218 79.3212 7.95955C79.2638 7.87889 79.2064 7.79818 79.1489 7.71747C79.1144 7.65292 79.08 7.58837 79.0456 7.52382C79.0226 7.45928 78.9996 7.39874 78.9766 7.34228C78.9652 7.28581 78.9537 7.22929 78.9422 7.17282C78.9307 7.10828 78.925 7.05582 78.925 7.01547C78.925 6.96708 78.925 6.92266 78.925 6.88236C78.925 6.842 78.925 6.80973 78.925 6.78553C78.9365 6.75326 78.9422 6.725 78.9422 6.70081V6.67657C79.0111 6.65237 79.1087 6.6201 79.235 6.57974C79.3729 6.53939 79.6543 6.46681 80.0792 6.3619C80.5156 6.24892 80.9579 6.1521 81.4057 6.07139C81.8652 5.99073 82.4336 5.9181 83.1113 5.85353C83.7889 5.78898 84.455 5.75671 85.1097 5.75671C87.5905 5.75671 89.3305 6.14402 90.3296 6.91865C91.3403 7.69328 91.8456 8.91171 91.8456 10.574V18.877C91.593 18.99 91.1394 19.0464 90.4847 19.0464C90.2206 19.0464 89.9679 19.0343 89.7267 19.0101C89.497 18.9779 89.3305 18.9496 89.2271 18.9254L89.0721 18.877L88.5379 17.2914C87.6192 18.6228 85.7701 19.2885 82.9907 19.2885C81.2909 19.2885 79.9529 18.9375 78.9766 18.2355C78.0119 17.5335 77.5296 16.5047 77.5296 15.1491ZM81.1645 15.1491C81.1645 16.6418 82.1867 17.3883 84.2311 17.3883C85.1269 17.3883 85.8907 17.2228 86.5224 16.892C87.154 16.5531 87.6134 16.1335 87.9005 15.6332C88.1877 15.1249 88.3313 14.5681 88.3313 13.9629V13.0915C86.7118 12.9947 85.5232 12.9462 84.7652 12.9462C83.5592 12.9462 82.6576 13.1238 82.0604 13.4788C81.4632 13.8258 81.1645 14.3825 81.1645 15.1491ZM96.859 18.877V6.18036C97.2033 6.06737 97.789 6.0109 98.616 6.0109C98.9491 6.0109 99.2596 6.02702 99.5468 6.05929C99.8452 6.08348 100.058 6.11174 100.184 6.14402L100.373 6.18036V7.31808C101.683 6.27718 103.463 5.75671 105.714 5.75671C107.448 5.75671 108.792 6.09965 109.745 6.78553C110.699 7.46329 111.175 8.37108 111.175 9.50881V18.877C110.785 18.99 110.199 19.0464 109.418 19.0464C109.062 19.0464 108.734 19.0343 108.436 19.0101C108.137 18.9779 107.931 18.9496 107.815 18.9254L107.643 18.877V9.94453C107.643 8.4921 106.552 7.7659 104.37 7.7659C103.589 7.7659 102.843 7.9071 102.131 8.18953C101.419 8.47192 100.832 8.85926 100.373 9.35145V18.877C99.9596 18.99 99.3739 19.0464 98.616 19.0464C98.2484 19.0464 97.9153 19.0343 97.6168 19.0101C97.3296 18.9779 97.1349 18.9496 97.0311 18.9254L96.859 18.877ZM121.615 2.29508C121.615 2.1095 121.638 1.92794 121.684 1.75042C121.741 1.56484 121.793 1.42363 121.839 1.3268L121.908 1.19366H138.808C138.992 1.50028 139.084 1.85935 139.084 2.27088C139.084 2.46453 139.061 2.65416 139.015 2.83974C138.969 3.02533 138.923 3.16251 138.877 3.25127L138.808 3.3844H132.244V18.877C131.819 18.99 131.217 19.0464 130.436 19.0464C130.057 19.0464 129.718 19.0343 129.419 19.0101C129.12 18.9779 128.914 18.9496 128.799 18.9254L128.644 18.877V3.3844H121.908C121.712 3.10199 121.615 2.73888 121.615 2.29508ZM138.274 15.1491C138.274 13.8177 138.843 12.8373 139.979 12.2079C141.117 11.5785 142.805 11.2639 145.045 11.2639C146.514 11.2639 147.859 11.3122 149.076 11.4091V10.4892C149.076 9.6097 148.794 8.948 148.232 8.50424C147.68 8.06044 146.75 7.83853 145.441 7.83853C144.706 7.83853 143.942 7.89099 143.15 7.99589C142.369 8.10074 141.765 8.20565 141.341 8.31055L140.703 8.4679L140.651 8.44371C140.629 8.41952 140.594 8.39934 140.548 8.38318C140.514 8.35899 140.468 8.32671 140.411 8.28636C140.353 8.23792 140.296 8.18953 140.238 8.1411C140.192 8.09271 140.135 8.03218 140.065 7.95955C140.008 7.87889 139.951 7.79818 139.893 7.71747C139.859 7.65292 139.825 7.58837 139.79 7.52382C139.767 7.45928 139.744 7.39874 139.721 7.34228C139.71 7.28581 139.699 7.22929 139.687 7.17282C139.675 7.10828 139.67 7.05582 139.67 7.01547C139.67 6.96708 139.67 6.92266 139.67 6.88236C139.67 6.842 139.67 6.80973 139.67 6.78553C139.681 6.75326 139.687 6.725 139.687 6.70081V6.67657C139.756 6.65237 139.853 6.6201 139.979 6.57974C140.118 6.53939 140.399 6.46681 140.824 6.3619C141.26 6.24892 141.703 6.1521 142.15 6.07139C142.61 5.99073 143.178 5.9181 143.855 5.85353C144.534 5.78898 145.2 5.75671 145.855 5.75671C148.335 5.75671 150.075 6.14402 151.074 6.91865C152.085 7.69328 152.59 8.91171 152.59 10.574V18.877C152.337 18.99 151.884 19.0464 151.229 19.0464C150.965 19.0464 150.712 19.0343 150.471 19.0101C150.242 18.9779 150.075 18.9496 149.971 18.9254L149.817 18.877L149.283 17.2914C148.364 18.6228 146.514 19.2885 143.736 19.2885C142.036 19.2885 140.698 18.9375 139.721 18.2355C138.757 17.5335 138.274 16.5047 138.274 15.1491ZM141.909 15.1491C141.909 16.6418 142.931 17.3883 144.975 17.3883C145.872 17.3883 146.635 17.2228 147.267 16.892C147.899 16.5531 148.358 16.1335 148.645 15.6332C148.933 15.1249 149.076 14.5681 149.076 13.9629V13.0915C147.456 12.9947 146.267 12.9462 145.51 12.9462C144.304 12.9462 143.402 13.1238 142.805 13.4788C142.208 13.8258 141.909 14.3825 141.909 15.1491ZM155.622 18.877L161.859 12.3774L156.001 6.18036C156.472 6.06737 157.121 6.0109 157.948 6.0109C158.327 6.0109 158.678 6.02702 158.999 6.05929C159.32 6.08348 159.55 6.11174 159.688 6.14402L159.895 6.18036L164.047 10.574L168.25 6.18036C168.652 6.06737 169.215 6.0109 169.938 6.0109C170.295 6.0109 170.628 6.02702 170.937 6.05929C171.248 6.08348 171.466 6.11174 171.592 6.14402L171.782 6.18036L165.924 12.2805L172.196 18.877C171.736 18.99 171.093 19.0464 170.266 19.0464C169.887 19.0464 169.537 19.0343 169.215 19.0101C168.893 18.9779 168.664 18.9496 168.525 18.9254L168.319 18.877L163.771 14.084L159.188 18.877C158.752 18.99 158.172 19.0464 157.448 19.0464C157.104 19.0464 156.777 19.0343 156.467 19.0101C156.168 18.9779 155.95 18.9496 155.812 18.9254L155.622 18.877ZM175.348 3.50544V1.16945C175.715 1.05648 176.324 1 177.174 1C177.53 1 177.858 1.01614 178.156 1.04841C178.466 1.07262 178.685 1.10086 178.811 1.13314L179 1.16945V3.50544C178.587 3.61841 177.978 3.67489 177.174 3.67489C176.795 3.67489 176.451 3.66279 176.14 3.63858C175.842 3.6063 175.635 3.57806 175.521 3.55386L175.348 3.50544ZM175.417 18.877V6.18036C175.761 6.06737 176.347 6.0109 177.174 6.0109C177.519 6.0109 177.834 6.02702 178.122 6.05929C178.42 6.08348 178.632 6.11174 178.759 6.14402L178.932 6.18036V18.877C178.541 18.99 177.955 19.0464 177.174 19.0464C176.806 19.0464 176.473 19.0343 176.175 19.0101C175.887 18.9779 175.693 18.9496 175.589 18.9254L175.417 18.877Z" stroke="black" stroke-width="0.6" mask="url(#path-1-outside-1_2109_2432)"/>
<path d="M11.3262 0.935466L11.1908 0.651346L11.0554 0.935466L0.864592 22.3183L0.672445 22.7215L1.069 22.5161L11.1908 17.2721L21.3127 22.5161L21.7092 22.7215L21.5171 22.3183L11.3262 0.935466Z" fill="black" stroke="black" stroke-width="0.3"/>
</svg>
