<svg width="262" height="214" viewBox="0 0 262 214" fill="none" xmlns="http://www.w3.org/2000/svg">
<g filter="url(#filter0_dd_35_5379)">
<g filter="url(#filter1_d_35_5379)">
<mask id="path-1-inside-1_35_5379" fill="white">
<path d="M47.1555 170.387L48.1222 168.444L49.516 166.83L50.6401 166.353L53.0456 166.863L54.6755 167.447L55.1813 168.508L55.3387 169.974L54.2933 171.184L53.5571 171.625L53.6751 172.723L54.1809 173.785L56.9742 174.258L58.7615 176.307L58.9583 178.139L59.9306 179.896L61.7179 181.945L62.96 182.567L63.5445 184.361L64.0897 185.789L66.0287 185.603L67.1528 185.126L68.4342 186.113C68.9906 186.43 70.1114 187.137 70.1428 187.43C70.1743 187.723 71.2425 187.941 71.7727 188.014L72.9755 188.269L72.6607 185.339L72.8125 183.104L72.228 181.309L72.4584 179.807L72.3404 178.708L72.183 177.243L72.4921 176.473L73.6162 175.995L75.1674 175.847L76.4095 176.468L77.6909 177.455L78.1574 178.151L79.1298 179.908L81.0295 179.356L81.687 178.183L82.8898 178.438L85.2953 178.948L86.5768 179.935L88.364 181.985L88.9879 184.145L89.5331 185.573L90.4661 186.964L89.342 187.442L88.1786 187.553L87.8695 188.323L88.454 190.118L88.9598 191.179L89.4657 192.241L90.3987 193.632L90.9045 194.694L91.7981 195.719L91.9162 196.817L93.0796 196.706L93.2707 194.837L92.2983 193.08L90.9776 191.726L91.208 190.224L91.9049 189.417L94.5802 188.791L95.901 190.145L96.8733 191.902L98.1154 192.523L98.8123 191.716L98.1098 188.823L97.9524 187.358L98.61 186.184L100.004 184.571L103.028 183.541L105.472 184.417L106.754 185.405L107.726 187.162L109.823 188.442L111.025 188.696L114.246 189.498L115.64 187.885L118.703 187.221L120.912 185.899L121.957 184.689L121.839 183.59L121.254 181.796L121.564 181.026L123.115 180.877L122.918 179.046C122.887 178.753 121.766 178.046 121.209 177.729L119.034 175.717L119.265 174.215L121.086 172.93L122.676 173.148L124.655 173.329L125.588 174.719L128.46 175.925L130.477 176.472L133.501 175.442L134.198 174.635L134.816 173.096L134.192 170.935L134.732 168.663L133.76 166.906L133.602 165.44C133.848 165.293 134.416 164.992 134.726 164.963C135.114 164.925 135.929 165.218 136.317 165.18C136.627 165.151 137.428 164.581 137.79 164.299L139.689 163.747L139.492 161.916L140.071 160.01L141.505 158.762L143.404 158.21L145.495 155.79L148.249 155.896L150.655 156.406L153.06 156.916L155.235 158.928L155.82 160.722L157.14 162.076L158.422 163.064L160.209 165.113L160.754 166.541L162.463 167.858L163.435 169.615L164.25 169.907L165.88 170.491L166.538 169.318L168.747 167.996L169.056 167.227L169.286 165.724L168.859 165.395L168.662 163.564L168.623 163.197L168.387 160.999L168.342 156.933L167.679 154.406L167.521 152.941L167.752 151.438L169.145 149.824L170.579 148.577L170.225 145.28L171.231 143.704L171.5 142.568L169.752 140.885L169.983 139.382L168.623 137.662L168.853 136.16L169.084 134.657L170.905 133.373L173.113 132.051L174.625 131.536L176.255 132.12L177.576 133.474L179.712 135.12L181.033 136.474L183.359 136.251L184.292 137.642L185.107 137.934L186.698 138.152L187.783 137.308L188.907 136.83L189.8 137.855L191.391 138.072L192.554 137.961L193.987 136.714L193.054 135.323L191.694 133.603L191.149 132.174L190.565 130.38L191.571 128.803L192.695 128.326L195.1 128.835L196.073 130.593L196.309 132.791L197.899 133.008L198.169 131.872L199.136 129.929L201.114 130.11L201.654 127.838L199.945 126.521L198.394 126.67L196.106 127.259L194.707 125.172L193.465 124.551L192.723 121.292L192.644 120.559L192.987 116.455L194.729 114.438L197.444 114.178L200.119 113.552L199.844 110.988L201.474 111.572L205.082 112.337L208.145 111.673L209.814 112.624L213.147 110.824L214.153 109.247L214.423 108.111L216.323 107.559L217.565 108.181L219.273 109.497L221.212 109.312L222.1 106.636L223.809 107.953L226.136 107.73L228.075 107.544L230.402 107.322L231.447 106.111L232.689 106.732L235.443 106.839L235.089 103.542L238.074 102.146L239.046 103.903L239.979 105.294L241.221 105.916L242.384 105.804L244.284 105.252L245.526 105.873L245.757 104.371L246.454 103.564L248.005 103.416L248.662 102.242L249.668 100.666L249.741 97.6982L248.421 96.3443L246.83 96.1266L244.852 95.9459L244.616 93.7481L245.273 92.5749L246.161 89.8993L246.779 88.3598L247.785 86.7832L248.792 85.2065L247.667 85.6842L247.431 83.4864L247.701 82.3503L249.213 81.8355L249.016 80.004L249.129 77.4027L250.017 74.7271L249.511 73.6653L247.999 74.1802L247.842 72.7149L249.314 71.8338L249.235 71.1012L247.915 69.7473L246.942 67.99L247.094 65.7551L247.364 64.619L247.555 62.7503L247.825 61.6143L247.319 60.5525L246.813 59.4907L246.347 58.7952L244.795 58.9437L244.717 58.2111L245.683 56.2682L245.099 54.4738L245.251 52.2388L246.217 50.2958L247.263 49.0855L245.942 47.7317L243.654 48.3208L241.446 49.6425L237.955 49.9767L234.971 51.3727L232.723 52.3281L232.835 49.7268L229.693 49.6576L228.609 50.5016L226.169 53.3257L224.461 52.009L222.482 51.8284L223.185 54.7217L222.606 56.6275L221.949 57.8007L221.712 55.6028L220.313 53.5164L218.801 54.0312L217.368 55.2787L217.211 53.8135L216.238 52.0562L214.648 51.8384L213.214 53.0859L212.208 54.6625L211.163 55.8728L209.842 54.519C209.351 54.8127 208.378 55.4734 208.409 55.7665C208.441 56.0595 206.639 56.306 205.734 56.3927L204.419 58.7391L202.519 59.2911L203.486 57.3481L202.592 56.3235L201.586 57.9001L199.726 58.8184L198.905 54.8261L199.287 51.0888L198.354 49.6978L198.972 48.1583L199.551 46.2525L199.703 44.0175L199.119 42.2231L197.14 42.0425L197.719 40.1366L197.949 38.6343L197.444 37.5725L194.808 38.565L191.593 41.4634L190.311 40.4759L189.693 42.0154L188.687 43.592L188.839 41.357L187.13 40.0403L188.136 38.4637L188.637 35.8253L187.743 34.8006L186.54 34.5457L186.231 35.3154L186.855 37.4762L186.04 37.1841L184.062 37.0035L184.685 39.1642L184.416 40.3003L183.876 42.5724C183.591 42.3529 183.014 41.8408 182.982 41.5477C182.951 41.2547 182.58 40.2293 182.398 39.7533L181.116 38.7658L179.914 38.5109C179.112 38.3409 177.353 38.0159 176.733 38.0753C176.112 38.1347 175.466 38.4433 175.221 38.5902L174.602 40.1297L173.209 41.7434L171.815 43.3572L171.197 44.8967L165.098 39.1893L162.035 39.8527L160.327 38.536L160.866 36.2639L161.485 34.7244L161.366 33.6254L163.654 33.0363L161.749 29.8881L162.013 25.0518L159.568 24.1757C159.671 23.9191 159.955 23.3985 160.265 23.3688C160.575 23.3391 160.574 22.5991 160.535 22.2328L159.95 20.4383L155.763 21.5794L156.999 18.5004L155.291 17.1837L152.807 15.9413L150.868 16.127L148.271 17.4858L144.702 17.0874L141.56 17.0182L138.536 18.0478L137.57 19.9908L136.952 21.5303L132.955 20.8027L131.556 18.7162L128.841 18.9762L127.447 20.5899L126.211 23.6689L123.069 23.5997L122.142 25.909L120.282 26.8272L120.636 30.124L120.872 32.3219L121.417 33.75L123.165 35.433L124.255 38.2892L124.918 40.8162L124.654 45.6525L126.402 47.3355L126.132 48.4715L127.611 51.2906L128.931 52.6444L129.212 58.9088L130.73 62.0942L131.511 65.7201L131.517 69.4204L130.977 71.6925L127.335 74.2617L127.302 77.5956L125.599 79.9791L125.526 82.9467L124.48 84.157L122.232 85.1124L119.478 85.006L117.848 84.422L116.6 80.1005L115.392 76.1454L112.908 74.903L112.79 73.804L110.772 73.2571L109.418 75.2372L109.3 74.1382L107.979 72.7844L106.428 72.9329L106.422 69.2327L105.41 67.1091C104.672 66.3163 103.118 64.7381 102.808 64.7678C102.498 64.7975 101.36 64.6597 100.83 64.5871L98.3847 63.711L96.9852 61.6246L95.6645 60.2707L95.7769 57.6694L97.9463 55.9814L98.6039 54.8082L96.0016 52.4669L96.4625 49.4621L94.7539 48.1454L93.0453 46.8287L93.2757 45.3264L94.6696 43.7126L96.4119 41.6954L97.9238 41.1805L98.8511 38.8713L96.4849 38.7278L95.2822 38.4729L93.9221 36.7527L93.7253 34.9212C94.4747 34.6027 96.051 33.9584 96.3613 33.9286C96.6715 33.8989 96.6966 33.4031 96.6704 33.1589L97.328 31.9857L95.7374 31.7679L94.9618 31.8422L93.7984 31.9536L92.3652 33.2011L92.2472 32.1021L91.702 30.674L91.9324 29.1717L90.9994 27.7807L91.4996 25.1423L91.3423 23.677L89.8641 20.858L88.5826 19.8704L86.6043 19.6898L85.986 21.2293L82.996 18.9251L80.8996 17.6455L80.2813 19.185L78.9999 18.1975L76.9035 16.9179L74.3069 18.2768L72.1374 19.9648L70.3895 18.2818L68.6416 16.5988L66.7419 17.1508L65.3087 18.3982L62.4367 17.1929L61.1609 19.9056L57.2041 19.5443L58.1764 21.3016L58.1034 24.2692L56.3161 22.2199L54.1073 23.5416L51.314 23.0689L49.3356 22.8883L48.2902 24.0986L45.924 23.9551L46.1208 25.7866L43.215 27.9153L40.388 30.7765L36.864 34.4446L34.0707 33.9719L28.9112 33.3557L26.1572 33.2493L22.2792 33.6207L19.4521 36.4819L18.9913 39.4866L19.115 44.2858L17.5694 48.1345L15.2482 52.0575L15.7203 56.4532L15.9957 59.0174L17.4345 61.4702L21.8578 62.5269L24.0722 64.9054L24.3476 67.4696L24.0441 71.9395L21.914 73.9939L19.7446 75.6819L21.8016 76.5952L23.5889 78.6445L26.3822 79.1172L27.9728 79.3349L28.5967 81.4957L29.5634 79.5527L31.7722 78.231L34.2564 79.4734L36.0436 81.5227L37.3644 82.8766L38.9944 83.4607L39.5395 84.8888L40.4725 86.2797L42.0631 86.4975C42.2467 88.207 42.76 90.7978 43.3445 87.4852C43.9291 84.1725 44.7009 86.7385 45.0138 88.4356L46.565 88.287L47.5711 86.7104L48.8132 87.3316L50.0946 88.3191L50.6791 90.1135L50.9152 92.3114L50.3363 94.2172L51.7751 96.67L51.3143 99.6747L51.8201 100.736L51.7471 103.704L51.5953 105.939L50.0385 102.387L50.2745 104.585L49.7743 107.224L49.5832 109.092L49.8586 111.656L52.6126 111.763L53.0791 112.458L54.0515 114.216L55.3329 115.203L54.3269 116.78L52.8937 118.027L51.2638 117.443L50.1397 117.921L48.6672 118.802L49.5608 119.827L47.7398 121.111L48.3637 123.272L48.4817 124.371L49.8418 126.091L51.9382 127.371L51.32 128.91L52.7588 131.363L51.9102 134.405L50.5163 136.019L48.2288 136.608L47.5319 137.414L47.7286 139.246L48.6223 140.271L50.2915 141.221L49.6733 142.761L49.1337 145.033L49.0213 147.634L49.2574 149.832L50.2691 151.955L50.4658 153.787L50.6232 155.252L50.3927 156.755L49.308 157.599L47.7175 157.381L46.1662 157.529L44.5757 157.312L43.3336 156.69L43.1368 154.859L42.2039 153.468L42.0465 152.003L42.7041 150.829L42.5467 149.364L42.7771 147.862L41.535 147.241L40.2536 146.253L39.669 144.459L38.736 143.068L37.9211 142.776L36.2518 141.825L35.3975 141.167L34.1554 140.546L32.874 139.558L32.3682 138.496L31.4745 137.472L30.7382 137.912L29.2264 138.427L28.0236 138.172L26.3544 137.222L25.1909 137.333L23.6004 137.115L23.4823 136.017L22.2009 135.029L21.1162 135.873L20.4586 137.046L19.3345 137.524L18.6376 138.331L19.919 139.318L18.4858 140.566L18.9917 141.628L19.5762 143.422L19.2671 144.192L18.2217 145.402L17.137 146.246L16.5187 147.786L16.249 148.922L15.2036 150.132L14.0795 150.61L13.8097 151.746L13.8884 152.478L14.7821 153.503L15.2879 154.565L16.9572 155.515L17.1145 156.98L17.2719 158.446L17.8171 159.874L19.0592 160.495L20.3013 161.116L21.9312 161.7L21.6614 162.836L21.0039 164.01L20.7734 165.512L22.0155 166.133L23.6848 167.084L24.8875 167.338L26.0116 166.861L27.175 166.749L28.7656 166.967L29.9684 167.222L31.2498 168.21L32.4526 168.464L33.3856 169.855L34.667 170.843L34.8637 172.674L34.9818 173.773L35.0998 174.872L34.8694 176.375L34.6389 177.877L35.5719 179.268L35.7293 180.733L35.4989 182.236L34.0263 183.117L33.3687 184.29L34.2624 185.315L33.6442 186.854L32.1323 187.369L31.4354 188.176L29.9628 189.057L28.9174 190.267L28.2205 191.074L28.3779 192.539L28.9231 193.968L29.0411 195.066L29.2378 196.898L28.968 198.034L28.7376 199.536L27.6922 200.747L27.074 202.286L26.3771 203.093L27.6192 203.714L29.3278 205.031L30.4912 204.92L31.1094 203.38L32.1942 202.536L32.8911 201.729L32.7337 200.264L32.1885 198.836L32.0705 197.737L33.1552 196.893L34.2399 196.049L35.7518 195.534L36.4094 194.361L37.6122 194.616L38.8936 195.603L38.6632 197.106L37.6178 198.316L39.6355 198.863L41.1867 198.714L42.2715 197.87L43.7833 197.356L44.0925 196.586L42.8504 195.965L41.9961 195.306L40.754 194.685L40.5966 193.22L40.4785 192.121L40.6696 190.252L41.2879 188.713L41.9848 187.906L43.1089 187.428L44.351 188.049L45.8628 187.535L46.1326 186.398L45.5874 184.97L44.6938 183.946L44.1486 182.518L43.1763 180.76L44.143 178.817L44.0249 177.718L45.8459 176.434L47.6669 175.149L48.8304 175.038L48.673 173.573L47.3522 172.219L47.1555 170.387Z"/>
</mask>
<path d="M47.1555 170.387L48.1222 168.444L49.516 166.83L50.6401 166.353L53.0456 166.863L54.6755 167.447L55.1813 168.508L55.3387 169.974L54.2933 171.184L53.5571 171.625L53.6751 172.723L54.1809 173.785L56.9742 174.258L58.7615 176.307L58.9583 178.139L59.9306 179.896L61.7179 181.945L62.96 182.567L63.5445 184.361L64.0897 185.789L66.0287 185.603L67.1528 185.126L68.4342 186.113C68.9906 186.43 70.1114 187.137 70.1428 187.43C70.1743 187.723 71.2425 187.941 71.7727 188.014L72.9755 188.269L72.6607 185.339L72.8125 183.104L72.228 181.309L72.4584 179.807L72.3404 178.708L72.183 177.243L72.4921 176.473L73.6162 175.995L75.1674 175.847L76.4095 176.468L77.6909 177.455L78.1574 178.151L79.1298 179.908L81.0295 179.356L81.687 178.183L82.8898 178.438L85.2953 178.948L86.5768 179.935L88.364 181.985L88.9879 184.145L89.5331 185.573L90.4661 186.964L89.342 187.442L88.1786 187.553L87.8695 188.323L88.454 190.118L88.9598 191.179L89.4657 192.241L90.3987 193.632L90.9045 194.694L91.7981 195.719L91.9162 196.817L93.0796 196.706L93.2707 194.837L92.2983 193.08L90.9776 191.726L91.208 190.224L91.9049 189.417L94.5802 188.791L95.901 190.145L96.8733 191.902L98.1154 192.523L98.8123 191.716L98.1098 188.823L97.9524 187.358L98.61 186.184L100.004 184.571L103.028 183.541L105.472 184.417L106.754 185.405L107.726 187.162L109.823 188.442L111.025 188.696L114.246 189.498L115.64 187.885L118.703 187.221L120.912 185.899L121.957 184.689L121.839 183.59L121.254 181.796L121.564 181.026L123.115 180.877L122.918 179.046C122.887 178.753 121.766 178.046 121.209 177.729L119.034 175.717L119.265 174.215L121.086 172.93L122.676 173.148L124.655 173.329L125.588 174.719L128.46 175.925L130.477 176.472L133.501 175.442L134.198 174.635L134.816 173.096L134.192 170.935L134.732 168.663L133.76 166.906L133.602 165.44C133.848 165.293 134.416 164.992 134.726 164.963C135.114 164.925 135.929 165.218 136.317 165.18C136.627 165.151 137.428 164.581 137.79 164.299L139.689 163.747L139.492 161.916L140.071 160.01L141.505 158.762L143.404 158.21L145.495 155.79L148.249 155.896L150.655 156.406L153.06 156.916L155.235 158.928L155.82 160.722L157.14 162.076L158.422 163.064L160.209 165.113L160.754 166.541L162.463 167.858L163.435 169.615L164.25 169.907L165.88 170.491L166.538 169.318L168.747 167.996L169.056 167.227L169.286 165.724L168.859 165.395L168.662 163.564L168.623 163.197L168.387 160.999L168.342 156.933L167.679 154.406L167.521 152.941L167.752 151.438L169.145 149.824L170.579 148.577L170.225 145.28L171.231 143.704L171.5 142.568L169.752 140.885L169.983 139.382L168.623 137.662L168.853 136.16L169.084 134.657L170.905 133.373L173.113 132.051L174.625 131.536L176.255 132.12L177.576 133.474L179.712 135.12L181.033 136.474L183.359 136.251L184.292 137.642L185.107 137.934L186.698 138.152L187.783 137.308L188.907 136.83L189.8 137.855L191.391 138.072L192.554 137.961L193.987 136.714L193.054 135.323L191.694 133.603L191.149 132.174L190.565 130.38L191.571 128.803L192.695 128.326L195.1 128.835L196.073 130.593L196.309 132.791L197.899 133.008L198.169 131.872L199.136 129.929L201.114 130.11L201.654 127.838L199.945 126.521L198.394 126.67L196.106 127.259L194.707 125.172L193.465 124.551L192.723 121.292L192.644 120.559L192.987 116.455L194.729 114.438L197.444 114.178L200.119 113.552L199.844 110.988L201.474 111.572L205.082 112.337L208.145 111.673L209.814 112.624L213.147 110.824L214.153 109.247L214.423 108.111L216.323 107.559L217.565 108.181L219.273 109.497L221.212 109.312L222.1 106.636L223.809 107.953L226.136 107.73L228.075 107.544L230.402 107.322L231.447 106.111L232.689 106.732L235.443 106.839L235.089 103.542L238.074 102.146L239.046 103.903L239.979 105.294L241.221 105.916L242.384 105.804L244.284 105.252L245.526 105.873L245.757 104.371L246.454 103.564L248.005 103.416L248.662 102.242L249.668 100.666L249.741 97.6982L248.421 96.3443L246.83 96.1266L244.852 95.9459L244.616 93.7481L245.273 92.5749L246.161 89.8993L246.779 88.3598L247.785 86.7832L248.792 85.2065L247.667 85.6842L247.431 83.4864L247.701 82.3503L249.213 81.8355L249.016 80.004L249.129 77.4027L250.017 74.7271L249.511 73.6653L247.999 74.1802L247.842 72.7149L249.314 71.8338L249.235 71.1012L247.915 69.7473L246.942 67.99L247.094 65.7551L247.364 64.619L247.555 62.7503L247.825 61.6143L247.319 60.5525L246.813 59.4907L246.347 58.7952L244.795 58.9437L244.717 58.2111L245.683 56.2682L245.099 54.4738L245.251 52.2388L246.217 50.2958L247.263 49.0855L245.942 47.7317L243.654 48.3208L241.446 49.6425L237.955 49.9767L234.971 51.3727L232.723 52.3281L232.835 49.7268L229.693 49.6576L228.609 50.5016L226.169 53.3257L224.461 52.009L222.482 51.8284L223.185 54.7217L222.606 56.6275L221.949 57.8007L221.712 55.6028L220.313 53.5164L218.801 54.0312L217.368 55.2787L217.211 53.8135L216.238 52.0562L214.648 51.8384L213.214 53.0859L212.208 54.6625L211.163 55.8728L209.842 54.519C209.351 54.8127 208.378 55.4734 208.409 55.7665C208.441 56.0595 206.639 56.306 205.734 56.3927L204.419 58.7391L202.519 59.2911L203.486 57.3481L202.592 56.3235L201.586 57.9001L199.726 58.8184L198.905 54.8261L199.287 51.0888L198.354 49.6978L198.972 48.1583L199.551 46.2525L199.703 44.0175L199.119 42.2231L197.14 42.0425L197.719 40.1366L197.949 38.6343L197.444 37.5725L194.808 38.565L191.593 41.4634L190.311 40.4759L189.693 42.0154L188.687 43.592L188.839 41.357L187.13 40.0403L188.136 38.4637L188.637 35.8253L187.743 34.8006L186.54 34.5457L186.231 35.3154L186.855 37.4762L186.04 37.1841L184.062 37.0035L184.685 39.1642L184.416 40.3003L183.876 42.5724C183.591 42.3529 183.014 41.8408 182.982 41.5477C182.951 41.2547 182.58 40.2293 182.398 39.7533L181.116 38.7658L179.914 38.5109C179.112 38.3409 177.353 38.0159 176.733 38.0753C176.112 38.1347 175.466 38.4433 175.221 38.5902L174.602 40.1297L173.209 41.7434L171.815 43.3572L171.197 44.8967L165.098 39.1893L162.035 39.8527L160.327 38.536L160.866 36.2639L161.485 34.7244L161.366 33.6254L163.654 33.0363L161.749 29.8881L162.013 25.0518L159.568 24.1757C159.671 23.9191 159.955 23.3985 160.265 23.3688C160.575 23.3391 160.574 22.5991 160.535 22.2328L159.95 20.4383L155.763 21.5794L156.999 18.5004L155.291 17.1837L152.807 15.9413L150.868 16.127L148.271 17.4858L144.702 17.0874L141.56 17.0182L138.536 18.0478L137.57 19.9908L136.952 21.5303L132.955 20.8027L131.556 18.7162L128.841 18.9762L127.447 20.5899L126.211 23.6689L123.069 23.5997L122.142 25.909L120.282 26.8272L120.636 30.124L120.872 32.3219L121.417 33.75L123.165 35.433L124.255 38.2892L124.918 40.8162L124.654 45.6525L126.402 47.3355L126.132 48.4715L127.611 51.2906L128.931 52.6444L129.212 58.9088L130.73 62.0942L131.511 65.7201L131.517 69.4204L130.977 71.6925L127.335 74.2617L127.302 77.5956L125.599 79.9791L125.526 82.9467L124.48 84.157L122.232 85.1124L119.478 85.006L117.848 84.422L116.6 80.1005L115.392 76.1454L112.908 74.903L112.79 73.804L110.772 73.2571L109.418 75.2372L109.3 74.1382L107.979 72.7844L106.428 72.9329L106.422 69.2327L105.41 67.1091C104.672 66.3163 103.118 64.7381 102.808 64.7678C102.498 64.7975 101.36 64.6597 100.83 64.5871L98.3847 63.711L96.9852 61.6246L95.6645 60.2707L95.7769 57.6694L97.9463 55.9814L98.6039 54.8082L96.0016 52.4669L96.4625 49.4621L94.7539 48.1454L93.0453 46.8287L93.2757 45.3264L94.6696 43.7126L96.4119 41.6954L97.9238 41.1805L98.8511 38.8713L96.4849 38.7278L95.2822 38.4729L93.9221 36.7527L93.7253 34.9212C94.4747 34.6027 96.051 33.9584 96.3613 33.9286C96.6715 33.8989 96.6966 33.4031 96.6704 33.1589L97.328 31.9857L95.7374 31.7679L94.9618 31.8422L93.7984 31.9536L92.3652 33.2011L92.2472 32.1021L91.702 30.674L91.9324 29.1717L90.9994 27.7807L91.4996 25.1423L91.3423 23.677L89.8641 20.858L88.5826 19.8704L86.6043 19.6898L85.986 21.2293L82.996 18.9251L80.8996 17.6455L80.2813 19.185L78.9999 18.1975L76.9035 16.9179L74.3069 18.2768L72.1374 19.9648L70.3895 18.2818L68.6416 16.5988L66.7419 17.1508L65.3087 18.3982L62.4367 17.1929L61.1609 19.9056L57.2041 19.5443L58.1764 21.3016L58.1034 24.2692L56.3161 22.2199L54.1073 23.5416L51.314 23.0689L49.3356 22.8883L48.2902 24.0986L45.924 23.9551L46.1208 25.7866L43.215 27.9153L40.388 30.7765L36.864 34.4446L34.0707 33.9719L28.9112 33.3557L26.1572 33.2493L22.2792 33.6207L19.4521 36.4819L18.9913 39.4866L19.115 44.2858L17.5694 48.1345L15.2482 52.0575L15.7203 56.4532L15.9957 59.0174L17.4345 61.4702L21.8578 62.5269L24.0722 64.9054L24.3476 67.4696L24.0441 71.9395L21.914 73.9939L19.7446 75.6819L21.8016 76.5952L23.5889 78.6445L26.3822 79.1172L27.9728 79.3349L28.5967 81.4957L29.5634 79.5527L31.7722 78.231L34.2564 79.4734L36.0436 81.5227L37.3644 82.8766L38.9944 83.4607L39.5395 84.8888L40.4725 86.2797L42.0631 86.4975C42.2467 88.207 42.76 90.7978 43.3445 87.4852C43.9291 84.1725 44.7009 86.7385 45.0138 88.4356L46.565 88.287L47.5711 86.7104L48.8132 87.3316L50.0946 88.3191L50.6791 90.1135L50.9152 92.3114L50.3363 94.2172L51.7751 96.67L51.3143 99.6747L51.8201 100.736L51.7471 103.704L51.5953 105.939L50.0385 102.387L50.2745 104.585L49.7743 107.224L49.5832 109.092L49.8586 111.656L52.6126 111.763L53.0791 112.458L54.0515 114.216L55.3329 115.203L54.3269 116.78L52.8937 118.027L51.2638 117.443L50.1397 117.921L48.6672 118.802L49.5608 119.827L47.7398 121.111L48.3637 123.272L48.4817 124.371L49.8418 126.091L51.9382 127.371L51.32 128.91L52.7588 131.363L51.9102 134.405L50.5163 136.019L48.2288 136.608L47.5319 137.414L47.7286 139.246L48.6223 140.271L50.2915 141.221L49.6733 142.761L49.1337 145.033L49.0213 147.634L49.2574 149.832L50.2691 151.955L50.4658 153.787L50.6232 155.252L50.3927 156.755L49.308 157.599L47.7175 157.381L46.1662 157.529L44.5757 157.312L43.3336 156.69L43.1368 154.859L42.2039 153.468L42.0465 152.003L42.7041 150.829L42.5467 149.364L42.7771 147.862L41.535 147.241L40.2536 146.253L39.669 144.459L38.736 143.068L37.9211 142.776L36.2518 141.825L35.3975 141.167L34.1554 140.546L32.874 139.558L32.3682 138.496L31.4745 137.472L30.7382 137.912L29.2264 138.427L28.0236 138.172L26.3544 137.222L25.1909 137.333L23.6004 137.115L23.4823 136.017L22.2009 135.029L21.1162 135.873L20.4586 137.046L19.3345 137.524L18.6376 138.331L19.919 139.318L18.4858 140.566L18.9917 141.628L19.5762 143.422L19.2671 144.192L18.2217 145.402L17.137 146.246L16.5187 147.786L16.249 148.922L15.2036 150.132L14.0795 150.61L13.8097 151.746L13.8884 152.478L14.7821 153.503L15.2879 154.565L16.9572 155.515L17.1145 156.98L17.2719 158.446L17.8171 159.874L19.0592 160.495L20.3013 161.116L21.9312 161.7L21.6614 162.836L21.0039 164.01L20.7734 165.512L22.0155 166.133L23.6848 167.084L24.8875 167.338L26.0116 166.861L27.175 166.749L28.7656 166.967L29.9684 167.222L31.2498 168.21L32.4526 168.464L33.3856 169.855L34.667 170.843L34.8637 172.674L34.9818 173.773L35.0998 174.872L34.8694 176.375L34.6389 177.877L35.5719 179.268L35.7293 180.733L35.4989 182.236L34.0263 183.117L33.3687 184.29L34.2624 185.315L33.6442 186.854L32.1323 187.369L31.4354 188.176L29.9628 189.057L28.9174 190.267L28.2205 191.074L28.3779 192.539L28.9231 193.968L29.0411 195.066L29.2378 196.898L28.968 198.034L28.7376 199.536L27.6922 200.747L27.074 202.286L26.3771 203.093L27.6192 203.714L29.3278 205.031L30.4912 204.92L31.1094 203.38L32.1942 202.536L32.8911 201.729L32.7337 200.264L32.1885 198.836L32.0705 197.737L33.1552 196.893L34.2399 196.049L35.7518 195.534L36.4094 194.361L37.6122 194.616L38.8936 195.603L38.6632 197.106L37.6178 198.316L39.6355 198.863L41.1867 198.714L42.2715 197.87L43.7833 197.356L44.0925 196.586L42.8504 195.965L41.9961 195.306L40.754 194.685L40.5966 193.22L40.4785 192.121L40.6696 190.252L41.2879 188.713L41.9848 187.906L43.1089 187.428L44.351 188.049L45.8628 187.535L46.1326 186.398L45.5874 184.97L44.6938 183.946L44.1486 182.518L43.1763 180.76L44.143 178.817L44.0249 177.718L45.8459 176.434L47.6669 175.149L48.8304 175.038L48.673 173.573L47.3522 172.219L47.1555 170.387Z" stroke="black" stroke-width="3" shape-rendering="crispEdges" mask="url(#path-1-inside-1_35_5379)"/>
</g>
</g>
<defs>
<filter id="filter0_dd_35_5379" x="9.80969" y="15.9414" width="244.207" height="197.09" filterUnits="userSpaceOnUse" color-interpolation-filters="sRGB">
<feFlood flood-opacity="0" result="BackgroundImageFix"/>
<feColorMatrix in="SourceAlpha" type="matrix" values="0 0 0 0 0 0 0 0 0 0 0 0 0 0 0 0 0 0 127 0" result="hardAlpha"/>
<feOffset dy="4"/>
<feGaussianBlur stdDeviation="2"/>
<feComposite in2="hardAlpha" operator="out"/>
<feColorMatrix type="matrix" values="0 0 0 0 0 0 0 0 0 0 0 0 0 0 0 0 0 0 0.25 0"/>
<feBlend mode="normal" in2="BackgroundImageFix" result="effect1_dropShadow_35_5379"/>
<feColorMatrix in="SourceAlpha" type="matrix" values="0 0 0 0 0 0 0 0 0 0 0 0 0 0 0 0 0 0 127 0" result="hardAlpha"/>
<feOffset dy="4"/>
<feGaussianBlur stdDeviation="2"/>
<feComposite in2="hardAlpha" operator="out"/>
<feColorMatrix type="matrix" values="0 0 0 0 0 0 0 0 0 0 0 0 0 0 0 0 0 0 0.25 0"/>
<feBlend mode="normal" in2="effect1_dropShadow_35_5379" result="effect2_dropShadow_35_5379"/>
<feBlend mode="normal" in="SourceGraphic" in2="effect2_dropShadow_35_5379" result="shape"/>
</filter>
<filter id="filter1_d_35_5379" x="9.80969" y="15.9414" width="244.207" height="197.09" filterUnits="userSpaceOnUse" color-interpolation-filters="sRGB">
<feFlood flood-opacity="0" result="BackgroundImageFix"/>
<feColorMatrix in="SourceAlpha" type="matrix" values="0 0 0 0 0 0 0 0 0 0 0 0 0 0 0 0 0 0 127 0" result="hardAlpha"/>
<feOffset dy="4"/>
<feGaussianBlur stdDeviation="2"/>
<feComposite in2="hardAlpha" operator="out"/>
<feColorMatrix type="matrix" values="0 0 0 0 0 0 0 0 0 0 0 0 0 0 0 0 0 0 0.93 0"/>
<feBlend mode="normal" in2="BackgroundImageFix" result="effect1_dropShadow_35_5379"/>
<feBlend mode="normal" in="SourceGraphic" in2="effect1_dropShadow_35_5379" result="shape"/>
</filter>
</defs>
</svg>
