<svg width="180" height="27" viewBox="0 0 180 27" fill="none" xmlns="http://www.w3.org/2000/svg">
<mask id="path-1-outside-1_2109_2580" maskUnits="userSpaceOnUse" x="21.8838" y="0" width="158" height="27" fill="black">
<rect fill="white" x="21.8838" width="158" height="27"/>
<path d="M22.8838 12.8073C22.8838 10.4774 23.5786 8.7467 24.9683 7.61508C26.358 6.47514 28.276 5.90514 30.7223 5.90514C32.9275 5.90514 34.6445 6.34615 35.8734 7.22813C37.1023 8.10183 37.7168 9.37495 37.7168 11.0475C37.7168 11.5217 37.6823 11.9794 37.6134 12.4204C37.556 12.8614 37.4928 13.1817 37.4239 13.3814L37.3205 13.681H26.5188C26.6566 15.1454 27.1218 16.1814 27.9143 16.7888C28.7182 17.3879 29.8897 17.6875 31.4287 17.6875C32.1637 17.6875 32.8758 17.6251 33.5649 17.5002C34.2655 17.3754 34.7823 17.2548 35.1154 17.1383L35.5978 16.9511C36.3098 17.4087 36.6831 18.0203 36.7175 18.7858C36.6602 18.8108 36.5797 18.8482 36.4763 18.8982C36.373 18.9481 36.1319 19.0355 35.7528 19.1603C35.3853 19.2851 34.9948 19.3932 34.5813 19.4848C34.1679 19.5763 33.6223 19.6595 32.9447 19.7344C32.2671 19.8176 31.5723 19.8592 30.8602 19.8592C25.5426 19.8592 22.8838 17.5086 22.8838 12.8073ZM26.5188 11.8587H34.0817C34.1506 11.4593 34.1851 11.0765 34.1851 10.7104C34.1851 9.87836 33.9152 9.2085 33.3754 8.70094C32.8356 8.18506 31.9513 7.92709 30.7223 7.92709C28.1727 7.92709 26.7715 9.23764 26.5188 11.8587ZM40.2664 22.4428C40.2664 21.9852 40.3813 21.5525 40.611 21.1448C40.8407 20.7371 41.1393 20.3834 41.5068 20.0839C41.8744 19.7927 42.2074 19.5596 42.5061 19.3849C42.8046 19.2102 43.109 19.0562 43.4191 18.9231C42.9023 18.5487 42.6439 18.0536 42.6439 17.4379C42.6439 16.5059 43.2066 15.5615 44.3322 14.6046C42.1959 13.889 41.1278 12.5244 41.1278 10.5107C41.1278 9.0629 41.7193 7.93542 42.9023 7.12829C44.0967 6.31287 45.808 5.90514 48.0361 5.90514C49.6211 5.90514 50.9246 6.10066 51.9468 6.49175L56.8911 5.90514C57.0519 6.17141 57.1323 6.50423 57.1323 6.90365C57.1323 7.30303 57.0519 7.64422 56.8911 7.92709L53.9624 7.82725C54.617 8.51787 54.9444 9.41238 54.9444 10.5107C54.9444 11.9586 54.3529 13.0902 53.17 13.9057C51.9869 14.7127 50.2757 15.1163 48.0361 15.1163C47.5422 15.1163 47.0254 15.0872 46.4856 15.0289C46.0262 15.4783 45.7965 15.9234 45.7965 16.3644C45.7965 16.4144 45.8023 16.4643 45.8138 16.5142C45.8597 16.7888 46.055 17.0176 46.3995 17.2007C46.744 17.3754 47.1805 17.4961 47.7088 17.5627C48.2371 17.6292 48.8286 17.6999 49.4833 17.7748C50.1379 17.8497 50.804 17.9163 51.4816 17.9746C52.1593 18.0328 52.8196 18.1493 53.4628 18.324C54.106 18.4904 54.6802 18.6985 55.1856 18.9481C55.6909 19.1894 56.0929 19.5389 56.3915 19.9965C56.7016 20.4541 56.8567 20.9992 56.8567 21.6316C56.8567 22.913 56.0469 23.9614 54.4276 24.7768C52.8082 25.5923 50.5973 26 47.7949 26C45.2567 26 43.3674 25.6755 42.1271 25.0265C40.8866 24.3857 40.2664 23.5246 40.2664 22.4428ZM43.6947 21.9311C43.6947 22.6051 44.0451 23.1501 44.7456 23.5662C45.4577 23.9822 46.5086 24.1902 47.8983 24.1902C49.6785 24.1902 51.0567 23.978 52.0329 23.5536C53.0091 23.1376 53.4972 22.5801 53.4972 21.8812C53.4972 21.4818 53.3193 21.1572 52.9632 20.9077C52.6186 20.6664 52.1305 20.4874 51.4989 20.371C50.8787 20.2628 50.2413 20.1796 49.5866 20.1213C48.9319 20.063 48.1912 19.9923 47.3642 19.9091C46.5373 19.8259 45.8539 19.7261 45.3142 19.6096C44.8432 19.8842 44.4528 20.2253 44.1427 20.6331C43.844 21.0491 43.6947 21.4818 43.6947 21.9311ZM45.4175 8.41389C44.7859 8.87982 44.47 9.57878 44.47 10.5107C44.47 11.4427 44.7859 12.1416 45.4175 12.6076C46.0607 13.0652 46.9336 13.2941 48.0361 13.2941C49.1387 13.2941 50.0001 13.0652 50.6203 12.6076C51.2519 12.1416 51.5678 11.4427 51.5678 10.5107C51.5678 9.57878 51.2519 8.87982 50.6203 8.41389C50.0001 7.93961 49.1387 7.70245 48.0361 7.70245C46.9336 7.70245 46.0607 7.93961 45.4175 8.41389ZM59.7509 12.8073C59.7509 10.4774 60.4457 8.7467 61.8354 7.61508C63.2251 6.47514 65.1431 5.90514 67.5894 5.90514C69.7946 5.90514 71.5116 6.34615 72.7405 7.22813C73.9694 8.10183 74.5838 9.37495 74.5838 11.0475C74.5838 11.5217 74.5494 11.9794 74.4805 12.4204C74.4231 12.8614 74.3599 13.1817 74.291 13.3814L74.1876 13.681H63.3859C63.5237 15.1454 63.9889 16.1814 64.7813 16.7888C65.5853 17.3879 66.7568 17.6875 68.2958 17.6875C69.0308 17.6875 69.7429 17.6251 70.432 17.5002C71.1326 17.3754 71.6494 17.2548 71.9825 17.1383L72.4648 16.9511C73.1769 17.4087 73.5502 18.0203 73.5846 18.7858C73.5273 18.8108 73.4468 18.8482 73.3434 18.8982C73.2401 18.9481 72.9989 19.0355 72.6199 19.1603C72.2524 19.2851 71.8619 19.3932 71.4484 19.4848C71.0349 19.5763 70.4894 19.6595 69.8118 19.7344C69.1342 19.8176 68.4394 19.8592 67.7273 19.8592C62.4096 19.8592 59.7509 17.5086 59.7509 12.8073ZM63.3859 11.8587H70.9488C71.0177 11.4593 71.0522 11.0765 71.0522 10.7104C71.0522 9.87836 70.7823 9.2085 70.2425 8.70094C69.7027 8.18506 68.8184 7.92709 67.5894 7.92709C65.0398 7.92709 63.6386 9.23764 63.3859 11.8587ZM77.5298 15.5906C77.5298 14.2177 78.0983 13.2067 79.2353 12.5577C80.3724 11.9086 82.0606 11.5841 84.3002 11.5841C85.7703 11.5841 87.1141 11.634 88.3315 11.7339V10.7853C88.3315 9.87836 88.0501 9.19602 87.4874 8.73842C86.936 8.28076 86.0058 8.05193 84.6965 8.05193C83.9614 8.05193 83.1977 8.10602 82.4052 8.2142C81.6242 8.32232 81.0213 8.4305 80.5963 8.53868L79.9588 8.70094L79.9072 8.676C79.8842 8.65105 79.8498 8.63024 79.8038 8.61357C79.7694 8.58863 79.7234 8.55534 79.666 8.51373C79.6086 8.46378 79.5511 8.41389 79.4938 8.36394C79.4478 8.31404 79.3904 8.25162 79.3214 8.17673C79.264 8.09355 79.2066 8.01032 79.1492 7.92709C79.1147 7.86053 79.0802 7.79396 79.0458 7.7274C79.0228 7.66084 78.9999 7.59842 78.9769 7.54019C78.9654 7.48196 78.9539 7.42368 78.9424 7.36545C78.9309 7.29889 78.9252 7.2448 78.9252 7.20318C78.9252 7.15329 78.9252 7.10748 78.9252 7.06592C78.9252 7.0243 78.9252 6.99102 78.9252 6.96607C78.9367 6.93279 78.9424 6.90365 78.9424 6.8787V6.8537C79.0114 6.82876 79.109 6.79548 79.2353 6.75386C79.3732 6.71225 79.6545 6.6374 80.0794 6.52923C80.5159 6.41271 80.9581 6.31287 81.406 6.22964C81.8654 6.14646 82.4339 6.07157 83.1115 6.00499C83.7891 5.93842 84.4553 5.90514 85.1099 5.90514C87.5907 5.90514 89.3307 6.30454 90.3299 7.10334C91.3406 7.90214 91.8459 9.1586 91.8459 10.8727V19.4348C91.5933 19.5514 91.1396 19.6096 90.4849 19.6096C90.2208 19.6096 89.9681 19.5971 89.7269 19.5722C89.4972 19.5389 89.3307 19.5097 89.2273 19.4848L89.0723 19.4348L88.5382 17.7998C87.6194 19.1727 85.7703 19.8592 82.9909 19.8592C81.2912 19.8592 79.9531 19.4973 78.9769 18.7734C78.0121 18.0494 77.5298 16.9885 77.5298 15.5906ZM81.1648 15.5906C81.1648 17.13 82.187 17.8997 84.2313 17.8997C85.1272 17.8997 85.8909 17.7291 86.5226 17.3879C87.1543 17.0384 87.6137 16.6057 87.9008 16.0898C88.1879 15.5656 88.3315 14.9915 88.3315 14.3675V13.4688C86.7121 13.369 85.5234 13.319 84.7654 13.319C83.5595 13.319 82.6579 13.5021 82.0606 13.8682C81.4634 14.226 81.1648 14.8001 81.1648 15.5906ZM96.8592 19.4348V6.34201C97.2036 6.2255 97.7892 6.16727 98.6163 6.16727C98.9493 6.16727 99.2598 6.18389 99.547 6.21717C99.8455 6.24212 100.058 6.27126 100.184 6.30454L100.373 6.34201V7.51524C101.683 6.44185 103.463 5.90514 105.714 5.90514C107.448 5.90514 108.792 6.25878 109.746 6.96607C110.699 7.66498 111.175 8.6011 111.175 9.77433V19.4348C110.785 19.5514 110.199 19.6096 109.418 19.6096C109.062 19.6096 108.734 19.5971 108.436 19.5722C108.137 19.5389 107.931 19.5097 107.816 19.4848L107.644 19.4348V10.2237C107.644 8.72589 106.553 7.97704 104.37 7.97704C103.59 7.97704 102.843 8.12264 102.131 8.41389C101.419 8.70508 100.833 9.10451 100.373 9.61206V19.4348C99.9598 19.5514 99.3741 19.6096 98.6163 19.6096C98.2486 19.6096 97.9156 19.5971 97.6171 19.5722C97.3299 19.5389 97.1351 19.5097 97.0314 19.4848L96.8592 19.4348ZM121.615 2.3355C121.615 2.14412 121.638 1.9569 121.684 1.77384C121.742 1.58246 121.793 1.43684 121.839 1.33699L121.908 1.1997H138.808C138.992 1.51589 139.084 1.88617 139.084 2.31053C139.084 2.51023 139.061 2.70577 139.015 2.89715C138.969 3.08853 138.923 3.22999 138.877 3.32152L138.808 3.45881H132.244V19.4348C131.82 19.5514 131.217 19.6096 130.436 19.6096C130.057 19.6096 129.718 19.5971 129.42 19.5722C129.12 19.5389 128.914 19.5097 128.799 19.4848L128.644 19.4348V3.45881H121.908C121.713 3.16758 121.615 2.79314 121.615 2.3355ZM138.274 15.5906C138.274 14.2177 138.843 13.2067 139.98 12.5577C141.117 11.9086 142.805 11.5841 145.045 11.5841C146.515 11.5841 147.859 11.634 149.076 11.7339V10.7853C149.076 9.87836 148.795 9.19602 148.232 8.73842C147.68 8.28076 146.75 8.05193 145.441 8.05193C144.706 8.05193 143.943 8.10602 143.15 8.2142C142.369 8.32232 141.766 8.4305 141.341 8.53868L140.704 8.70094L140.651 8.676C140.629 8.65105 140.594 8.63024 140.548 8.61357C140.514 8.58863 140.468 8.55534 140.411 8.51373C140.353 8.46378 140.296 8.41389 140.239 8.36394C140.192 8.31404 140.135 8.25162 140.066 8.17673C140.009 8.09355 139.951 8.01032 139.894 7.92709C139.859 7.86053 139.825 7.79396 139.791 7.7274C139.767 7.66084 139.745 7.59842 139.721 7.54019C139.71 7.48196 139.699 7.42368 139.687 7.36545C139.676 7.29889 139.67 7.2448 139.67 7.20318C139.67 7.15329 139.67 7.10748 139.67 7.06592C139.67 7.0243 139.67 6.99102 139.67 6.96607C139.681 6.93279 139.687 6.90365 139.687 6.8787V6.8537C139.756 6.82876 139.853 6.79548 139.98 6.75386C140.118 6.71225 140.399 6.6374 140.824 6.52923C141.26 6.41271 141.703 6.31287 142.15 6.22964C142.61 6.14646 143.178 6.07157 143.856 6.00499C144.534 5.93842 145.2 5.90514 145.855 5.90514C148.335 5.90514 150.075 6.30454 151.074 7.10334C152.085 7.90214 152.59 9.1586 152.59 10.8727V19.4348C152.338 19.5514 151.884 19.6096 151.23 19.6096C150.965 19.6096 150.712 19.5971 150.471 19.5722C150.242 19.5389 150.075 19.5097 149.972 19.4848L149.817 19.4348L149.283 17.7998C148.364 19.1727 146.515 19.8592 143.736 19.8592C142.036 19.8592 140.698 19.4973 139.721 18.7734C138.757 18.0494 138.274 16.9885 138.274 15.5906ZM141.91 15.5906C141.91 17.13 142.931 17.8997 144.976 17.8997C145.872 17.8997 146.635 17.7291 147.267 17.3879C147.899 17.0384 148.358 16.6057 148.646 16.0898C148.933 15.5656 149.076 14.9915 149.076 14.3675V13.4688C147.457 13.369 146.268 13.319 145.51 13.319C144.304 13.319 143.403 13.5021 142.805 13.8682C142.208 14.226 141.91 14.8001 141.91 15.5906ZM155.622 19.4348L161.859 12.7324L156.001 6.34201C156.473 6.2255 157.121 6.16727 157.948 6.16727C158.327 6.16727 158.678 6.18389 158.999 6.21717C159.321 6.24212 159.551 6.27126 159.688 6.30454L159.895 6.34201L164.047 10.8727L168.251 6.34201C168.652 6.2255 169.215 6.16727 169.938 6.16727C170.295 6.16727 170.628 6.18389 170.938 6.21717C171.248 6.24212 171.466 6.27126 171.592 6.30454L171.782 6.34201L165.925 12.6325L172.196 19.4348C171.736 19.5514 171.093 19.6096 170.266 19.6096C169.887 19.6096 169.537 19.5971 169.215 19.5722C168.893 19.5389 168.664 19.5097 168.526 19.4848L168.319 19.4348L163.771 14.4922L159.189 19.4348C158.753 19.5514 158.173 19.6096 157.449 19.6096C157.104 19.6096 156.777 19.5971 156.467 19.5722C156.168 19.5389 155.95 19.5097 155.812 19.4848L155.622 19.4348ZM175.348 3.58362V1.17474C175.716 1.05825 176.324 1 177.174 1C177.53 1 177.858 1.01664 178.156 1.04993C178.466 1.07489 178.685 1.10401 178.811 1.13729L179 1.17474V3.58362C178.587 3.70012 177.979 3.75836 177.174 3.75836C176.795 3.75836 176.451 3.74588 176.14 3.72092C175.842 3.68763 175.635 3.65851 175.521 3.63355L175.348 3.58362ZM175.417 19.4348V6.34201C175.761 6.2255 176.347 6.16727 177.174 6.16727C177.519 6.16727 177.835 6.18389 178.122 6.21717C178.42 6.24212 178.633 6.27126 178.759 6.30454L178.932 6.34201V19.4348C178.541 19.5514 177.955 19.6096 177.174 19.6096C176.806 19.6096 176.473 19.5971 176.175 19.5722C175.888 19.5389 175.693 19.5097 175.589 19.4848L175.417 19.4348Z"/>
</mask>
<path d="M22.8838 12.8073C22.8838 10.4774 23.5786 8.7467 24.9683 7.61508C26.358 6.47514 28.276 5.90514 30.7223 5.90514C32.9275 5.90514 34.6445 6.34615 35.8734 7.22813C37.1023 8.10183 37.7168 9.37495 37.7168 11.0475C37.7168 11.5217 37.6823 11.9794 37.6134 12.4204C37.556 12.8614 37.4928 13.1817 37.4239 13.3814L37.3205 13.681H26.5188C26.6566 15.1454 27.1218 16.1814 27.9143 16.7888C28.7182 17.3879 29.8897 17.6875 31.4287 17.6875C32.1637 17.6875 32.8758 17.6251 33.5649 17.5002C34.2655 17.3754 34.7823 17.2548 35.1154 17.1383L35.5978 16.9511C36.3098 17.4087 36.6831 18.0203 36.7175 18.7858C36.6602 18.8108 36.5797 18.8482 36.4763 18.8982C36.373 18.9481 36.1319 19.0355 35.7528 19.1603C35.3853 19.2851 34.9948 19.3932 34.5813 19.4848C34.1679 19.5763 33.6223 19.6595 32.9447 19.7344C32.2671 19.8176 31.5723 19.8592 30.8602 19.8592C25.5426 19.8592 22.8838 17.5086 22.8838 12.8073ZM26.5188 11.8587H34.0817C34.1506 11.4593 34.1851 11.0765 34.1851 10.7104C34.1851 9.87836 33.9152 9.2085 33.3754 8.70094C32.8356 8.18506 31.9513 7.92709 30.7223 7.92709C28.1727 7.92709 26.7715 9.23764 26.5188 11.8587ZM40.2664 22.4428C40.2664 21.9852 40.3813 21.5525 40.611 21.1448C40.8407 20.7371 41.1393 20.3834 41.5068 20.0839C41.8744 19.7927 42.2074 19.5596 42.5061 19.3849C42.8046 19.2102 43.109 19.0562 43.4191 18.9231C42.9023 18.5487 42.6439 18.0536 42.6439 17.4379C42.6439 16.5059 43.2066 15.5615 44.3322 14.6046C42.1959 13.889 41.1278 12.5244 41.1278 10.5107C41.1278 9.0629 41.7193 7.93542 42.9023 7.12829C44.0967 6.31287 45.808 5.90514 48.0361 5.90514C49.6211 5.90514 50.9246 6.10066 51.9468 6.49175L56.8911 5.90514C57.0519 6.17141 57.1323 6.50423 57.1323 6.90365C57.1323 7.30303 57.0519 7.64422 56.8911 7.92709L53.9624 7.82725C54.617 8.51787 54.9444 9.41238 54.9444 10.5107C54.9444 11.9586 54.3529 13.0902 53.17 13.9057C51.9869 14.7127 50.2757 15.1163 48.0361 15.1163C47.5422 15.1163 47.0254 15.0872 46.4856 15.0289C46.0262 15.4783 45.7965 15.9234 45.7965 16.3644C45.7965 16.4144 45.8023 16.4643 45.8138 16.5142C45.8597 16.7888 46.055 17.0176 46.3995 17.2007C46.744 17.3754 47.1805 17.4961 47.7088 17.5627C48.2371 17.6292 48.8286 17.6999 49.4833 17.7748C50.1379 17.8497 50.804 17.9163 51.4816 17.9746C52.1593 18.0328 52.8196 18.1493 53.4628 18.324C54.106 18.4904 54.6802 18.6985 55.1856 18.9481C55.6909 19.1894 56.0929 19.5389 56.3915 19.9965C56.7016 20.4541 56.8567 20.9992 56.8567 21.6316C56.8567 22.913 56.0469 23.9614 54.4276 24.7768C52.8082 25.5923 50.5973 26 47.7949 26C45.2567 26 43.3674 25.6755 42.1271 25.0265C40.8866 24.3857 40.2664 23.5246 40.2664 22.4428ZM43.6947 21.9311C43.6947 22.6051 44.0451 23.1501 44.7456 23.5662C45.4577 23.9822 46.5086 24.1902 47.8983 24.1902C49.6785 24.1902 51.0567 23.978 52.0329 23.5536C53.0091 23.1376 53.4972 22.5801 53.4972 21.8812C53.4972 21.4818 53.3193 21.1572 52.9632 20.9077C52.6186 20.6664 52.1305 20.4874 51.4989 20.371C50.8787 20.2628 50.2413 20.1796 49.5866 20.1213C48.9319 20.063 48.1912 19.9923 47.3642 19.9091C46.5373 19.8259 45.8539 19.7261 45.3142 19.6096C44.8432 19.8842 44.4528 20.2253 44.1427 20.6331C43.844 21.0491 43.6947 21.4818 43.6947 21.9311ZM45.4175 8.41389C44.7859 8.87982 44.47 9.57878 44.47 10.5107C44.47 11.4427 44.7859 12.1416 45.4175 12.6076C46.0607 13.0652 46.9336 13.2941 48.0361 13.2941C49.1387 13.2941 50.0001 13.0652 50.6203 12.6076C51.2519 12.1416 51.5678 11.4427 51.5678 10.5107C51.5678 9.57878 51.2519 8.87982 50.6203 8.41389C50.0001 7.93961 49.1387 7.70245 48.0361 7.70245C46.9336 7.70245 46.0607 7.93961 45.4175 8.41389ZM59.7509 12.8073C59.7509 10.4774 60.4457 8.7467 61.8354 7.61508C63.2251 6.47514 65.1431 5.90514 67.5894 5.90514C69.7946 5.90514 71.5116 6.34615 72.7405 7.22813C73.9694 8.10183 74.5838 9.37495 74.5838 11.0475C74.5838 11.5217 74.5494 11.9794 74.4805 12.4204C74.4231 12.8614 74.3599 13.1817 74.291 13.3814L74.1876 13.681H63.3859C63.5237 15.1454 63.9889 16.1814 64.7813 16.7888C65.5853 17.3879 66.7568 17.6875 68.2958 17.6875C69.0308 17.6875 69.7429 17.6251 70.432 17.5002C71.1326 17.3754 71.6494 17.2548 71.9825 17.1383L72.4648 16.9511C73.1769 17.4087 73.5502 18.0203 73.5846 18.7858C73.5273 18.8108 73.4468 18.8482 73.3434 18.8982C73.2401 18.9481 72.9989 19.0355 72.6199 19.1603C72.2524 19.2851 71.8619 19.3932 71.4484 19.4848C71.0349 19.5763 70.4894 19.6595 69.8118 19.7344C69.1342 19.8176 68.4394 19.8592 67.7273 19.8592C62.4096 19.8592 59.7509 17.5086 59.7509 12.8073ZM63.3859 11.8587H70.9488C71.0177 11.4593 71.0522 11.0765 71.0522 10.7104C71.0522 9.87836 70.7823 9.2085 70.2425 8.70094C69.7027 8.18506 68.8184 7.92709 67.5894 7.92709C65.0398 7.92709 63.6386 9.23764 63.3859 11.8587ZM77.5298 15.5906C77.5298 14.2177 78.0983 13.2067 79.2353 12.5577C80.3724 11.9086 82.0606 11.5841 84.3002 11.5841C85.7703 11.5841 87.1141 11.634 88.3315 11.7339V10.7853C88.3315 9.87836 88.0501 9.19602 87.4874 8.73842C86.936 8.28076 86.0058 8.05193 84.6965 8.05193C83.9614 8.05193 83.1977 8.10602 82.4052 8.2142C81.6242 8.32232 81.0213 8.4305 80.5963 8.53868L79.9588 8.70094L79.9072 8.676C79.8842 8.65105 79.8498 8.63024 79.8038 8.61357C79.7694 8.58863 79.7234 8.55534 79.666 8.51373C79.6086 8.46378 79.5511 8.41389 79.4938 8.36394C79.4478 8.31404 79.3904 8.25162 79.3214 8.17673C79.264 8.09355 79.2066 8.01032 79.1492 7.92709C79.1147 7.86053 79.0802 7.79396 79.0458 7.7274C79.0228 7.66084 78.9999 7.59842 78.9769 7.54019C78.9654 7.48196 78.9539 7.42368 78.9424 7.36545C78.9309 7.29889 78.9252 7.2448 78.9252 7.20318C78.9252 7.15329 78.9252 7.10748 78.9252 7.06592C78.9252 7.0243 78.9252 6.99102 78.9252 6.96607C78.9367 6.93279 78.9424 6.90365 78.9424 6.8787V6.8537C79.0114 6.82876 79.109 6.79548 79.2353 6.75386C79.3732 6.71225 79.6545 6.6374 80.0794 6.52923C80.5159 6.41271 80.9581 6.31287 81.406 6.22964C81.8654 6.14646 82.4339 6.07157 83.1115 6.00499C83.7891 5.93842 84.4553 5.90514 85.1099 5.90514C87.5907 5.90514 89.3307 6.30454 90.3299 7.10334C91.3406 7.90214 91.8459 9.1586 91.8459 10.8727V19.4348C91.5933 19.5514 91.1396 19.6096 90.4849 19.6096C90.2208 19.6096 89.9681 19.5971 89.7269 19.5722C89.4972 19.5389 89.3307 19.5097 89.2273 19.4848L89.0723 19.4348L88.5382 17.7998C87.6194 19.1727 85.7703 19.8592 82.9909 19.8592C81.2912 19.8592 79.9531 19.4973 78.9769 18.7734C78.0121 18.0494 77.5298 16.9885 77.5298 15.5906ZM81.1648 15.5906C81.1648 17.13 82.187 17.8997 84.2313 17.8997C85.1272 17.8997 85.8909 17.7291 86.5226 17.3879C87.1543 17.0384 87.6137 16.6057 87.9008 16.0898C88.1879 15.5656 88.3315 14.9915 88.3315 14.3675V13.4688C86.7121 13.369 85.5234 13.319 84.7654 13.319C83.5595 13.319 82.6579 13.5021 82.0606 13.8682C81.4634 14.226 81.1648 14.8001 81.1648 15.5906ZM96.8592 19.4348V6.34201C97.2036 6.2255 97.7892 6.16727 98.6163 6.16727C98.9493 6.16727 99.2598 6.18389 99.547 6.21717C99.8455 6.24212 100.058 6.27126 100.184 6.30454L100.373 6.34201V7.51524C101.683 6.44185 103.463 5.90514 105.714 5.90514C107.448 5.90514 108.792 6.25878 109.746 6.96607C110.699 7.66498 111.175 8.6011 111.175 9.77433V19.4348C110.785 19.5514 110.199 19.6096 109.418 19.6096C109.062 19.6096 108.734 19.5971 108.436 19.5722C108.137 19.5389 107.931 19.5097 107.816 19.4848L107.644 19.4348V10.2237C107.644 8.72589 106.553 7.97704 104.37 7.97704C103.59 7.97704 102.843 8.12264 102.131 8.41389C101.419 8.70508 100.833 9.10451 100.373 9.61206V19.4348C99.9598 19.5514 99.3741 19.6096 98.6163 19.6096C98.2486 19.6096 97.9156 19.5971 97.6171 19.5722C97.3299 19.5389 97.1351 19.5097 97.0314 19.4848L96.8592 19.4348ZM121.615 2.3355C121.615 2.14412 121.638 1.9569 121.684 1.77384C121.742 1.58246 121.793 1.43684 121.839 1.33699L121.908 1.1997H138.808C138.992 1.51589 139.084 1.88617 139.084 2.31053C139.084 2.51023 139.061 2.70577 139.015 2.89715C138.969 3.08853 138.923 3.22999 138.877 3.32152L138.808 3.45881H132.244V19.4348C131.82 19.5514 131.217 19.6096 130.436 19.6096C130.057 19.6096 129.718 19.5971 129.42 19.5722C129.12 19.5389 128.914 19.5097 128.799 19.4848L128.644 19.4348V3.45881H121.908C121.713 3.16758 121.615 2.79314 121.615 2.3355ZM138.274 15.5906C138.274 14.2177 138.843 13.2067 139.98 12.5577C141.117 11.9086 142.805 11.5841 145.045 11.5841C146.515 11.5841 147.859 11.634 149.076 11.7339V10.7853C149.076 9.87836 148.795 9.19602 148.232 8.73842C147.68 8.28076 146.75 8.05193 145.441 8.05193C144.706 8.05193 143.943 8.10602 143.15 8.2142C142.369 8.32232 141.766 8.4305 141.341 8.53868L140.704 8.70094L140.651 8.676C140.629 8.65105 140.594 8.63024 140.548 8.61357C140.514 8.58863 140.468 8.55534 140.411 8.51373C140.353 8.46378 140.296 8.41389 140.239 8.36394C140.192 8.31404 140.135 8.25162 140.066 8.17673C140.009 8.09355 139.951 8.01032 139.894 7.92709C139.859 7.86053 139.825 7.79396 139.791 7.7274C139.767 7.66084 139.745 7.59842 139.721 7.54019C139.71 7.48196 139.699 7.42368 139.687 7.36545C139.676 7.29889 139.67 7.2448 139.67 7.20318C139.67 7.15329 139.67 7.10748 139.67 7.06592C139.67 7.0243 139.67 6.99102 139.67 6.96607C139.681 6.93279 139.687 6.90365 139.687 6.8787V6.8537C139.756 6.82876 139.853 6.79548 139.98 6.75386C140.118 6.71225 140.399 6.6374 140.824 6.52923C141.26 6.41271 141.703 6.31287 142.15 6.22964C142.61 6.14646 143.178 6.07157 143.856 6.00499C144.534 5.93842 145.2 5.90514 145.855 5.90514C148.335 5.90514 150.075 6.30454 151.074 7.10334C152.085 7.90214 152.59 9.1586 152.59 10.8727V19.4348C152.338 19.5514 151.884 19.6096 151.23 19.6096C150.965 19.6096 150.712 19.5971 150.471 19.5722C150.242 19.5389 150.075 19.5097 149.972 19.4848L149.817 19.4348L149.283 17.7998C148.364 19.1727 146.515 19.8592 143.736 19.8592C142.036 19.8592 140.698 19.4973 139.721 18.7734C138.757 18.0494 138.274 16.9885 138.274 15.5906ZM141.91 15.5906C141.91 17.13 142.931 17.8997 144.976 17.8997C145.872 17.8997 146.635 17.7291 147.267 17.3879C147.899 17.0384 148.358 16.6057 148.646 16.0898C148.933 15.5656 149.076 14.9915 149.076 14.3675V13.4688C147.457 13.369 146.268 13.319 145.51 13.319C144.304 13.319 143.403 13.5021 142.805 13.8682C142.208 14.226 141.91 14.8001 141.91 15.5906ZM155.622 19.4348L161.859 12.7324L156.001 6.34201C156.473 6.2255 157.121 6.16727 157.948 6.16727C158.327 6.16727 158.678 6.18389 158.999 6.21717C159.321 6.24212 159.551 6.27126 159.688 6.30454L159.895 6.34201L164.047 10.8727L168.251 6.34201C168.652 6.2255 169.215 6.16727 169.938 6.16727C170.295 6.16727 170.628 6.18389 170.938 6.21717C171.248 6.24212 171.466 6.27126 171.592 6.30454L171.782 6.34201L165.925 12.6325L172.196 19.4348C171.736 19.5514 171.093 19.6096 170.266 19.6096C169.887 19.6096 169.537 19.5971 169.215 19.5722C168.893 19.5389 168.664 19.5097 168.526 19.4848L168.319 19.4348L163.771 14.4922L159.189 19.4348C158.753 19.5514 158.173 19.6096 157.449 19.6096C157.104 19.6096 156.777 19.5971 156.467 19.5722C156.168 19.5389 155.95 19.5097 155.812 19.4848L155.622 19.4348ZM175.348 3.58362V1.17474C175.716 1.05825 176.324 1 177.174 1C177.53 1 177.858 1.01664 178.156 1.04993C178.466 1.07489 178.685 1.10401 178.811 1.13729L179 1.17474V3.58362C178.587 3.70012 177.979 3.75836 177.174 3.75836C176.795 3.75836 176.451 3.74588 176.14 3.72092C175.842 3.68763 175.635 3.65851 175.521 3.63355L175.348 3.58362ZM175.417 19.4348V6.34201C175.761 6.2255 176.347 6.16727 177.174 6.16727C177.519 6.16727 177.835 6.18389 178.122 6.21717C178.42 6.24212 178.633 6.27126 178.759 6.30454L178.932 6.34201V19.4348C178.541 19.5514 177.955 19.6096 177.174 19.6096C176.806 19.6096 176.473 19.5971 176.175 19.5722C175.888 19.5389 175.693 19.5097 175.589 19.4848L175.417 19.4348Z" fill="white"/>
<path d="M22.8838 12.8073C22.8838 10.4774 23.5786 8.7467 24.9683 7.61508C26.358 6.47514 28.276 5.90514 30.7223 5.90514C32.9275 5.90514 34.6445 6.34615 35.8734 7.22813C37.1023 8.10183 37.7168 9.37495 37.7168 11.0475C37.7168 11.5217 37.6823 11.9794 37.6134 12.4204C37.556 12.8614 37.4928 13.1817 37.4239 13.3814L37.3205 13.681H26.5188C26.6566 15.1454 27.1218 16.1814 27.9143 16.7888C28.7182 17.3879 29.8897 17.6875 31.4287 17.6875C32.1637 17.6875 32.8758 17.6251 33.5649 17.5002C34.2655 17.3754 34.7823 17.2548 35.1154 17.1383L35.5978 16.9511C36.3098 17.4087 36.6831 18.0203 36.7175 18.7858C36.6602 18.8108 36.5797 18.8482 36.4763 18.8982C36.373 18.9481 36.1319 19.0355 35.7528 19.1603C35.3853 19.2851 34.9948 19.3932 34.5813 19.4848C34.1679 19.5763 33.6223 19.6595 32.9447 19.7344C32.2671 19.8176 31.5723 19.8592 30.8602 19.8592C25.5426 19.8592 22.8838 17.5086 22.8838 12.8073ZM26.5188 11.8587H34.0817C34.1506 11.4593 34.1851 11.0765 34.1851 10.7104C34.1851 9.87836 33.9152 9.2085 33.3754 8.70094C32.8356 8.18506 31.9513 7.92709 30.7223 7.92709C28.1727 7.92709 26.7715 9.23764 26.5188 11.8587ZM40.2664 22.4428C40.2664 21.9852 40.3813 21.5525 40.611 21.1448C40.8407 20.7371 41.1393 20.3834 41.5068 20.0839C41.8744 19.7927 42.2074 19.5596 42.5061 19.3849C42.8046 19.2102 43.109 19.0562 43.4191 18.9231C42.9023 18.5487 42.6439 18.0536 42.6439 17.4379C42.6439 16.5059 43.2066 15.5615 44.3322 14.6046C42.1959 13.889 41.1278 12.5244 41.1278 10.5107C41.1278 9.0629 41.7193 7.93542 42.9023 7.12829C44.0967 6.31287 45.808 5.90514 48.0361 5.90514C49.6211 5.90514 50.9246 6.10066 51.9468 6.49175L56.8911 5.90514C57.0519 6.17141 57.1323 6.50423 57.1323 6.90365C57.1323 7.30303 57.0519 7.64422 56.8911 7.92709L53.9624 7.82725C54.617 8.51787 54.9444 9.41238 54.9444 10.5107C54.9444 11.9586 54.3529 13.0902 53.17 13.9057C51.9869 14.7127 50.2757 15.1163 48.0361 15.1163C47.5422 15.1163 47.0254 15.0872 46.4856 15.0289C46.0262 15.4783 45.7965 15.9234 45.7965 16.3644C45.7965 16.4144 45.8023 16.4643 45.8138 16.5142C45.8597 16.7888 46.055 17.0176 46.3995 17.2007C46.744 17.3754 47.1805 17.4961 47.7088 17.5627C48.2371 17.6292 48.8286 17.6999 49.4833 17.7748C50.1379 17.8497 50.804 17.9163 51.4816 17.9746C52.1593 18.0328 52.8196 18.1493 53.4628 18.324C54.106 18.4904 54.6802 18.6985 55.1856 18.9481C55.6909 19.1894 56.0929 19.5389 56.3915 19.9965C56.7016 20.4541 56.8567 20.9992 56.8567 21.6316C56.8567 22.913 56.0469 23.9614 54.4276 24.7768C52.8082 25.5923 50.5973 26 47.7949 26C45.2567 26 43.3674 25.6755 42.1271 25.0265C40.8866 24.3857 40.2664 23.5246 40.2664 22.4428ZM43.6947 21.9311C43.6947 22.6051 44.0451 23.1501 44.7456 23.5662C45.4577 23.9822 46.5086 24.1902 47.8983 24.1902C49.6785 24.1902 51.0567 23.978 52.0329 23.5536C53.0091 23.1376 53.4972 22.5801 53.4972 21.8812C53.4972 21.4818 53.3193 21.1572 52.9632 20.9077C52.6186 20.6664 52.1305 20.4874 51.4989 20.371C50.8787 20.2628 50.2413 20.1796 49.5866 20.1213C48.9319 20.063 48.1912 19.9923 47.3642 19.9091C46.5373 19.8259 45.8539 19.7261 45.3142 19.6096C44.8432 19.8842 44.4528 20.2253 44.1427 20.6331C43.844 21.0491 43.6947 21.4818 43.6947 21.9311ZM45.4175 8.41389C44.7859 8.87982 44.47 9.57878 44.47 10.5107C44.47 11.4427 44.7859 12.1416 45.4175 12.6076C46.0607 13.0652 46.9336 13.2941 48.0361 13.2941C49.1387 13.2941 50.0001 13.0652 50.6203 12.6076C51.2519 12.1416 51.5678 11.4427 51.5678 10.5107C51.5678 9.57878 51.2519 8.87982 50.6203 8.41389C50.0001 7.93961 49.1387 7.70245 48.0361 7.70245C46.9336 7.70245 46.0607 7.93961 45.4175 8.41389ZM59.7509 12.8073C59.7509 10.4774 60.4457 8.7467 61.8354 7.61508C63.2251 6.47514 65.1431 5.90514 67.5894 5.90514C69.7946 5.90514 71.5116 6.34615 72.7405 7.22813C73.9694 8.10183 74.5838 9.37495 74.5838 11.0475C74.5838 11.5217 74.5494 11.9794 74.4805 12.4204C74.4231 12.8614 74.3599 13.1817 74.291 13.3814L74.1876 13.681H63.3859C63.5237 15.1454 63.9889 16.1814 64.7813 16.7888C65.5853 17.3879 66.7568 17.6875 68.2958 17.6875C69.0308 17.6875 69.7429 17.6251 70.432 17.5002C71.1326 17.3754 71.6494 17.2548 71.9825 17.1383L72.4648 16.9511C73.1769 17.4087 73.5502 18.0203 73.5846 18.7858C73.5273 18.8108 73.4468 18.8482 73.3434 18.8982C73.2401 18.9481 72.9989 19.0355 72.6199 19.1603C72.2524 19.2851 71.8619 19.3932 71.4484 19.4848C71.0349 19.5763 70.4894 19.6595 69.8118 19.7344C69.1342 19.8176 68.4394 19.8592 67.7273 19.8592C62.4096 19.8592 59.7509 17.5086 59.7509 12.8073ZM63.3859 11.8587H70.9488C71.0177 11.4593 71.0522 11.0765 71.0522 10.7104C71.0522 9.87836 70.7823 9.2085 70.2425 8.70094C69.7027 8.18506 68.8184 7.92709 67.5894 7.92709C65.0398 7.92709 63.6386 9.23764 63.3859 11.8587ZM77.5298 15.5906C77.5298 14.2177 78.0983 13.2067 79.2353 12.5577C80.3724 11.9086 82.0606 11.5841 84.3002 11.5841C85.7703 11.5841 87.1141 11.634 88.3315 11.7339V10.7853C88.3315 9.87836 88.0501 9.19602 87.4874 8.73842C86.936 8.28076 86.0058 8.05193 84.6965 8.05193C83.9614 8.05193 83.1977 8.10602 82.4052 8.2142C81.6242 8.32232 81.0213 8.4305 80.5963 8.53868L79.9588 8.70094L79.9072 8.676C79.8842 8.65105 79.8498 8.63024 79.8038 8.61357C79.7694 8.58863 79.7234 8.55534 79.666 8.51373C79.6086 8.46378 79.5511 8.41389 79.4938 8.36394C79.4478 8.31404 79.3904 8.25162 79.3214 8.17673C79.264 8.09355 79.2066 8.01032 79.1492 7.92709C79.1147 7.86053 79.0802 7.79396 79.0458 7.7274C79.0228 7.66084 78.9999 7.59842 78.9769 7.54019C78.9654 7.48196 78.9539 7.42368 78.9424 7.36545C78.9309 7.29889 78.9252 7.2448 78.9252 7.20318C78.9252 7.15329 78.9252 7.10748 78.9252 7.06592C78.9252 7.0243 78.9252 6.99102 78.9252 6.96607C78.9367 6.93279 78.9424 6.90365 78.9424 6.8787V6.8537C79.0114 6.82876 79.109 6.79548 79.2353 6.75386C79.3732 6.71225 79.6545 6.6374 80.0794 6.52923C80.5159 6.41271 80.9581 6.31287 81.406 6.22964C81.8654 6.14646 82.4339 6.07157 83.1115 6.00499C83.7891 5.93842 84.4553 5.90514 85.1099 5.90514C87.5907 5.90514 89.3307 6.30454 90.3299 7.10334C91.3406 7.90214 91.8459 9.1586 91.8459 10.8727V19.4348C91.5933 19.5514 91.1396 19.6096 90.4849 19.6096C90.2208 19.6096 89.9681 19.5971 89.7269 19.5722C89.4972 19.5389 89.3307 19.5097 89.2273 19.4848L89.0723 19.4348L88.5382 17.7998C87.6194 19.1727 85.7703 19.8592 82.9909 19.8592C81.2912 19.8592 79.9531 19.4973 78.9769 18.7734C78.0121 18.0494 77.5298 16.9885 77.5298 15.5906ZM81.1648 15.5906C81.1648 17.13 82.187 17.8997 84.2313 17.8997C85.1272 17.8997 85.8909 17.7291 86.5226 17.3879C87.1543 17.0384 87.6137 16.6057 87.9008 16.0898C88.1879 15.5656 88.3315 14.9915 88.3315 14.3675V13.4688C86.7121 13.369 85.5234 13.319 84.7654 13.319C83.5595 13.319 82.6579 13.5021 82.0606 13.8682C81.4634 14.226 81.1648 14.8001 81.1648 15.5906ZM96.8592 19.4348V6.34201C97.2036 6.2255 97.7892 6.16727 98.6163 6.16727C98.9493 6.16727 99.2598 6.18389 99.547 6.21717C99.8455 6.24212 100.058 6.27126 100.184 6.30454L100.373 6.34201V7.51524C101.683 6.44185 103.463 5.90514 105.714 5.90514C107.448 5.90514 108.792 6.25878 109.746 6.96607C110.699 7.66498 111.175 8.6011 111.175 9.77433V19.4348C110.785 19.5514 110.199 19.6096 109.418 19.6096C109.062 19.6096 108.734 19.5971 108.436 19.5722C108.137 19.5389 107.931 19.5097 107.816 19.4848L107.644 19.4348V10.2237C107.644 8.72589 106.553 7.97704 104.37 7.97704C103.59 7.97704 102.843 8.12264 102.131 8.41389C101.419 8.70508 100.833 9.10451 100.373 9.61206V19.4348C99.9598 19.5514 99.3741 19.6096 98.6163 19.6096C98.2486 19.6096 97.9156 19.5971 97.6171 19.5722C97.3299 19.5389 97.1351 19.5097 97.0314 19.4848L96.8592 19.4348ZM121.615 2.3355C121.615 2.14412 121.638 1.9569 121.684 1.77384C121.742 1.58246 121.793 1.43684 121.839 1.33699L121.908 1.1997H138.808C138.992 1.51589 139.084 1.88617 139.084 2.31053C139.084 2.51023 139.061 2.70577 139.015 2.89715C138.969 3.08853 138.923 3.22999 138.877 3.32152L138.808 3.45881H132.244V19.4348C131.82 19.5514 131.217 19.6096 130.436 19.6096C130.057 19.6096 129.718 19.5971 129.42 19.5722C129.12 19.5389 128.914 19.5097 128.799 19.4848L128.644 19.4348V3.45881H121.908C121.713 3.16758 121.615 2.79314 121.615 2.3355ZM138.274 15.5906C138.274 14.2177 138.843 13.2067 139.98 12.5577C141.117 11.9086 142.805 11.5841 145.045 11.5841C146.515 11.5841 147.859 11.634 149.076 11.7339V10.7853C149.076 9.87836 148.795 9.19602 148.232 8.73842C147.68 8.28076 146.75 8.05193 145.441 8.05193C144.706 8.05193 143.943 8.10602 143.15 8.2142C142.369 8.32232 141.766 8.4305 141.341 8.53868L140.704 8.70094L140.651 8.676C140.629 8.65105 140.594 8.63024 140.548 8.61357C140.514 8.58863 140.468 8.55534 140.411 8.51373C140.353 8.46378 140.296 8.41389 140.239 8.36394C140.192 8.31404 140.135 8.25162 140.066 8.17673C140.009 8.09355 139.951 8.01032 139.894 7.92709C139.859 7.86053 139.825 7.79396 139.791 7.7274C139.767 7.66084 139.745 7.59842 139.721 7.54019C139.71 7.48196 139.699 7.42368 139.687 7.36545C139.676 7.29889 139.67 7.2448 139.67 7.20318C139.67 7.15329 139.67 7.10748 139.67 7.06592C139.67 7.0243 139.67 6.99102 139.67 6.96607C139.681 6.93279 139.687 6.90365 139.687 6.8787V6.8537C139.756 6.82876 139.853 6.79548 139.98 6.75386C140.118 6.71225 140.399 6.6374 140.824 6.52923C141.26 6.41271 141.703 6.31287 142.15 6.22964C142.61 6.14646 143.178 6.07157 143.856 6.00499C144.534 5.93842 145.2 5.90514 145.855 5.90514C148.335 5.90514 150.075 6.30454 151.074 7.10334C152.085 7.90214 152.59 9.1586 152.59 10.8727V19.4348C152.338 19.5514 151.884 19.6096 151.23 19.6096C150.965 19.6096 150.712 19.5971 150.471 19.5722C150.242 19.5389 150.075 19.5097 149.972 19.4848L149.817 19.4348L149.283 17.7998C148.364 19.1727 146.515 19.8592 143.736 19.8592C142.036 19.8592 140.698 19.4973 139.721 18.7734C138.757 18.0494 138.274 16.9885 138.274 15.5906ZM141.91 15.5906C141.91 17.13 142.931 17.8997 144.976 17.8997C145.872 17.8997 146.635 17.7291 147.267 17.3879C147.899 17.0384 148.358 16.6057 148.646 16.0898C148.933 15.5656 149.076 14.9915 149.076 14.3675V13.4688C147.457 13.369 146.268 13.319 145.51 13.319C144.304 13.319 143.403 13.5021 142.805 13.8682C142.208 14.226 141.91 14.8001 141.91 15.5906ZM155.622 19.4348L161.859 12.7324L156.001 6.34201C156.473 6.2255 157.121 6.16727 157.948 6.16727C158.327 6.16727 158.678 6.18389 158.999 6.21717C159.321 6.24212 159.551 6.27126 159.688 6.30454L159.895 6.34201L164.047 10.8727L168.251 6.34201C168.652 6.2255 169.215 6.16727 169.938 6.16727C170.295 6.16727 170.628 6.18389 170.938 6.21717C171.248 6.24212 171.466 6.27126 171.592 6.30454L171.782 6.34201L165.925 12.6325L172.196 19.4348C171.736 19.5514 171.093 19.6096 170.266 19.6096C169.887 19.6096 169.537 19.5971 169.215 19.5722C168.893 19.5389 168.664 19.5097 168.526 19.4848L168.319 19.4348L163.771 14.4922L159.189 19.4348C158.753 19.5514 158.173 19.6096 157.449 19.6096C157.104 19.6096 156.777 19.5971 156.467 19.5722C156.168 19.5389 155.95 19.5097 155.812 19.4848L155.622 19.4348ZM175.348 3.58362V1.17474C175.716 1.05825 176.324 1 177.174 1C177.53 1 177.858 1.01664 178.156 1.04993C178.466 1.07489 178.685 1.10401 178.811 1.13729L179 1.17474V3.58362C178.587 3.70012 177.979 3.75836 177.174 3.75836C176.795 3.75836 176.451 3.74588 176.14 3.72092C175.842 3.68763 175.635 3.65851 175.521 3.63355L175.348 3.58362ZM175.417 19.4348V6.34201C175.761 6.2255 176.347 6.16727 177.174 6.16727C177.519 6.16727 177.835 6.18389 178.122 6.21717C178.42 6.24212 178.633 6.27126 178.759 6.30454L178.932 6.34201V19.4348C178.541 19.5514 177.955 19.6096 177.174 19.6096C176.806 19.6096 176.473 19.5971 176.175 19.5722C175.888 19.5389 175.693 19.5097 175.589 19.4848L175.417 19.4348Z" stroke="white" stroke-width="0.6" mask="url(#path-1-outside-1_2109_2580)"/>
<path d="M11.327 0.937071L11.1908 0.642455L11.0547 0.937071L0.863839 22.9872L0.676207 23.3932L1.07068 23.1824L11.1908 17.7757L21.311 23.1824L21.7055 23.3932L21.5178 22.9872L11.327 0.937071Z" fill="white" stroke="white" stroke-width="0.3"/>
</svg>
