<svg width="105" height="36" viewBox="0 0 105 36" fill="none" xmlns="http://www.w3.org/2000/svg">
<g clip-path="url(#clip0_2109_2631)">
<path d="M96.6385 0.000114069H8.36627C8.0445 0.000114069 7.7266 0.000114069 7.40569 0.00186898C7.13705 0.0036239 6.87056 0.00872192 6.59935 0.0130127C6.01015 0.0199462 5.42234 0.0717814 4.84101 0.168068C4.26051 0.266451 3.69819 0.45193 3.17308 0.718233C2.6486 0.986789 2.16937 1.33575 1.75278 1.75246C1.334 2.16799 0.984912 2.64829 0.718944 3.17489C0.452241 3.70044 0.267309 4.26362 0.170534 4.84497C0.0728385 5.42559 0.0202678 6.0129 0.0132935 6.60164C0.00515067 6.87067 0.00429076 7.14059 0 7.40965V27.6914C0.00429076 27.9639 0.00515067 28.2278 0.0132935 28.5003C0.02027 29.089 0.0728406 29.6763 0.170534 30.2569C0.267042 30.8386 0.451985 31.4021 0.718944 31.9279C0.984792 32.4528 1.33393 32.9311 1.75278 33.3443C2.1678 33.7629 2.64733 34.1121 3.17308 34.3786C3.69819 34.6456 4.26045 34.8322 4.84101 34.9321C5.42243 35.0276 6.01019 35.0795 6.59935 35.0872C6.87056 35.0932 7.13705 35.0966 7.40569 35.0966C7.72659 35.0984 8.04452 35.0984 8.36627 35.0984H96.6385C96.9538 35.0984 97.2743 35.0984 97.5896 35.0966C97.857 35.0966 98.1312 35.0932 98.3985 35.0872C98.9866 35.0799 99.5732 35.028 100.153 34.9321C100.736 34.8315 101.3 34.645 101.828 34.3786C102.353 34.1119 102.832 33.7627 103.247 33.3443C103.665 32.9295 104.014 32.4515 104.284 31.9279C104.549 31.4017 104.732 30.8383 104.827 30.2569C104.925 29.6762 104.979 29.0891 104.99 28.5003C104.993 28.2278 104.993 27.9639 104.993 27.6914C105 27.3726 105 27.0556 105 26.7316V8.36765C105 8.04632 105 7.72756 104.993 7.40965C104.993 7.14059 104.993 6.87067 104.99 6.6016C104.979 6.01282 104.925 5.42563 104.827 4.84494C104.732 4.26392 104.548 3.70079 104.284 3.17486C103.742 2.11934 102.883 1.26016 101.828 0.718154C101.3 0.452502 100.736 0.267072 100.153 0.167989C99.5733 0.0712782 98.9866 0.0194249 98.3985 0.0128898C98.1312 0.00860785 97.857 0.00346595 97.5896 0.00175491C97.2743 0 96.9538 0.000114069 96.6385 0.000114069Z" fill="black"/>
<path d="M7.41005 34.3303C7.14271 34.3303 6.88183 34.3269 6.61658 34.3209C6.0671 34.3137 5.51891 34.2659 4.97649 34.1778C4.47072 34.0907 3.98076 33.9286 3.52277 33.697C3.06899 33.4673 2.6551 33.1661 2.29697 32.805C1.93365 32.4481 1.63117 32.0342 1.40151 31.5796C1.16933 31.1221 1.00864 30.6317 0.925056 30.1255C0.834787 29.5816 0.785948 29.0316 0.778959 28.4803C0.773396 28.2952 0.766113 27.6791 0.766113 27.6791V7.40934C0.766113 7.40934 0.77387 6.80266 0.779003 6.62442C0.785694 6.07398 0.83425 5.52484 0.924249 4.98176C1.00799 4.47417 1.1688 3.98236 1.40111 3.52334C1.62992 3.0691 1.93072 2.65486 2.29185 2.2967C2.65258 1.93514 3.06779 1.6324 3.52234 1.39953C3.97927 1.16866 4.46831 1.00777 4.97306 0.922247C5.51726 0.833244 6.06735 0.785124 6.61874 0.778292L7.41048 0.767578H97.5854L98.3866 0.778722C98.933 0.785214 99.4781 0.832905 100.017 0.921387C100.527 1.00798 101.021 1.16999 101.483 1.4021C102.394 1.87141 103.135 2.61389 103.602 3.52549C103.831 3.98133 103.989 4.46913 104.072 4.97234C104.163 5.51987 104.214 6.07333 104.225 6.62828C104.227 6.87678 104.227 7.1437 104.227 7.40934C104.234 7.73839 104.234 8.05158 104.234 8.36734V26.7313C104.234 27.0501 104.234 27.3612 104.227 27.6748C104.227 27.9601 104.227 28.2215 104.224 28.4905C104.213 29.0356 104.163 29.5792 104.074 30.1169C103.992 30.6268 103.832 31.121 103.6 31.5823C103.369 32.0319 103.068 32.4422 102.709 32.7982C102.35 33.1612 101.936 33.4642 101.481 33.6954C101.02 33.9288 100.527 34.0914 100.017 34.1778C99.4749 34.2664 98.9267 34.3142 98.3771 34.3209C98.1201 34.3269 97.851 34.3303 97.5897 34.3303L96.6385 34.332L7.41005 34.3303Z" fill="white"/>
<path d="M21.9336 17.452C21.9435 16.6904 22.1457 15.9437 22.5217 15.2812C22.8977 14.6188 23.4351 14.0623 24.0839 13.6634C23.6717 13.0747 23.1279 12.5902 22.4958 12.2485C21.8636 11.9067 21.1604 11.7171 20.4421 11.6946C18.9099 11.5337 17.4244 12.6115 16.6436 12.6115C15.8477 12.6115 14.6455 11.7106 13.351 11.7372C12.5136 11.7642 11.6976 12.0077 10.9823 12.4439C10.2671 12.8802 9.677 13.4942 9.26962 14.2263C7.50496 17.2816 8.82124 21.7719 10.5117 24.2416C11.3574 25.4509 12.3459 26.8017 13.6393 26.7538C14.9049 26.7013 15.3776 25.9468 16.9053 25.9468C18.4189 25.9468 18.8624 26.7538 20.182 26.7234C21.5401 26.7013 22.3957 25.5087 23.2118 24.2879C23.8195 23.4262 24.2871 22.4738 24.5973 21.4661C23.8083 21.1324 23.135 20.5738 22.6613 19.86C22.1876 19.1461 21.9346 18.3087 21.9336 17.452Z" fill="black"/>
<path d="M19.4411 10.0703C20.1816 9.1814 20.5464 8.03882 20.4581 6.88525C19.3268 7.00407 18.2818 7.54476 17.5313 8.39959C17.1643 8.81719 16.8833 9.30302 16.7042 9.8293C16.5252 10.3556 16.4516 10.912 16.4877 11.4667C17.0535 11.4726 17.6133 11.3499 18.1249 11.108C18.6365 10.8661 19.0865 10.5113 19.4411 10.0703Z" fill="black"/>
<path d="M37.118 23.8139H32.9646L31.9672 26.759H30.208L34.142 15.8628H35.9697L39.9037 26.759H38.1145L37.118 23.8139ZM33.3948 22.4549H36.687L35.064 17.6751H35.0186L33.3948 22.4549Z" fill="black"/>
<path d="M48.3998 22.7876C48.3998 25.2563 47.0784 26.8424 45.0844 26.8424C44.5793 26.8688 44.077 26.7525 43.6349 26.5067C43.1929 26.2609 42.829 25.8955 42.5849 25.4525H42.5472V29.3874H40.9165V18.8151H42.4949V20.1364H42.5249C42.7802 19.6955 43.1502 19.3321 43.5957 19.0847C44.0411 18.8374 44.5452 18.7155 45.0544 18.7319C47.0707 18.7319 48.3998 20.3258 48.3998 22.7876ZM46.7237 22.7876C46.7237 21.1792 45.8925 20.1218 44.6243 20.1218C43.3784 20.1218 42.5403 21.2015 42.5403 22.7876C42.5403 24.3883 43.3784 25.4603 44.6243 25.4603C45.8925 25.4603 46.7237 24.4106 46.7237 22.7876Z" fill="black"/>
<path d="M57.1438 22.7876C57.1438 25.2563 55.8221 26.8424 53.8281 26.8424C53.323 26.8688 52.8206 26.7525 52.3786 26.5067C51.9365 26.2609 51.5726 25.8955 51.3285 25.4525H51.2908V29.3874H49.6602V18.8151H51.2385V20.1364H51.2685C51.5238 19.6955 51.8939 19.3321 52.3393 19.0847C52.7847 18.8374 53.2889 18.7155 53.7981 18.7319C55.8144 18.7319 57.1438 20.3258 57.1438 22.7876ZM55.4673 22.7876C55.4673 21.1792 54.6361 20.1218 53.368 20.1218C52.122 20.1218 51.284 21.2015 51.284 22.7876C51.284 24.3883 52.122 25.4603 53.368 25.4603C54.6361 25.4603 55.4673 24.4106 55.4673 22.7876Z" fill="black"/>
<path d="M62.9219 23.7231C63.0428 24.8037 64.0925 25.5131 65.5269 25.5131C66.9014 25.5131 67.8902 24.8036 67.8902 23.8293C67.8902 22.9836 67.2938 22.4772 65.8817 22.1301L64.4695 21.7899C62.4687 21.3066 61.5398 20.3709 61.5398 18.8525C61.5398 16.9725 63.1782 15.6812 65.5038 15.6812C67.8071 15.6812 69.3855 16.9725 69.4386 18.8525H67.7925C67.694 17.7651 66.7951 17.1087 65.4815 17.1087C64.1679 17.1087 63.269 17.7728 63.269 18.7394C63.269 19.5097 63.8431 19.963 65.2475 20.3101L66.448 20.6048C68.6837 21.1335 69.6117 22.0316 69.6117 23.6254C69.6117 25.6639 67.9887 26.9407 65.406 26.9407C62.9896 26.9407 61.3581 25.6939 61.2527 23.723L62.9219 23.7231Z" fill="black"/>
<path d="M73.1326 16.9351V18.8151H74.6433V20.1064H73.1326V24.486C73.1326 25.1664 73.4351 25.4834 74.0991 25.4834C74.2785 25.4803 74.4575 25.4677 74.6356 25.4457V26.7293C74.337 26.7851 74.0335 26.8103 73.7298 26.8047C72.1214 26.8047 71.4942 26.2006 71.4942 24.6599V20.1064H70.3391V18.8151H71.4942V16.9351H73.1326Z" fill="black"/>
<path d="M75.5173 22.7875C75.5173 20.288 76.9895 18.7173 79.2851 18.7173C81.5884 18.7173 83.0537 20.2879 83.0537 22.7875C83.0537 25.2939 81.5961 26.8577 79.2851 26.8577C76.9749 26.8577 75.5173 25.2939 75.5173 22.7875ZM81.3922 22.7875C81.3922 21.0729 80.6064 20.0609 79.2851 20.0609C77.9638 20.0609 77.178 21.0806 77.178 22.7875C77.178 24.509 77.9638 25.5133 79.2851 25.5133C80.6064 25.5133 81.3922 24.509 81.3922 22.7875Z" fill="black"/>
<path d="M84.3982 18.815H85.9535V20.1671H85.9912C86.0964 19.7448 86.3438 19.3716 86.6918 19.1102C87.0398 18.8489 87.4672 18.7152 87.9021 18.7318C88.09 18.7312 88.2774 18.7516 88.4607 18.7927V20.318C88.2235 20.2455 87.976 20.2122 87.7281 20.2194C87.4912 20.2098 87.255 20.2516 87.0358 20.3419C86.8166 20.4321 86.6195 20.5688 86.458 20.7424C86.2966 20.9161 86.1747 21.1226 86.1006 21.3478C86.0265 21.573 86.002 21.8116 86.0289 22.0472V26.7592H84.3982L84.3982 18.815Z" fill="black"/>
<path d="M95.9792 24.4259C95.7598 25.868 94.3554 26.8577 92.5585 26.8577C90.2474 26.8577 88.813 25.3093 88.813 22.8252C88.813 20.3334 90.2551 18.7173 92.4899 18.7173C94.6878 18.7173 96.07 20.2271 96.07 22.6358V23.1945H90.4591V23.2931C90.4332 23.5854 90.4698 23.88 90.5665 24.1571C90.6631 24.4343 90.8177 24.6876 91.0198 24.9005C91.2219 25.1133 91.467 25.2807 91.7388 25.3915C92.0106 25.5023 92.3029 25.5541 92.5962 25.5433C92.9815 25.5794 93.3682 25.4901 93.6988 25.2888C94.0293 25.0875 94.286 24.7848 94.4308 24.4259L95.9792 24.4259ZM90.4668 22.0549H94.4385C94.4531 21.792 94.4133 21.5289 94.3214 21.2822C94.2296 21.0354 94.0877 20.8103 93.9047 20.621C93.7218 20.4317 93.5016 20.2822 93.2582 20.182C93.0147 20.0818 92.7531 20.033 92.4899 20.0386C92.2244 20.037 91.9611 20.088 91.7154 20.1887C91.4697 20.2894 91.2463 20.4378 91.0582 20.6252C90.8701 20.8127 90.721 21.0355 90.6195 21.2809C90.518 21.5263 90.4661 21.7893 90.4668 22.0549Z" fill="black"/>
<path d="M33.1907 7.66121C33.5326 7.63668 33.8756 7.68833 34.1951 7.81243C34.5146 7.93653 34.8026 8.12999 35.0383 8.37886C35.2739 8.62773 35.4514 8.9258 35.558 9.25157C35.6645 9.57735 35.6974 9.9227 35.6543 10.2627C35.6543 11.9354 34.7503 12.8969 33.1907 12.8969H31.2996V7.66121H33.1907ZM32.1127 12.1564H33.0999C33.3442 12.171 33.5886 12.131 33.8155 12.0392C34.0424 11.9474 34.2459 11.8062 34.4113 11.6258C34.5767 11.4454 34.6998 11.2304 34.7716 10.9965C34.8434 10.7625 34.8622 10.5155 34.8265 10.2734C34.8596 10.0322 34.8389 9.78676 34.766 9.55453C34.6931 9.3223 34.5697 9.10907 34.4047 8.93013C34.2396 8.75119 34.0371 8.61097 33.8115 8.51951C33.5859 8.42804 33.3429 8.38761 33.0999 8.40109H32.1127V12.1564Z" fill="black"/>
<path d="M36.5728 10.9197C36.5479 10.66 36.5776 10.3981 36.66 10.1506C36.7423 9.90306 36.8755 9.67549 37.0509 9.48247C37.2264 9.28945 37.4402 9.13522 37.6788 9.02968C37.9173 8.92415 38.1752 8.86963 38.4361 8.86963C38.6969 8.86963 38.9549 8.92415 39.1934 9.02968C39.432 9.13522 39.6458 9.28945 39.8213 9.48247C39.9967 9.67549 40.1299 9.90306 40.2122 10.1506C40.2945 10.3981 40.3242 10.66 40.2994 10.9197C40.3247 11.1796 40.2954 11.442 40.2132 11.6899C40.1311 11.9378 39.998 12.1657 39.8225 12.3592C39.6471 12.5526 39.4331 12.7071 39.1943 12.8129C38.9555 12.9186 38.6972 12.9733 38.4361 12.9733C38.1749 12.9733 37.9167 12.9186 37.6779 12.8129C37.4391 12.7071 37.2251 12.5526 37.0496 12.3592C36.8741 12.1657 36.7411 11.9378 36.6589 11.6899C36.5768 11.442 36.5475 11.1796 36.5728 10.9197ZM39.4973 10.9197C39.4973 10.0632 39.1126 9.56239 38.4374 9.56239C37.7596 9.56239 37.3783 10.0632 37.3783 10.9197C37.3783 11.783 37.7596 12.28 38.4374 12.28C39.1126 12.28 39.4973 11.7796 39.4973 10.9197Z" fill="black"/>
<path d="M45.2533 12.8969H44.4444L43.6277 9.98692H43.566L42.7529 12.8969H41.9517L40.8625 8.9458H41.6535L42.3613 11.9607H42.4195L43.2319 8.9458H43.9799L44.7923 11.9607H44.854L45.5583 8.9458H46.3381L45.2533 12.8969Z" fill="black"/>
<path d="M47.2539 8.94588H48.0045V9.57355H48.0628C48.1617 9.34811 48.3284 9.15914 48.5397 9.03295C48.7511 8.90677 48.9965 8.84967 49.2419 8.86961C49.4341 8.85516 49.6272 8.88415 49.8067 8.95443C49.9862 9.02471 50.1476 9.13448 50.279 9.27561C50.4103 9.41675 50.5082 9.58562 50.5654 9.76973C50.6227 9.95384 50.6377 10.1485 50.6095 10.3392V12.897H49.8297V10.535C49.8297 9.90004 49.5538 9.58427 48.9771 9.58427C48.8466 9.57819 48.7163 9.6004 48.5951 9.64939C48.474 9.69838 48.3649 9.77298 48.2753 9.86809C48.1857 9.96319 48.1177 10.0765 48.076 10.2004C48.0343 10.3242 48.0198 10.4556 48.0337 10.5855V12.897H47.2539L47.2539 8.94588Z" fill="black"/>
<path d="M51.8521 7.40332H52.6318V12.8968H51.8521V7.40332Z" fill="black"/>
<path d="M53.7158 10.9198C53.691 10.6601 53.7207 10.3981 53.8031 10.1506C53.8854 9.90308 54.0186 9.67551 54.1941 9.48248C54.3695 9.28945 54.5834 9.13522 54.822 9.02968C55.0605 8.92415 55.3185 8.86963 55.5794 8.86963C55.8402 8.86963 56.0982 8.92415 56.3367 9.02968C56.5753 9.13522 56.7892 9.28945 56.9646 9.48248C57.1401 9.67551 57.2732 9.90308 57.3556 10.1506C57.438 10.3981 57.4677 10.6601 57.4429 10.9198C57.4682 11.1797 57.4388 11.4421 57.3566 11.69C57.2745 11.9379 57.1414 12.1658 56.9659 12.3592C56.7904 12.5526 56.5763 12.7072 56.3376 12.8129C56.0988 12.9187 55.8405 12.9733 55.5794 12.9733C55.3182 12.9733 55.0599 12.9187 54.8211 12.8129C54.5823 12.7072 54.3683 12.5526 54.1928 12.3592C54.0173 12.1658 53.8842 11.9379 53.8021 11.69C53.7199 11.4421 53.6905 11.1797 53.7158 10.9198ZM56.6404 10.9198C56.6404 10.0633 56.2556 9.56246 55.5804 9.56246C54.9026 9.56246 54.5213 10.0633 54.5213 10.9198C54.5213 11.7831 54.9026 12.2801 55.5804 12.2801C56.2556 12.2801 56.6404 11.7797 56.6404 10.9198Z" fill="black"/>
<path d="M58.2637 11.7796C58.2637 11.0684 58.7932 10.6584 59.7332 10.6001L60.8035 10.5384V10.1974C60.8035 9.78007 60.5276 9.54443 59.9946 9.54443C59.5593 9.54443 59.2577 9.70424 59.1711 9.98359H58.4162C58.4959 9.30493 59.1343 8.86963 60.0306 8.86963C61.0212 8.86963 61.5798 9.36276 61.5798 10.1974V12.897H60.8292V12.3418H60.7675C60.6423 12.5409 60.4664 12.7033 60.2579 12.8123C60.0494 12.9213 59.8157 12.973 59.5807 12.9621C59.4148 12.9794 59.2472 12.9617 59.0886 12.9102C58.93 12.8587 58.7839 12.7745 58.6598 12.6631C58.5357 12.5517 58.4364 12.4155 58.3682 12.2633C58.2999 12.1112 58.2643 11.9464 58.2637 11.7796ZM60.8035 11.442V11.1117L59.8386 11.1734C59.2945 11.2098 59.0477 11.3949 59.0477 11.7432C59.0477 12.0988 59.3562 12.3057 59.7804 12.3057C59.9047 12.3183 60.0302 12.3058 60.1496 12.2688C60.2689 12.2319 60.3796 12.1714 60.4751 12.0908C60.5705 12.0102 60.6488 11.9112 60.7052 11.7998C60.7616 11.6883 60.7951 11.5666 60.8035 11.442Z" fill="black"/>
<path d="M62.6047 10.9196C62.6047 9.6711 63.2466 8.88018 64.2448 8.88018C64.4918 8.86881 64.7368 8.92795 64.9514 9.0507C65.1659 9.17345 65.3411 9.35474 65.4565 9.57337H65.5147V7.40332H66.2945V12.8968H65.5473V12.2726H65.4856C65.3614 12.4898 65.1801 12.6688 64.9614 12.7903C64.7426 12.9118 64.4949 12.9712 64.2448 12.962C63.2397 12.962 62.6047 12.1711 62.6047 10.9196ZM63.4102 10.9196C63.4102 11.7576 63.8053 12.2619 64.4659 12.2619C65.1232 12.2619 65.5293 11.7504 65.5293 10.923C65.5293 10.0995 65.1189 9.58069 64.4659 9.58069C63.8095 9.58069 63.4102 10.0884 63.4102 10.9196Z" fill="black"/>
<path d="M69.5208 10.9197C69.4959 10.66 69.5256 10.3981 69.608 10.1506C69.6903 9.90306 69.8235 9.67549 69.9989 9.48247C70.1744 9.28945 70.3882 9.13522 70.6267 9.02968C70.8653 8.92415 71.1232 8.86963 71.3841 8.86963C71.6449 8.86963 71.9029 8.92415 72.1414 9.02968C72.38 9.13522 72.5938 9.28945 72.7692 9.48247C72.9447 9.67549 73.0778 9.90306 73.1602 10.1506C73.2425 10.3981 73.2722 10.66 73.2474 10.9197C73.2727 11.1796 73.2434 11.442 73.1612 11.6899C73.0791 11.9378 72.946 12.1657 72.7705 12.3592C72.5951 12.5526 72.3811 12.7071 72.1423 12.8129C71.9035 12.9186 71.6452 12.9733 71.3841 12.9733C71.1229 12.9733 70.8647 12.9186 70.6259 12.8129C70.3871 12.7071 70.1731 12.5526 69.9976 12.3592C69.8221 12.1657 69.6891 11.9378 69.6069 11.6899C69.5248 11.442 69.4955 11.1796 69.5208 10.9197ZM72.4453 10.9197C72.4453 10.0632 72.0606 9.56239 71.3854 9.56239C70.7076 9.56239 70.3263 10.0632 70.3263 10.9197C70.3263 11.783 70.7076 12.28 71.3854 12.28C72.0606 12.28 72.4453 11.7796 72.4453 10.9197Z" fill="black"/>
<path d="M74.2937 8.94588H75.0443V9.57355H75.1026C75.2015 9.34811 75.3682 9.15914 75.5795 9.03295C75.7909 8.90677 76.0363 8.84967 76.2817 8.86961C76.4739 8.85516 76.667 8.88415 76.8465 8.95443C77.026 9.02471 77.1874 9.13448 77.3188 9.27561C77.4501 9.41675 77.548 9.58562 77.6052 9.76973C77.6625 9.95384 77.6775 10.1485 77.6493 10.3392V12.897H76.8695V10.535C76.8695 9.90004 76.5936 9.58427 76.0169 9.58427C75.8864 9.57819 75.7561 9.6004 75.6349 9.64939C75.5138 9.69838 75.4047 9.77298 75.3151 9.86809C75.2255 9.96319 75.1575 10.0765 75.1158 10.2004C75.0741 10.3242 75.0596 10.4556 75.0735 10.5855V12.897H74.2937V8.94588Z" fill="black"/>
<path d="M82.0553 7.96191V8.96362H82.9114V9.62043H82.0553V11.6521C82.0553 12.066 82.2259 12.2472 82.614 12.2472C82.7134 12.2469 82.8127 12.2409 82.9114 12.2292V12.8787C82.7713 12.9038 82.6295 12.9171 82.4872 12.9186C81.62 12.9186 81.2747 12.6135 81.2747 11.8518V9.62039H80.6475V8.96358H81.2747V7.96191H82.0553Z" fill="black"/>
<path d="M83.9766 7.40332H84.7495V9.58068H84.8112C84.9148 9.35314 85.0861 9.16309 85.3017 9.03643C85.5173 8.90978 85.7667 8.85267 86.0159 8.87289C86.2072 8.86249 86.3984 8.89442 86.5758 8.9664C86.7533 9.03839 86.9128 9.14866 87.0427 9.28935C87.1727 9.43004 87.27 9.59768 87.3277 9.78031C87.3855 9.96294 87.4022 10.1561 87.3767 10.3459V12.8969H86.5961V10.5383C86.5961 9.90715 86.3022 9.58753 85.7512 9.58753C85.6172 9.57654 85.4824 9.59496 85.3562 9.64151C85.2301 9.68807 85.1156 9.76162 85.0209 9.85703C84.9261 9.95245 84.8533 10.0674 84.8076 10.1939C84.762 10.3204 84.7445 10.4553 84.7564 10.5892V12.8968H83.9766L83.9766 7.40332Z" fill="black"/>
<path d="M91.9232 11.8303C91.8173 12.1914 91.5878 12.5037 91.2748 12.7127C90.9618 12.9217 90.5853 13.0139 90.2112 12.9733C89.9509 12.9802 89.6922 12.9304 89.4531 12.8272C89.214 12.7241 89.0002 12.5702 88.8265 12.3761C88.6528 12.1821 88.5235 11.9526 88.4474 11.7036C88.3714 11.4545 88.3504 11.1919 88.386 10.9339C88.3513 10.6752 88.3727 10.412 88.4485 10.1622C88.5244 9.91244 88.6531 9.68188 88.8259 9.48614C88.9986 9.2904 89.2114 9.13407 89.4498 9.02771C89.6882 8.92136 89.9467 8.86747 90.2077 8.8697C91.3071 8.8697 91.9704 9.6208 91.9704 10.8615V11.1336H89.1803V11.1773C89.1681 11.3223 89.1863 11.4683 89.2338 11.6058C89.2813 11.7433 89.357 11.8694 89.4561 11.976C89.5552 12.0826 89.6754 12.1673 89.8091 12.2247C89.9429 12.282 90.0871 12.3108 90.2326 12.3092C90.4191 12.3316 90.6081 12.298 90.7755 12.2127C90.9428 12.1274 91.0811 11.9943 91.1726 11.8302L91.9232 11.8303ZM89.1803 10.5569H91.176C91.1858 10.4243 91.1678 10.2911 91.1231 10.1659C91.0784 10.0406 91.008 9.92616 90.9164 9.82976C90.8248 9.73337 90.714 9.6572 90.5913 9.60615C90.4685 9.55511 90.3364 9.53031 90.2034 9.53336C90.0686 9.53166 89.9347 9.55699 89.8098 9.60783C89.6849 9.65867 89.5714 9.73401 89.4761 9.8294C89.3807 9.92479 89.3054 10.0383 89.2546 10.1633C89.2038 10.2882 89.1785 10.422 89.1803 10.5569Z" fill="black"/>
</g>
<defs>
<clipPath id="clip0_2109_2631">
<rect width="105" height="35.0983" fill="white"/>
</clipPath>
</defs>
</svg>
