<svg width="37" height="36" viewBox="0 0 37 36" fill="none" xmlns="http://www.w3.org/2000/svg">
<path fill-rule="evenodd" clip-rule="evenodd" d="M24 28.0455C24 25.2705 26.2536 23 29.0455 23C31.8373 23 34.0909 25.2705 34.0909 28.0455C34.0909 30.8205 31.8205 33.0909 29.0455 33.0909C26.2705 33.0909 24 30.8205 24 28.0455ZM29.0455 29.3068H31.4841C32.1905 29.3068 32.7455 28.735 32.7455 28.0455C32.7455 27.3559 32.1736 26.7841 31.4841 26.7841H30.3068V25.5227C30.3068 24.8332 29.735 24.2614 29.0455 24.2614C28.3559 24.2614 27.7841 24.8332 27.7841 25.5227V28.0455C27.7841 28.735 28.3559 29.3068 29.0455 29.3068Z" fill="black"/>
<path fill-rule="evenodd" clip-rule="evenodd" d="M25.2777 35.3014H6.74409C3.04409 35.3014 0.0168182 32.2909 0 28.5909V10.0909C0 6.37409 3.01045 3.36364 6.72727 3.36364V1.68182C6.72727 0.756818 7.48409 0 8.40909 0C9.33409 0 10.0909 0.756818 10.0909 1.68182V3.36364H16.8182V1.68182C16.8182 0.756818 17.575 0 18.5 0C19.425 0 20.1818 0.756818 20.1818 1.68182V3.36364H26.9091V1.68182C26.9091 0.756818 27.6659 0 28.5909 0C29.5159 0 30.2727 0.756818 30.2727 1.68182V3.36364C33.9895 3.36364 37 6.37409 37 10.0909V23.5959C36.1255 22.4186 34.9818 21.4768 33.6364 20.8882C32.6105 20.4341 31.4668 20.165 30.2727 20.165C25.6309 20.165 21.8636 23.9323 21.8636 28.5741C21.8636 29.7682 22.1159 30.9118 22.57 31.9377C23.1755 33.2832 24.1173 34.4268 25.2777 35.3014ZM20.8377 17.6423V15.1195C20.8377 14.5477 20.3668 14.0768 19.7782 14.0768H17.2723C16.7005 14.0768 16.2295 14.5477 16.2295 15.1195V17.6423C16.2295 18.2141 16.7005 18.685 17.2723 18.685H19.795C20.3668 18.685 20.8377 18.2141 20.8377 17.6423ZM13.2695 17.6423V15.1195C13.2695 14.5477 12.7986 14.0768 12.21 14.0768H9.68727C9.11545 14.0768 8.64454 14.5477 8.64454 15.1195V17.6423C8.64454 18.2141 9.11545 18.685 9.68727 18.685H12.2268C12.7986 18.685 13.2695 18.2141 13.2695 17.6423ZM9.68727 21.645C9.11545 21.645 8.64454 22.1159 8.64454 22.6877V25.2105C8.64454 25.7823 9.11545 26.2532 9.68727 26.2532H12.21C12.7818 26.2532 13.2527 25.7823 13.2527 25.2105V22.6877C13.2527 22.1159 12.7818 21.645 12.21 21.645H9.68727Z" fill="black"/>
</svg>
