<svg width="91" height="20" viewBox="0 0 91 20" fill="none" xmlns="http://www.w3.org/2000/svg">
<path d="M10.5666 0C4.79112 0 0.0900402 4.4456 0.0875901 9.90963C0.0869776 11.6562 0.569642 13.3611 1.48658 14.8639L0 20L5.55493 18.6218C7.08561 19.4114 8.80862 19.8274 10.5623 19.8279H10.5666C16.3414 19.8279 21.0424 15.3818 21.0449 9.91774C21.0461 7.26973 19.9571 4.77986 17.9786 2.90696C16.0002 1.03348 13.3694 0.00115861 10.5666 0ZM10.5666 18.1543H10.5629C9.00034 18.1543 7.46721 17.7563 6.13008 17.0061L5.81219 16.8277L2.51622 17.6457L3.3958 14.6061L3.18877 14.2944C2.31716 12.9829 1.85654 11.4668 1.85716 9.91079C1.85899 5.36902 5.76625 1.6742 10.5702 1.6742C12.8966 1.67478 15.0833 2.53273 16.7273 4.08991C18.3719 5.64651 19.2766 7.71637 19.2759 9.91716C19.2741 14.4589 15.3669 18.1543 10.5666 18.1543ZM15.3436 11.9853C15.082 11.8613 13.7945 11.2623 13.5544 11.1795C13.3143 11.0966 13.1397 11.0555 12.9652 11.3034C12.7906 11.5514 12.289 12.1093 12.1364 12.2744C11.9839 12.44 11.8308 12.4603 11.5692 12.3363C11.3077 12.2124 10.4636 11.9505 9.46402 11.1071C8.68551 10.4507 8.15997 9.63967 8.00745 9.39173C7.85493 9.14378 7.99091 9.00996 8.1226 8.88657C8.24021 8.77592 8.38415 8.5975 8.51523 8.45267C8.64631 8.30785 8.6898 8.20473 8.77677 8.03905C8.86375 7.87394 8.82026 7.72912 8.75472 7.60514C8.68918 7.48117 8.16548 6.26231 7.94742 5.76642C7.73488 5.28386 7.51927 5.34874 7.35818 5.34121C7.20566 5.33368 7.0311 5.33252 6.85653 5.33252C6.68196 5.33252 6.39837 5.39451 6.15826 5.64245C5.91815 5.8904 5.24193 6.4894 5.24193 7.70826C5.24193 8.92712 6.18031 10.1049 6.31078 10.27C6.44185 10.4351 8.15691 12.9365 10.7834 14.0088C11.4082 14.2637 11.8957 14.4161 12.2761 14.5302C12.9033 14.7185 13.4742 14.6918 13.925 14.6281C14.4279 14.5568 15.474 14.0291 15.6921 13.4504C15.9102 12.8722 15.9102 12.3763 15.8446 12.2726C15.7791 12.1695 15.6045 12.1075 15.343 11.9835L15.3436 11.9853ZM33.8808 11.8341H33.8527L32.1156 5.20565H30.022L28.2561 11.753H28.2279L26.6188 5.20565H24.3831L27.0745 14.825H29.339L31.0332 8.27714H31.062L32.785 14.825H35.0066L37.7409 5.20565H35.5481L33.8808 11.8341ZM44.5613 8.45904C44.3622 8.21226 44.0891 8.01935 43.743 7.87974C43.3963 7.74128 42.9522 7.67176 42.4114 7.67176C42.0316 7.67176 41.6427 7.7633 41.2433 7.94809C40.8446 8.13173 40.5175 8.42602 40.2608 8.83038H40.2179V5.20565H38.196V14.8245H40.2179V11.1737C40.2179 10.464 40.3411 9.95481 40.5885 9.64431C40.8354 9.33496 41.2341 9.1797 41.7848 9.1797C42.2687 9.1797 42.6055 9.32105 42.796 9.60433C42.9859 9.88703 43.0809 10.3157 43.0809 10.8904V14.8245H45.1034V10.5405C45.1034 10.1095 45.0624 9.71672 44.9821 9.3616C44.9013 9.00765 44.761 8.70641 44.5613 8.45904ZM52.8922 13.2754V9.65184C52.8922 9.22894 52.7929 8.89005 52.5927 8.63457C52.3936 8.37852 52.1376 8.17866 51.8246 8.03499C51.5109 7.89132 51.1643 7.79458 50.7845 7.74534C50.4047 7.6961 50.0299 7.67119 49.6599 7.67119C49.252 7.67119 48.8459 7.70884 48.4428 7.78589C48.0386 7.86236 47.676 7.99038 47.3532 8.16997C47.0304 8.34956 46.7639 8.58765 46.5563 8.88368C46.3468 9.18028 46.228 9.55278 46.1998 10.0023H48.2217C48.2597 9.62519 48.3932 9.35523 48.6211 9.1936C48.8489 9.03198 49.1619 8.95145 49.5607 8.95145C49.7408 8.95145 49.9092 8.96246 50.066 8.98505C50.2222 9.00765 50.36 9.05167 50.4789 9.11945C50.5977 9.18665 50.6926 9.28108 50.7637 9.40273C50.8347 9.52381 50.8703 9.68833 50.8703 9.89399C50.8794 10.0921 50.8176 10.2416 50.6853 10.3453C50.5517 10.449 50.3717 10.5277 50.1438 10.581C49.916 10.6355 49.655 10.6761 49.3604 10.7021C49.0658 10.7299 48.7669 10.7664 48.4637 10.8105C48.1592 10.8556 47.8579 10.9159 47.5596 10.9924C47.2607 11.0682 46.9936 11.1835 46.7615 11.3353C46.5287 11.4888 46.3388 11.6927 46.1912 11.9488C46.0442 12.2048 45.9707 12.531 45.9707 12.9255C45.9707 13.2847 46.035 13.5946 46.163 13.8547C46.2911 14.116 46.4693 14.3309 46.6972 14.5018C46.925 14.6727 47.1909 14.7984 47.4947 14.8795C47.7979 14.96 48.1262 15.0006 48.4771 15.0006C48.9329 15.0006 49.3794 14.9374 49.8155 14.8123C50.2522 14.6854 50.6326 14.4665 50.9554 14.1513C50.9646 14.2683 50.9811 14.383 51.005 14.4948C51.0289 14.6067 51.0595 14.7173 51.0975 14.8245H53.1482C53.0533 14.6814 52.9865 14.4659 52.9485 14.178C52.9099 13.8906 52.8909 13.5905 52.8909 13.2754H52.8922ZM50.8703 12.1301C50.8703 12.239 50.8586 12.3827 50.8347 12.5617C50.8114 12.7419 50.7471 12.9185 50.6424 13.0941C50.5377 13.269 50.3759 13.4202 50.1579 13.5454C49.9398 13.6716 49.6311 13.7342 49.2318 13.7342C49.0707 13.7342 48.9139 13.7209 48.762 13.6931C48.6101 13.6664 48.4771 13.6189 48.3632 13.5517C48.2493 13.4845 48.1592 13.3924 48.0925 13.2754C48.0263 13.1584 47.9926 13.0153 47.9926 12.845C47.9926 12.6654 48.0263 12.5165 48.0925 12.4001C48.1592 12.2836 48.2468 12.1869 48.3565 12.1104C48.4649 12.0339 48.5935 11.9737 48.7405 11.9285C48.8875 11.8839 49.037 11.848 49.1895 11.8208C49.3506 11.7941 49.5123 11.7709 49.6734 11.7536C49.8357 11.7362 49.9894 11.713 50.1365 11.6864C50.2841 11.6591 50.4213 11.6255 50.5499 11.585C50.6779 11.5444 50.7845 11.4894 50.8703 11.417V12.1301ZM56.6665 5.77164H54.644V7.85946H53.4196V9.13915H54.644V13.2488C54.644 13.5992 54.7065 13.8819 54.8296 14.0974C54.9533 14.3129 55.1217 14.4798 55.3349 14.5962C55.5487 14.7132 55.7955 14.7914 56.076 14.8314C56.3554 14.8714 56.653 14.8923 56.966 14.8923C57.1663 14.8923 57.3697 14.8876 57.5792 14.8795C57.7874 14.8702 57.9773 14.8529 58.1488 14.825V13.3432C58.0533 13.3611 57.954 13.3756 57.8493 13.3837C57.7452 13.393 57.6361 13.3976 57.5222 13.3976C57.181 13.3976 56.9526 13.3432 56.8386 13.2354C56.7253 13.1277 56.6683 12.9122 56.6683 12.5883V9.13915H58.1494V7.85946H56.6683V5.77164H56.6665ZM65.0249 11.7738C64.892 11.5537 64.7162 11.3695 64.4982 11.2212C64.2801 11.0735 64.0302 10.9541 63.7509 10.8637C63.4704 10.7745 63.1831 10.6986 62.8891 10.6355C62.6043 10.5724 62.325 10.5138 62.0493 10.46C61.7737 10.4061 61.5293 10.3453 61.3155 10.2786C61.1024 10.2109 60.9296 10.124 60.7967 10.0156C60.6632 9.90789 60.5977 9.76944 60.5977 9.59796C60.5977 9.45429 60.6344 9.33959 60.711 9.25443C60.7869 9.16927 60.88 9.10439 60.9891 9.05863C61.0987 9.01402 61.2187 8.98505 61.3517 8.97115C61.4846 8.95783 61.6083 8.95145 61.7216 8.95145C62.0824 8.95145 62.396 9.01634 62.6625 9.14668C62.9277 9.27703 63.0753 9.52613 63.1028 9.89399H65.0256C64.9876 9.46298 64.8712 9.10613 64.677 8.82285C64.4829 8.54015 64.2378 8.31364 63.9438 8.14274C63.6498 7.97185 63.3154 7.85077 62.9393 7.77894C62.5645 7.7071 62.1779 7.67119 61.7798 7.67119C61.3817 7.67119 60.9909 7.70479 60.6124 7.77141C60.232 7.83918 59.8902 7.9562 59.587 8.12247C59.2826 8.28873 59.0388 8.51524 58.8532 8.80257C58.6676 9.08991 58.5751 9.45835 58.5751 9.90731C58.5751 10.2126 58.6419 10.4716 58.7754 10.6824C58.9071 10.8939 59.0835 11.0682 59.301 11.2079C59.5202 11.3469 59.7695 11.4599 60.0494 11.5444C60.3294 11.6308 60.6166 11.7043 60.9106 11.7675C61.6328 11.9111 62.1957 12.0548 62.5987 12.199C63.0024 12.3427 63.2039 12.5582 63.2039 12.8456C63.2039 13.0165 63.1617 13.1566 63.0759 13.269C62.9902 13.382 62.8836 13.4712 62.7556 13.5384C62.6269 13.6062 62.4842 13.656 62.328 13.6867C62.1712 13.7186 62.0211 13.7342 61.879 13.7342C61.6794 13.7342 61.4876 13.7116 61.3027 13.667C61.1171 13.6218 60.9535 13.5523 60.8108 13.4579C60.6687 13.3635 60.5517 13.2424 60.4617 13.0941C60.3722 12.9458 60.3263 12.7691 60.3263 12.5617H58.4042C58.4238 13.0286 58.5347 13.4173 58.7393 13.7273C58.9426 14.0372 59.2036 14.2863 59.5221 14.4751C59.84 14.6634 60.2038 14.7984 60.6124 14.8795C61.0197 14.96 61.4374 15.0006 61.8643 15.0006C62.2913 15.0006 62.6931 14.9623 63.0967 14.8865C63.5004 14.81 63.8587 14.6773 64.1717 14.4885C64.4859 14.3002 64.7383 14.0511 64.9337 13.7412C65.1278 13.4307 65.2252 13.0472 65.2252 12.5889C65.2252 12.2651 65.1591 11.994 65.0262 11.7744L65.0249 11.7738ZM69.0406 5.20565L65.1958 14.825H67.4456L68.2425 12.6828H72.045L72.8131 14.825H75.1352L71.3333 5.20565H69.0406ZM68.8275 11.1071L70.1517 7.57734H70.1799L71.4619 11.1071H68.8275ZM82.1277 8.80315C81.8526 8.46194 81.506 8.18793 81.0882 7.98169C80.6705 7.77488 80.1725 7.67176 79.5937 7.67176C79.1374 7.67176 78.7202 7.75692 78.3405 7.92724C77.9595 8.09813 77.6471 8.37215 77.4009 8.74928H77.3721V7.85946H75.4488V17.2639H77.4725V13.963H77.5001C77.7469 14.3048 78.063 14.5626 78.4483 14.737C78.8317 14.9119 79.2525 15 79.7082 15C80.2497 15 80.7219 14.9004 81.125 14.7034C81.5286 14.5059 81.8655 14.2405 82.1362 13.908C82.407 13.5755 82.6079 13.1943 82.742 12.7633C82.8737 12.3317 82.9411 11.8827 82.9411 11.4158C82.9411 10.9217 82.8737 10.4484 82.742 9.99421C82.6079 9.54119 82.4045 9.14321 82.1289 8.80199L82.1277 8.80315ZM80.8322 12.1846C80.7746 12.4545 80.6772 12.6897 80.54 12.8919C80.4022 13.0941 80.2221 13.2586 79.9979 13.3837C79.7756 13.5094 79.4975 13.5732 79.1655 13.5732C78.8335 13.5732 78.5683 13.51 78.3405 13.3837C78.1126 13.2586 77.9295 13.0941 77.7917 12.8919C77.6538 12.6897 77.5546 12.4545 77.4927 12.1846C77.4309 11.9152 77.4009 11.6412 77.4009 11.3637C77.4009 11.0862 77.4284 10.7971 77.4854 10.5283C77.543 10.259 77.6397 10.0209 77.7782 9.81346C77.9148 9.60723 78.0961 9.43923 78.3196 9.30889C78.5426 9.17854 78.8195 9.1125 79.1521 9.1125C79.4847 9.1125 79.7486 9.17854 79.971 9.30889C80.1939 9.43865 80.3771 9.60897 80.5192 9.82042C80.6613 10.0319 80.763 10.2723 80.8255 10.5411C80.8879 10.8105 80.9173 11.085 80.9173 11.3637C80.9173 11.6423 80.8892 11.9158 80.8322 12.1846ZM90.7997 9.99537C90.6668 9.54235 90.4628 9.14436 90.1872 8.80315C89.9116 8.46194 89.5661 8.18793 89.1483 7.98169C88.73 7.77488 88.2314 7.67176 87.6526 7.67176C87.1975 7.67176 86.7791 7.75692 86.4 7.92724C86.0202 8.09813 85.7066 8.37215 85.4598 8.74928H85.4322V7.85946H83.5095V17.2639H85.5314V13.963H85.5602C85.8071 14.3048 86.1231 14.5626 86.5072 14.737C86.8912 14.9119 87.312 15 87.7677 15C88.3086 15 88.7802 14.9004 89.1845 14.7034C89.5875 14.5059 89.925 14.2405 90.1952 13.908C90.4665 13.5755 90.6674 13.1943 90.8003 12.7633C90.9338 12.3317 91 11.8827 91 11.4158C91 10.9217 90.9338 10.4484 90.8003 9.99421L90.7997 9.99537ZM88.8911 12.1846C88.8347 12.4545 88.7374 12.6897 88.5995 12.8919C88.4611 13.0941 88.281 13.2586 88.0581 13.3837C87.8351 13.5094 87.5576 13.5732 87.2251 13.5732C86.8925 13.5732 86.6266 13.51 86.3988 13.3837C86.1703 13.2586 85.9884 13.0941 85.8499 12.8919C85.7127 12.6897 85.6129 12.4545 85.551 12.1846C85.4892 11.9152 85.4585 11.6412 85.4585 11.3637C85.4585 11.0862 85.4873 10.7971 85.5443 10.5283C85.6013 10.259 85.6986 10.0209 85.8365 9.81346C85.9737 9.60723 86.1544 9.43923 86.3779 9.30889C86.6003 9.17854 86.8784 9.1125 87.211 9.1125C87.5436 9.1125 87.8063 9.17854 88.0293 9.30889C88.2529 9.43865 88.4354 9.60897 88.5781 9.82042C88.7208 10.0319 88.8231 10.2723 88.8844 10.5411C88.9468 10.8105 88.9768 11.085 88.9768 11.3637C88.9768 11.6423 88.9481 11.9158 88.8911 12.1846Z" fill="white"/>
</svg>
